<?xml version="1.0" ?>
<svg xmlns:inkscape="http://www.inkscape.org/namespaces/inkscape" xmlns:sodipodi="http://sodipodi.sourceforge.net/DTD/sodipodi-0.dtd" xmlns="http://www.w3.org/2000/svg" width="512" height="512" viewBox="0 0 512 512" version="1.1" id="svg_1" sodipodi:docname="ADMIN--@DMJ_Stickers" inkscape:export-xdpi="96" inkscape:export-ydpi="96" style="fill: none; stroke: none">
   <defs/>
   <sodipodi:namedview inkscape:pagecheckerboard="true" borderlayer="true" bordercolor="#666666" pagecolor="#ffffff"/>
   <g inkscape:groupmode="layer" id="g_2" transform="matrix(3.77953, 0.0, 0.0, 3.77953, 0.0, 0.0)" inkscape:label="ShapeLayer" style="">
      <g id="Livello_1" inkscape:label="Livello 1" transform="matrix(1.0, 0.0, 0.0, 1.0, 0.0, 0.0)" style="">
         <g id="text6834" inkscape:label="text6834" transform="matrix(1.0, 0.0, 0.0, 1.0, 0.0, 0.0)" style="">
            <g id="path668" inkscape:label="path668" transform="matrix(1.0, 0.0, 0.0, 1.0, 0.0, 0.0)" style="fill-opacity:1.0;fill:rgb(10, 135, 216)">
               <path d="M 26.863,75.733 C 26.863,75.733 17.031,75.733 17.031,75.733 C 17.031,75.733 15.162,81.341 15.162,81.341 C 15.162,81.341 9.199,81.341 9.199,81.341 C 9.199,81.341 19.33,54.126 19.33,54.126 C 19.33,54.126 24.526,54.126 24.526,54.126 C 24.526,54.126 34.713,81.341 34.713,81.341 C 34.713,81.341 28.751,81.341 28.751,81.341 C 28.751,81.341 26.863,75.733 26.863,75.733 Z
M 18.545,71.191 C 18.545,71.191 25.349,71.191 25.349,71.191 C 25.349,71.191 21.928,61.004 21.928,61.004 C 21.928,61.004 18.545,71.191 18.545,71.191 Z" style="fill-opacity:1.0;fill:rgb(10, 135, 216)"/>
            </g>
            <g id="path670" inkscape:label="path670" transform="matrix(1.0, 0.0, 0.0, 1.0, 0.0, 0.0)" style="fill-opacity:1.0;fill:rgb(10, 135, 216)">
               <path d="M 36.583,81.341 C 36.583,81.341 36.583,54.126 36.583,54.126 C 36.583,54.126 44.957,54.126 44.957,54.126 C 44.957,54.126 48.546,54.126000000000005 51.368,55.752 C 51.368,55.752 54.209,57.359 55.798,60.35 C 55.798,60.35 57.387,63.32300000000001 57.387,67.117 C 57.387,67.117 57.387,68.369 57.387,68.369 C 57.387,68.369 57.387,72.163 55.817,75.116 C 55.817,75.116 54.265,78.07 51.424,79.696 C 51.424,79.696 48.583,81.32199999999999 45.013,81.341 C 45.013,81.341 36.583,81.341 36.583,81.341 Z
M 42.191,58.668 C 42.191,58.668 42.191,76.836 42.191,76.836 C 42.191,76.836 44.901,76.836 44.901,76.836 C 44.901,76.836 48.191,76.837 49.929,74.687 C 49.929,74.687 51.668,72.537 51.705,68.537 C 51.705,68.537 51.705,67.098 51.705,67.098 C 51.705,67.098 51.705,62.948 49.985,60.817 C 49.985,60.817 48.265,58.668 44.957,58.668 C 44.957,58.668 42.191,58.668 42.191,58.668 Z" style="fill-opacity:1.0;fill:rgb(10, 135, 216)"/>
            </g>
            <g id="path672" inkscape:label="path672" transform="matrix(1.0, 0.0, 0.0, 1.0, 0.0, 0.0)" style="fill-opacity:1.0;fill:rgb(10, 135, 216)">
               <path d="M 68.117,54.126 C 68.117,54.126 75.107,73.864 75.107,73.864 C 75.107,73.864 82.06,54.126 82.06,54.126 C 82.06,54.126 89.425,54.126 89.425,54.126 C 89.425,54.126 89.425,81.341 89.425,81.341 C 89.425,81.341 83.799,81.341 83.799,81.341 C 83.799,81.341 83.799,73.902 83.799,73.902 C 83.799,73.902 84.359,61.06 84.359,61.06 C 84.359,61.06 77.014,81.341 77.014,81.341 C 77.014,81.341 73.163,81.341 73.163,81.341 C 73.163,81.341 65.836,61.079 65.836,61.079 C 65.836,61.079 66.397,73.902 66.397,73.902 C 66.397,73.902 66.397,81.341 66.397,81.341 C 66.397,81.341 60.789,81.341 60.789,81.341 C 60.789,81.341 60.789,54.126 60.789,54.126 C 60.789,54.126 68.117,54.126 68.117,54.126 Z" style="fill-opacity:1.0;fill:rgb(10, 135, 216)"/>
            </g>
            <g id="path674" inkscape:label="path674" transform="matrix(1.0, 0.0, 0.0, 1.0, 0.0, 0.0)" style="fill-opacity:1.0;fill:rgb(10, 135, 216)">
               <path d="M 99.612,81.341 C 99.612,81.341 94.005,81.341 94.005,81.341 C 94.005,81.341 94.005,54.126 94.005,54.126 C 94.005,54.126 99.612,54.126 99.612,54.126 C 99.612,54.126 99.612,81.341 99.612,81.341 Z" style="fill-opacity:1.0;fill:rgb(10, 135, 216)"/>
            </g>
            <g id="path676" inkscape:label="path676" transform="matrix(1.0, 0.0, 0.0, 1.0, 0.0, 0.0)" style="fill-opacity:1.0;fill:rgb(10, 135, 216)">
               <path d="M 126.267,81.341 C 126.267,81.341 120.66,81.341 120.66,81.341 C 120.66,81.341 109.744,63.434 109.744,63.434 C 109.744,63.434 109.744,81.341 109.744,81.341 C 109.744,81.341 104.137,81.341 104.137,81.341 C 104.137,81.341 104.137,54.126 104.137,54.126 C 104.137,54.126 109.744,54.126 109.744,54.126 C 109.744,54.126 120.679,72.07 120.679,72.07 C 120.679,72.07 120.679,54.126 120.679,54.126 C 120.679,54.126 126.267,54.126 126.267,54.126 C 126.267,54.126 126.267,81.341 126.267,81.341 Z" style="fill-opacity:1.0;fill:rgb(10, 135, 216)"/>
            </g>
         </g>
         <g id="rect6363" inkscape:label="rect6363" transform="matrix(1.0, 0.0, 0.0, 1.0, 0.0, 0.0)" style="stroke:rgb(255, 21, 56);stroke-opacity:1.0;stroke-width:6.173;stroke-miterlimit:0.0;stroke-linecap:round;stroke-linejoin:round">
            <path d="M 10.603,39.969 C 10.603,39.969 124.863,39.969 124.863,39.969 C 128.881,39.969 132.116,43.202999999999996 132.116,47.221 C 132.116,47.221 132.116,88.246 132.116,88.246 C 132.116,92.264 128.881,95.498 124.863,95.498 C 124.863,95.498 10.603,95.498 10.603,95.498 C 6.585,95.498 3.351,92.264 3.351,88.246 C 3.351,88.246 3.351,47.221 3.351,47.221 C 3.351,43.202999999999996 6.585,39.969 10.603,39.969 C 10.603,39.969 10.603,39.969 10.603,39.969 Z" style=""/>
         </g>
      </g>
      <g id="g_3" inkscape:label="Livello 1" transform="matrix(1.0, 0.0, 0.0, 1.0, 0.0, 0.0)" style="">
         <g id="g_4" inkscape:label="rect6363" transform="matrix(1.0, 0.0, 0.0, 1.0, 0.0, 0.0)" style="stroke:rgb(255, 255, 28);stroke-opacity:1.0;stroke-width:6.173;stroke-miterlimit:0.0;stroke-linecap:round;stroke-linejoin:round">
            <path d="M 132.116,74.571 C 132.116,74.571 132.116,74.571 132.116,74.571 " style=""/>
         </g>
      </g>
      <g id="g_5" inkscape:label="Livello 1" transform="matrix(1.0, 0.0, 0.0, 1.0, 0.0, 0.0)" style="">
         <g id="g_6" inkscape:label="rect6363" transform="matrix(1.0, 0.0, 0.0, 1.0, 0.0, 0.0)" style="stroke:rgb(10, 135, 216);stroke-opacity:1.0;stroke-width:6.173;stroke-miterlimit:0.0;stroke-linecap:round;stroke-linejoin:round">
            <path d="M 132.116,74.571 C 132.116,74.571 132.116,74.571 132.116,74.571 " style=""/>
         </g>
      </g>
   </g>
</svg>
