<?xml version="1.0" ?>
<svg xmlns:inkscape="http://www.inkscape.org/namespaces/inkscape" xmlns:sodipodi="http://sodipodi.sourceforge.net/DTD/sodipodi-0.dtd" xmlns="http://www.w3.org/2000/svg" width="512" height="512" viewBox="0 0 512 512" version="1.1" id="svg_1" sodipodi:docname="78 - 97651" inkscape:export-xdpi="96" inkscape:export-ydpi="96" style="fill: none; stroke: none">
   <defs/>
   <sodipodi:namedview inkscape:pagecheckerboard="true" borderlayer="true" bordercolor="#666666" pagecolor="#ffffff"/>
   <g inkscape:groupmode="layer" id="g_2" inkscape:label="78 CheckMark" transform="matrix(3.46, 0.0, 0.0, 3.46, -263.0, -263.0)">
      <g inkscape:groupmode="layer" id="Shape_Layer_1" inkscape:label="Shape Layer 1" transform="matrix(0.885, 0.0, 0.0, 0.885, 150.0, 150.0)" style="stroke:rgb(255, 255, 255);stroke-opacity:1.0;stroke-width:10.0;stroke-miterlimit:4.0;stroke-linecap:round;stroke-linejoin:miter">
         <path d="M 44.8,15.73280839081338 C 44.8,15.73280839081338 44.8,15.73280839081338 44.8,15.73280839081338 " id="path_3" style=""/>
      </g>
      <g inkscape:groupmode="layer" id="Shape_Layer_2" inkscape:label="Shape Layer 2" transform="matrix(0.885, 0.0, 0.0, 0.885, 150.0, 150.0)" style="stroke:rgb(255, 26, 58);stroke-opacity:1.0;stroke-width:10.0;stroke-miterlimit:4.0;stroke-linecap:round;stroke-linejoin:miter">
         <path d="M 44.8,15.73280839081338 C 44.8,15.73280839081338 44.8,15.73280839081338 44.8,15.73280839081338 " id="path_4" style=""/>
      </g>
      <g inkscape:groupmode="layer" id="Shape_Layer_3" inkscape:label="Shape Layer 3" transform="matrix(0.885, 0.0, 0.0, 0.885, 150.0, 150.0)" style="stroke:rgb(255, 26, 58);stroke-opacity:1.0;stroke-width:10.0;stroke-miterlimit:4.0;stroke-linecap:round;stroke-linejoin:miter">
         <path d="M 44.8,15.73280839081338 C 44.8,15.73280839081338 44.8,15.73280839081338 44.8,15.73280839081338 " id="path_5" style=""/>
      </g>
      <g inkscape:groupmode="layer" id="Shape_Layer_4" inkscape:label="Shape Layer 4" transform="matrix(0.0, 0.0, 0.0, 0.0, 150.0, 150.0)" opacity="0.3" style="fill-opacity:1.0;fill:rgb(255, 26, 58);fill-rule:nonzero">
         <ellipse rx="50.0" ry="50.0" cx="0" cy="0" id="Ellipse_Path_1" inkscape:label="Ellipse Path 1" style="fill-opacity:1.0;fill:rgb(255, 26, 58);fill-rule:nonzero"/>
      </g>
      <g inkscape:groupmode="layer" id="Shape_Layer_5" inkscape:label="Shape Layer 5" transform="matrix(0.5, 0.0, 0.0, 0.5, 160.5, 148.0)" style="">
         <g id="Shape_1" inkscape:label="Shape 1" transform="matrix(1.0, 0.0, 0.0, 1.0, 0.0, 0.0)" style="stroke:rgb(255, 255, 255);stroke-opacity:1.0;stroke-width:20.0;stroke-miterlimit:0;stroke-linecap:round;stroke-linejoin:round"/>
      </g>
      <g inkscape:groupmode="layer" id="Shape_Layer_6" inkscape:label="Shape Layer 6" transform="matrix(0.5, 0.0, 0.0, 0.5, 160.5, 148.0)" style="">
         <g id="g_6" inkscape:label="Shape 1" transform="matrix(1.0, 0.0, 0.0, 1.0, 0.0, 0.0)" style="stroke:rgb(255, 26, 58);stroke-opacity:1.0;stroke-width:20.0;stroke-miterlimit:0;stroke-linecap:round;stroke-linejoin:round"/>
      </g>
      <g inkscape:groupmode="layer" id="Shape_Layer_7" inkscape:label="Shape Layer 7" transform="matrix(0.5, 0.0, 0.0, 0.5, 160.5, 148.0)" style="">
         <g id="g_7" inkscape:label="Shape 1" transform="matrix(1.0, 0.0, 0.0, 1.0, 0.0, 0.0)" style="stroke:rgb(255, 26, 58);stroke-opacity:1.0;stroke-width:20.0;stroke-miterlimit:0;stroke-linecap:round;stroke-linejoin:round"/>
      </g>
   </g>
</svg>
