<?xml version="1.0" ?>
<svg xmlns:inkscape="http://www.inkscape.org/namespaces/inkscape" xmlns:sodipodi="http://sodipodi.sourceforge.net/DTD/sodipodi-0.dtd" xmlns="http://www.w3.org/2000/svg" width="512" height="512" viewBox="0 0 512 512" version="1.1" inkscape:export-xdpi="96" inkscape:export-ydpi="96" style="fill: none; stroke: none">
   <defs/>
   <sodipodi:namedview inkscape:pagecheckerboard="true" borderlayer="true" bordercolor="#666666" pagecolor="#ffffff"/>
   <g inkscape:groupmode="layer" id="g_1" transform="matrix(2.3703703703703702, 0.0, 0.0, 2.3703703703703702, 0.0, 0.0)" inkscape:label="PreCompLayer">
      <g inkscape:groupmode="layer" id="g_2" transform="matrix(1.0, 0.0, 0.0, 1.0, 0.0, 0.0)" inkscape:label="ShapeLayer" style="">
         <g id="g_3" transform="matrix(1.0, 0.0, 0.0, 1.0, 0.0, 0.0)" style="fill-opacity:1.0;fill:rgb(255, 255, 255)">
            <path d="M 158.899,45.266 C 163.015,44.156 165.073,43.6 166.697,44.079 C 168.1201224610526,44.4984384237304 169.33821034641673,45.431343309887225 170.114,46.696 C 171.0,48.14 171,50.272 171,54.534 C 171,54.534 171,141.652 171,141.652 C 171,146.85 171.0,149.44899999999998 170.19,151.726 C 169.47388774965185,153.7382888350665 168.30667447185215,155.5602636057468 166.778,157.052 C 165.04899999999998,158.739 162.688,159.827 157.96699999999998,162 C 157.96699999999998,162 118.70399999999998,180.072 118.70399999999998,180.072 C 114.76699999999998,181.885 112.79799999999997,182.791 110.74699999999999,183.148 C 108.92940921287901,183.46498560578965 107.07059078712096,183.46498560578965 105.25299999999999,183.148 C 103.20199999999998,182.791 101.23299999999999,181.885 97.29599999999999,180.072 C 97.29599999999999,180.072 58.033,162 58.033,162 C 53.312,159.827 50.951,158.739 49.222,157.052 C 47.69340827233124,155.5601960862402 46.52620817683545,153.73824189262632 45.81,151.726 C 45.0,149.449 45,146.85 45,141.652 C 45,141.652 45,54.534 45,54.534 C 45,50.272 45.0,48.14 45.886,46.696 C 46.661933553854915,45.431472256403346 47.879964532488316,44.498610953774254 49.303000000000004,44.079 C 50.92700000000001,43.6 52.98500000000001,44.155 57.101000000000006,45.266 C 57.101000000000006,45.266 101.33,57.2 101.33,57.2 C 103.813,57.870000000000005 105.05499999999999,58.205000000000005 106.315,58.339000000000006 C 107.435,58.45700000000001 108.563,58.45700000000001 109.68299999999999,58.339000000000006 C 110.943,58.206 112.18499999999999,57.870000000000005 114.66799999999999,57.2 C 114.66799999999999,57.2 158.898,45.266000000000005 158.898,45.266000000000005 C 158.898,45.266000000000005 158.899,45.266 158.899,45.266 Z
M 84.826,82.585 C 76.11,82.585 70.505,86.618 68.317,91.43799999999999 C 67.80499999999999,92.6 67.565,93.591 67.565,94.75299999999999 C 67.565,97.24799999999999 69.035,98.92299999999999 71.90599999999999,98.92299999999999 C 74.231,98.92299999999999 75.42599999999999,98.06799999999998 76.55499999999999,95.74399999999999 C 78.16099999999999,92.25799999999998 80.69,90.51399999999998 84.85999999999999,90.51399999999998 C 89.84999999999998,90.51399999999998 92.51699999999998,93.14699999999998 92.51699999999998,97.11099999999998 C 92.51699999999998,101.14499999999998 89.16699999999999,103.94699999999997 84.00599999999999,103.94699999999997 C 84.00599999999999,103.94699999999997 81.98899999999999,103.94699999999997 81.98899999999999,103.94699999999997 C 79.49399999999999,103.94699999999997 78.05899999999998,105.45099999999998 78.05899999999998,107.60399999999997 C 78.05899999999998,109.82599999999996 79.49399999999999,111.29599999999996 81.98899999999999,111.29599999999996 C 81.98899999999999,111.29599999999996 84.14299999999999,111.29599999999996 84.14299999999999,111.29599999999996 C 90.12399999999998,111.29599999999996 93.64399999999999,113.96199999999996 93.60999999999999,118.74699999999996 C 93.60999999999999,122.84899999999996 90.12399999999998,125.78799999999995 85.06499999999998,125.78799999999995 C 79.93899999999998,125.78799999999995 77.27199999999998,123.73699999999995 75.52899999999998,120.28499999999995 C 74.50399999999998,118.40499999999996 73.20499999999998,117.58499999999995 71.15399999999998,117.58499999999995 C 68.31699999999998,117.58499999999995 66.60799999999998,119.25999999999995 66.60799999999998,121.92599999999995 C 66.60799999999998,122.95099999999995 66.84799999999997,124.04499999999994 67.39399999999998,125.17299999999994 C 69.71899999999998,130.02599999999995 75.49499999999998,134.09399999999994 84.89399999999998,134.09399999999994 C 96.34399999999998,134.09399999999994 104.10399999999998,128.14599999999993 104.10399999999998,119.19099999999993 C 104.10299999999998,112.38999999999993 99.35299999999998,108.08299999999993 92.00399999999999,107.39899999999993 C 92.00399999999999,107.39899999999993 92.00399999999999,107.19399999999993 92.00399999999999,107.19399999999993 C 97.814,105.99799999999993 102.29199999999999,101.89599999999993 102.29199999999999,95.64199999999994 C 102.29199999999999,87.74599999999994 95.25099999999999,82.58499999999994 84.826,82.58499999999994 C 84.826,82.58499999999994 84.826,82.585 84.826,82.585 Z
M 129.94299999999998,82.55099999999999 C 117.50199999999998,82.55099999999999 109.81199999999998,92.326 109.81199999999998,108.25399999999999 C 109.81199999999998,124.216 117.43399999999998,134.094 129.94299999999998,134.094 C 142.45299999999997,134.094 150.041,124.14699999999999 150.041,108.22 C 150.041,92.292 142.385,82.55 129.94299999999998,82.55 C 129.94299999999998,82.55 129.94299999999998,82.55099999999999 129.94299999999998,82.55099999999999 Z
M 129.94299999999998,90.82199999999999 C 135.993,90.82199999999999 139.54799999999997,97.00899999999999 139.54799999999997,108.25399999999999 C 139.54799999999997,119.567 136.027,125.82199999999999 129.94299999999998,125.82199999999999 C 123.85899999999998,125.82199999999999 120.30499999999998,119.567 120.30499999999998,108.25399999999999 C 120.30499999999998,97.04299999999999 123.92799999999998,90.82199999999999 129.94299999999998,90.82199999999999 C 129.94299999999998,90.82199999999999 129.94299999999998,90.82199999999999 129.94299999999998,90.82199999999999 Z" style="fill-opacity:1.0;fill:rgb(255, 255, 255)"/>
         </g>
         <g id="g_4" transform="matrix(1.0, 0.0, 0.0, 1.0, 0.0, 0.0)" style="fill-opacity:0.4;fill:rgb(0, 0, 0)">
            <path d="M 158.899,45.266 C 158.899,45.266 162.026,56.851 162.026,56.851 C 162.026,56.851 158.899,45.266 158.899,45.266 C 158.899,45.266 158.899,45.266 158.899,45.266 Z
M 166.697,44.079 C 166.697,44.079 170.092,32.569 170.092,32.569 C 170.092,32.569 170.091,32.569 170.091,32.569 C 170.091,32.569 166.697,44.079 166.697,44.079 C 166.697,44.079 166.697,44.079 166.697,44.079 Z
M 170.114,46.696 C 170.114,46.696 180.34300000000002,40.422 180.34300000000002,40.422 C 180.34300000000002,40.422 180.34300000000002,40.421 180.34300000000002,40.421 C 180.34300000000002,40.421 170.11400000000003,46.696 170.11400000000003,46.696 C 170.11400000000003,46.696 170.114,46.696 170.114,46.696 Z
M 171,141.652 C 171,141.652 183,141.652 183,141.652 C 183,141.652 171,141.652 171,141.652 C 171,141.652 171,141.652 171,141.652 Z
M 170.19,151.726 C 170.19,151.726 181.496,155.748 181.496,155.748 C 181.496,155.748 170.19,151.726 170.19,151.726 C 170.19,151.726 170.19,151.726 170.19,151.726 Z
M 166.778,157.052 C 166.778,157.052 175.16,165.64 175.16,165.64 C 175.16,165.64 166.778,157.052 166.778,157.052 C 166.778,157.052 166.778,157.052 166.778,157.052 Z
M 157.967,162 C 157.967,162 162.984,172.901 162.984,172.901 C 162.984,172.901 162.985,172.901 162.985,172.901 C 162.985,172.901 157.967,162 157.967,162 C 157.967,162 157.967,162 157.967,162 Z
M 118.70400000000001,180.072 C 118.70400000000001,180.072 113.68700000000001,169.172 113.68700000000001,169.172 C 113.68700000000001,169.172 113.686,169.172 113.686,169.172 C 113.686,169.172 118.70400000000001,180.072 118.70400000000001,180.072 C 118.70400000000001,180.072 118.70400000000001,180.072 118.70400000000001,180.072 Z
M 110.74700000000001,183.148 C 110.74700000000001,183.148 112.80700000000002,194.97 112.80700000000002,194.97 C 112.80700000000002,194.97 112.80800000000002,194.97 112.80800000000002,194.97 C 112.80800000000002,194.97 110.74700000000001,183.148 110.74700000000001,183.148 C 110.74700000000001,183.148 110.74700000000001,183.148 110.74700000000001,183.148 Z
M 105.25300000000001,183.148 C 105.25300000000001,183.148 103.19200000000001,194.97 103.19200000000001,194.97 C 103.19200000000001,194.97 103.19300000000001,194.97 103.19300000000001,194.97 C 103.19300000000001,194.97 105.25300000000001,183.148 105.25300000000001,183.148 C 105.25300000000001,183.148 105.25300000000001,183.148 105.25300000000001,183.148 Z
M 97.29600000000002,180.072 C 97.29600000000002,180.072 102.31400000000002,169.172 102.31400000000002,169.172 C 102.31400000000002,169.172 102.31300000000002,169.172 102.31300000000002,169.172 C 102.31300000000002,169.172 97.29600000000002,180.072 97.29600000000002,180.072 C 97.29600000000002,180.072 97.29600000000002,180.072 97.29600000000002,180.072 Z
M 58.033,162 C 58.033,162 53.016,172.901 53.016,172.901 C 53.016,172.901 58.033,162 58.033,162 C 58.033,162 58.033,162 58.033,162 Z
M 49.222,157.052 C 49.222,157.052 40.84,165.64 40.84,165.64 C 40.84,165.64 49.222,157.052 49.222,157.052 C 49.222,157.052 49.222,157.052 49.222,157.052 Z
M 45.81,151.726 C 45.81,151.726 34.504000000000005,155.748 34.504000000000005,155.748 C 34.504000000000005,155.748 45.81,151.726 45.81,151.726 C 45.81,151.726 45.81,151.726 45.81,151.726 Z
M 45,141.652 C 45,141.652 33,141.652 33,141.652 C 33,141.652 45,141.652 45,141.652 C 45,141.652 45,141.652 45,141.652 Z
M 45.886,46.695999999999984 C 45.886,46.695999999999984 35.657000000000004,40.420999999999985 35.657000000000004,40.420999999999985 C 35.657000000000004,40.420999999999985 45.886,46.695999999999984 45.886,46.695999999999984 C 45.886,46.695999999999984 45.886,46.695999999999984 45.886,46.695999999999984 Z
M 49.303000000000004,44.078999999999986 C 49.303000000000004,44.078999999999986 45.909000000000006,32.56899999999999 45.909000000000006,32.56899999999999 C 45.909000000000006,32.56899999999999 45.90800000000001,32.56899999999999 45.90800000000001,32.56899999999999 C 45.90800000000001,32.56899999999999 49.30300000000001,44.078999999999986 49.30300000000001,44.078999999999986 C 49.30300000000001,44.078999999999986 49.303000000000004,44.078999999999986 49.303000000000004,44.078999999999986 Z
M 57.101000000000006,45.265999999999984 C 57.101000000000006,45.265999999999984 53.974,56.85 53.974,56.85 C 53.974,56.85 57.101,45.265 57.101,45.265 C 57.101,45.265 57.101000000000006,45.265999999999984 57.101000000000006,45.265999999999984 Z
M 101.33,57.2 C 101.33,57.2 104.456,45.615 104.456,45.615 C 104.456,45.615 101.33,57.2 101.33,57.2 C 101.33,57.2 101.33,57.2 101.33,57.2 Z
M 106.315,58.339000000000006 C 106.315,58.339000000000006 105.053,70.272 105.053,70.272 C 105.053,70.272 106.315,58.339000000000006 106.315,58.339000000000006 C 106.315,58.339000000000006 106.315,58.339000000000006 106.315,58.339000000000006 Z
M 109.68299999999999,58.339000000000006 C 109.68299999999999,58.339000000000006 110.945,70.272 110.945,70.272 C 110.945,70.272 109.68299999999999,58.339000000000006 109.68299999999999,58.339000000000006 C 109.68299999999999,58.339000000000006 109.68299999999999,58.339000000000006 109.68299999999999,58.339000000000006 Z
M 114.66799999999999,57.2 C 114.66799999999999,57.2 111.54199999999999,45.614000000000004 111.54199999999999,45.614000000000004 C 111.54199999999999,45.614000000000004 114.66799999999999,57.2 114.66799999999999,57.2 C 114.66799999999999,57.2 114.66799999999999,57.2 114.66799999999999,57.2 Z
M 84.826,82.585 C 84.826,82.585 84.826,70.585 84.826,70.585 C 84.826,70.585 84.826,82.585 84.826,82.585 C 84.826,82.585 84.826,82.585 84.826,82.585 Z
M 68.317,91.43799999999999 C 68.317,91.43799999999999 57.38999999999999,86.478 57.38999999999999,86.478 C 57.38999999999999,86.478 57.36399999999999,86.536 57.36399999999999,86.536 C 57.36399999999999,86.536 57.33799999999999,86.59400000000001 57.33799999999999,86.59400000000001 C 57.33799999999999,86.59400000000001 68.31799999999998,91.438 68.31799999999998,91.438 C 68.31799999999998,91.438 68.317,91.43799999999999 68.317,91.43799999999999 Z
M 67.565,94.75299999999999 C 67.565,94.75299999999999 55.565,94.75299999999999 55.565,94.75299999999999 C 55.565,94.75299999999999 67.565,94.75299999999999 67.565,94.75299999999999 C 67.565,94.75299999999999 67.565,94.75299999999999 67.565,94.75299999999999 Z
M 71.90599999999999,98.92299999999999 C 71.90599999999999,98.92299999999999 71.90599999999999,110.92299999999999 71.90599999999999,110.92299999999999 C 71.90599999999999,110.92299999999999 71.90599999999999,98.92299999999999 71.90599999999999,98.92299999999999 C 71.90599999999999,98.92299999999999 71.90599999999999,98.92299999999999 71.90599999999999,98.92299999999999 Z
M 76.55499999999999,95.74399999999999 C 76.55499999999999,95.74399999999999 87.351,100.98299999999999 87.351,100.98299999999999 C 87.351,100.98299999999999 87.403,100.87499999999999 87.403,100.87499999999999 C 87.403,100.87499999999999 87.453,100.76599999999999 87.453,100.76599999999999 C 87.453,100.76599999999999 76.555,95.74399999999999 76.555,95.74399999999999 C 76.555,95.74399999999999 76.55499999999999,95.74399999999999 76.55499999999999,95.74399999999999 Z
M 84.85999999999999,90.51399999999998 C 84.85999999999999,90.51399999999998 84.85999999999999,78.51399999999998 84.85999999999999,78.51399999999998 C 84.85999999999999,78.51399999999998 84.85999999999999,90.51399999999998 84.85999999999999,90.51399999999998 C 84.85999999999999,90.51399999999998 84.85999999999999,90.51399999999998 84.85999999999999,90.51399999999998 Z
M 92.51699999999998,97.11099999999998 C 92.51699999999998,97.11099999999998 104.51699999999998,97.11099999999998 104.51699999999998,97.11099999999998 C 104.51699999999998,97.11099999999998 92.51699999999998,97.11099999999998 92.51699999999998,97.11099999999998 C 92.51699999999998,97.11099999999998 92.51699999999998,97.11099999999998 92.51699999999998,97.11099999999998 Z
M 81.98899999999998,103.94699999999997 C 81.98899999999998,103.94699999999997 81.98899999999998,91.94699999999997 81.98899999999998,91.94699999999997 C 81.98899999999998,91.94699999999997 81.98899999999998,103.94699999999997 81.98899999999998,103.94699999999997 C 81.98899999999998,103.94699999999997 81.98899999999998,103.94699999999997 81.98899999999998,103.94699999999997 Z
M 78.05899999999997,107.60399999999997 C 78.05899999999997,107.60399999999997 66.05899999999997,107.60399999999997 66.05899999999997,107.60399999999997 C 66.05899999999997,107.60399999999997 78.05899999999997,107.60399999999997 78.05899999999997,107.60399999999997 C 78.05899999999997,107.60399999999997 78.05899999999997,107.60399999999997 78.05899999999997,107.60399999999997 Z
M 81.98899999999998,111.29599999999996 C 81.98899999999998,111.29599999999996 81.98899999999998,123.29599999999996 81.98899999999998,123.29599999999996 C 81.98899999999998,123.29599999999996 81.98899999999998,111.29599999999996 81.98899999999998,111.29599999999996 C 81.98899999999998,111.29599999999996 81.98899999999998,111.29599999999996 81.98899999999998,111.29599999999996 Z
M 93.60999999999997,118.74699999999996 C 93.60999999999997,118.74699999999996 81.60999999999997,118.66099999999996 81.60999999999997,118.66099999999996 C 81.60999999999997,118.66099999999996 81.60999999999997,118.74699999999996 81.60999999999997,118.74699999999996 C 81.60999999999997,118.74699999999996 93.60999999999997,118.74699999999996 93.60999999999997,118.74699999999996 C 93.60999999999997,118.74699999999996 93.60999999999997,118.74699999999996 93.60999999999997,118.74699999999996 Z
M 85.06499999999997,125.78799999999995 C 85.06499999999997,125.78799999999995 85.06499999999997,137.78799999999995 85.06499999999997,137.78799999999995 C 85.06499999999997,137.78799999999995 85.06499999999997,125.78799999999995 85.06499999999997,125.78799999999995 C 85.06499999999997,125.78799999999995 85.06499999999997,125.78799999999995 85.06499999999997,125.78799999999995 Z
M 75.52899999999997,120.28499999999995 C 75.52899999999997,120.28499999999995 86.24099999999997,114.87599999999995 86.24099999999997,114.87599999999995 C 86.24099999999997,114.87599999999995 86.15499999999997,114.70599999999995 86.15499999999997,114.70599999999995 C 86.15499999999997,114.70599999999995 86.06399999999998,114.53899999999994 86.06399999999998,114.53899999999994 C 86.06399999999998,114.53899999999994 75.52899999999998,120.28499999999994 75.52899999999998,120.28499999999994 C 75.52899999999998,120.28499999999994 75.52899999999997,120.28499999999995 75.52899999999997,120.28499999999995 Z
M 71.15399999999997,117.58499999999995 C 71.15399999999997,117.58499999999995 71.15399999999997,105.58499999999995 71.15399999999997,105.58499999999995 C 71.15399999999997,105.58499999999995 71.15399999999997,117.58499999999995 71.15399999999997,117.58499999999995 C 71.15399999999997,117.58499999999995 71.15399999999997,117.58499999999995 71.15399999999997,117.58499999999995 Z
M 66.60799999999996,121.92599999999995 C 66.60799999999996,121.92599999999995 54.60799999999996,121.92599999999995 54.60799999999996,121.92599999999995 C 54.60799999999996,121.92599999999995 66.60799999999996,121.92599999999995 66.60799999999996,121.92599999999995 C 66.60799999999996,121.92599999999995 66.60799999999996,121.92599999999995 66.60799999999996,121.92599999999995 Z
M 67.39399999999996,125.17299999999994 C 67.39399999999996,125.17299999999994 78.21799999999996,119.98999999999995 78.21799999999996,119.98999999999995 C 78.21799999999996,119.98999999999995 78.20499999999996,119.96399999999996 78.20499999999996,119.96399999999996 C 78.20499999999996,119.96399999999996 78.19199999999995,119.93799999999996 78.19199999999995,119.93799999999996 C 78.19199999999995,119.93799999999996 67.39499999999995,125.17299999999996 67.39499999999995,125.17299999999996 C 67.39499999999995,125.17299999999996 67.39399999999996,125.17299999999994 67.39399999999996,125.17299999999994 Z
M 84.89399999999996,134.09399999999994 C 84.89399999999996,134.09399999999994 84.89399999999996,146.09399999999994 84.89399999999996,146.09399999999994 C 84.89399999999996,146.09399999999994 84.89399999999996,134.09399999999994 84.89399999999996,134.09399999999994 C 84.89399999999996,134.09399999999994 84.89399999999996,134.09399999999994 84.89399999999996,134.09399999999994 Z
M 104.10399999999996,119.19099999999993 C 104.10399999999996,119.19099999999993 116.10399999999996,119.19099999999993 116.10399999999996,119.19099999999993 C 116.10399999999996,119.19099999999993 104.10399999999996,119.19099999999993 104.10399999999996,119.19099999999993 C 104.10399999999996,119.19099999999993 104.10399999999996,119.19099999999993 104.10399999999996,119.19099999999993 Z
M 92.00399999999996,107.39899999999993 C 92.00399999999996,107.39899999999993 80.00399999999996,107.39899999999993 80.00399999999996,107.39899999999993 C 80.00399999999996,107.39899999999993 80.00399999999996,118.33499999999992 80.00399999999996,118.33499999999992 C 80.00399999999996,118.33499999999992 90.89199999999997,119.34799999999993 90.89199999999997,119.34799999999993 C 90.89199999999997,119.34799999999993 92.00399999999996,107.39899999999993 92.00399999999996,107.39899999999993 C 92.00399999999996,107.39899999999993 92.00399999999996,107.39899999999993 92.00399999999996,107.39899999999993 Z
M 92.00399999999996,107.19399999999993 C 92.00399999999996,107.19399999999993 89.58399999999996,95.44099999999993 89.58399999999996,95.44099999999993 C 89.58399999999996,95.44099999999993 80.00399999999996,97.41299999999993 80.00399999999996,97.41299999999993 C 80.00399999999996,97.41299999999993 80.00399999999996,107.19399999999993 80.00399999999996,107.19399999999993 C 80.00399999999996,107.19399999999993 92.00399999999996,107.19399999999993 92.00399999999996,107.19399999999993 C 92.00399999999996,107.19399999999993 92.00399999999996,107.19399999999993 92.00399999999996,107.19399999999993 Z
M 102.29199999999996,95.64199999999994 C 102.29199999999996,95.64199999999994 114.29199999999996,95.64199999999994 114.29199999999996,95.64199999999994 C 114.29199999999996,95.64199999999994 102.29199999999996,95.64199999999994 102.29199999999996,95.64199999999994 C 102.29199999999996,95.64199999999994 102.29199999999996,95.64199999999994 102.29199999999996,95.64199999999994 Z
M 129.94299999999996,82.55099999999995 C 129.94299999999996,82.55099999999995 129.94299999999996,70.55099999999995 129.94299999999996,70.55099999999995 C 129.94299999999996,70.55099999999995 129.94299999999996,82.55099999999995 129.94299999999996,82.55099999999995 C 129.94299999999996,82.55099999999995 129.94299999999996,82.55099999999995 129.94299999999996,82.55099999999995 Z
M 109.81199999999995,108.25399999999995 C 109.81199999999995,108.25399999999995 97.81199999999995,108.25399999999995 97.81199999999995,108.25399999999995 C 97.81199999999995,108.25399999999995 109.81199999999995,108.25399999999995 109.81199999999995,108.25399999999995 C 109.81199999999995,108.25399999999995 109.81199999999995,108.25399999999995 109.81199999999995,108.25399999999995 Z
M 129.94299999999996,134.09399999999994 C 129.94299999999996,134.09399999999994 129.94299999999996,146.09399999999994 129.94299999999996,146.09399999999994 C 129.94299999999996,146.09399999999994 129.94299999999996,134.09399999999994 129.94299999999996,134.09399999999994 C 129.94299999999996,134.09399999999994 129.94299999999996,134.09399999999994 129.94299999999996,134.09399999999994 Z
M 150.04099999999994,108.21999999999994 C 150.04099999999994,108.21999999999994 162.04099999999994,108.21999999999994 162.04099999999994,108.21999999999994 C 162.04099999999994,108.21999999999994 150.04099999999994,108.21999999999994 150.04099999999994,108.21999999999994 C 150.04099999999994,108.21999999999994 150.04099999999994,108.21999999999994 150.04099999999994,108.21999999999994 Z
M 129.94299999999993,90.82199999999995 C 129.94299999999993,90.82199999999995 129.94299999999993,78.82199999999995 129.94299999999993,78.82199999999995 C 129.94299999999993,78.82199999999995 129.94299999999993,90.82199999999995 129.94299999999993,90.82199999999995 C 129.94299999999993,90.82199999999995 129.94299999999993,90.82199999999995 129.94299999999993,90.82199999999995 Z
M 139.54799999999992,108.25399999999995 C 139.54799999999992,108.25399999999995 151.54799999999992,108.25399999999995 151.54799999999992,108.25399999999995 C 151.54799999999992,108.25399999999995 139.54799999999992,108.25399999999995 139.54799999999992,108.25399999999995 C 139.54799999999992,108.25399999999995 139.54799999999992,108.25399999999995 139.54799999999992,108.25399999999995 Z
M 129.94299999999993,125.82199999999995 C 129.94299999999993,125.82199999999995 129.94299999999993,137.82199999999995 129.94299999999993,137.82199999999995 C 129.94299999999993,137.82199999999995 129.94299999999993,125.82199999999995 129.94299999999993,125.82199999999995 C 129.94299999999993,125.82199999999995 129.94299999999993,125.82199999999995 129.94299999999993,125.82199999999995 Z
M 120.30499999999992,108.25399999999995 C 120.30499999999992,108.25399999999995 108.30499999999992,108.25399999999995 108.30499999999992,108.25399999999995 C 108.30499999999992,108.25399999999995 120.30499999999992,108.25399999999995 120.30499999999992,108.25399999999995 C 120.30499999999992,108.25399999999995 120.30499999999992,108.25399999999995 120.30499999999992,108.25399999999995 Z
M 158.89899999999992,45.26599999999995 C 158.89899999999992,45.26599999999995 162.02599999999993,56.85099999999995 162.02599999999993,56.85099999999995 C 162.86757868983207,56.62109274628398 164.55599999999993,56.18099999999995 164.55599999999993,56.18099999999995 C 164.55599999999993,56.18099999999995 165.8209999999999,55.89299999999995 165.8209999999999,55.89299999999995 C 165.8209999999999,55.89299999999995 165.4219999999999,55.90599999999995 165.4219999999999,55.90599999999995 C 164.70411915037576,55.90256648357028 163.99045694157564,55.795803425434535 163.3029999999999,55.58899999999995 C 163.3029999999999,55.58899999999995 166.69699999999992,44.07899999999995 166.69699999999992,44.07899999999995 C 166.69699999999992,44.07899999999995 170.09099999999992,32.56899999999995 170.09099999999992,32.56899999999995 C 166.67399999999992,31.560999999999954 163.6059999999999,31.912999999999954 161.64399999999992,32.25899999999995 C 159.76399999999992,32.59199999999995 157.61699999999993,33.18199999999995 155.7729999999999,33.67999999999995 C 155.7729999999999,33.67999999999995 158.89899999999992,45.26599999999995 158.89899999999992,45.26599999999995 C 158.89899999999992,45.26599999999995 158.89899999999992,45.26599999999995 158.89899999999992,45.26599999999995 Z
M 166.69699999999992,44.07899999999995 C 166.69699999999992,44.07899999999995 163.3029999999999,55.58899999999995 163.3029999999999,55.58899999999995 C 161.8798775389473,55.16956157626955 160.66178965358318,54.236656690112724 159.8859999999999,52.97199999999995 C 159.8859999999999,52.97199999999995 170.11399999999992,46.695999999999955 170.11399999999992,46.695999999999955 C 170.11399999999992,46.695999999999955 180.3429999999999,40.42099999999996 180.3429999999999,40.42099999999996 C 178.01538394445075,36.62704036814773 174.36126690223722,33.82808153335497 170.0919999999999,32.56899999999996 C 170.0919999999999,32.56899999999996 166.6969999999999,44.07899999999996 166.6969999999999,44.07899999999996 C 166.6969999999999,44.07899999999996 166.69699999999992,44.07899999999995 166.69699999999992,44.07899999999995 Z
M 170.11399999999992,46.69599999999995 C 170.11399999999992,46.69599999999995 159.88499999999993,52.97099999999995 159.88499999999993,52.97099999999995 C 159.50652149512115,52.36123625900113 159.21788458757092,51.70009944509085 159.02799999999993,51.007999999999946 C 159.02799999999993,51.007999999999946 158.93599999999992,50.61999999999995 158.93599999999992,50.61999999999995 C 158.93599999999992,50.61999999999995 158.9759999999999,51.21299999999995 158.98799999999991,51.91599999999995 C 158.99999999999991,52.61599999999995 158.99999999999991,53.43899999999995 158.99999999999991,54.53399999999995 C 158.99999999999991,54.53399999999995 182.99999999999991,54.53399999999995 182.99999999999991,54.53399999999995 C 182.99999999999991,52.62399999999995 183.0109999999999,50.397999999999946 182.84199999999993,48.49599999999995 C 182.66599999999994,46.51199999999995 182.20599999999993,43.457999999999956 180.34299999999993,40.421999999999954 C 180.34299999999993,40.421999999999954 170.11399999999992,46.695999999999955 170.11399999999992,46.695999999999955 C 170.11399999999992,46.695999999999955 170.11399999999992,46.69599999999995 170.11399999999992,46.69599999999995 Z
M 170.99999999999991,54.53399999999995 C 170.99999999999991,54.53399999999995 158.99999999999991,54.53399999999995 158.99999999999991,54.53399999999995 C 158.99999999999991,54.53399999999995 158.99999999999991,141.65199999999993 158.99999999999991,141.65199999999993 C 158.99999999999991,141.65199999999993 182.99999999999991,141.65199999999993 182.99999999999991,141.65199999999993 C 182.99999999999991,141.65199999999993 182.99999999999991,54.534 182.99999999999991,54.534 C 182.99999999999991,54.534 170.99999999999991,54.534 170.99999999999991,54.534 C 170.99999999999991,54.534 170.99999999999991,54.53399999999995 170.99999999999991,54.53399999999995 Z
M 170.99999999999991,141.65199999999993 C 170.99999999999991,141.65199999999993 158.99999999999991,141.65199999999993 158.99999999999991,141.65199999999993 C 158.99999999999991,144.40099999999993 158.99399999999991,145.90599999999992 158.92299999999992,147.01999999999992 C 158.8609999999999,147.98999999999992 158.8849999999999,147.70299999999992 158.8849999999999,147.70299999999992 C 158.8849999999999,147.70299999999992 170.1899999999999,151.7259999999999 170.1899999999999,151.7259999999999 C 170.1899999999999,151.7259999999999 181.49599999999992,155.7479999999999 181.49599999999992,155.7479999999999 C 183.16699999999992,151.0529999999999 182.99999999999991,145.9449999999999 182.99999999999991,141.6519999999999 C 182.99999999999991,141.6519999999999 170.99999999999991,141.6519999999999 170.99999999999991,141.6519999999999 C 170.99999999999991,141.6519999999999 170.99999999999991,141.65199999999993 170.99999999999991,141.65199999999993 Z
M 170.1899999999999,151.72599999999994 C 170.1899999999999,151.72599999999994 158.8849999999999,147.70299999999995 158.8849999999999,147.70299999999995 C 158.8849999999999,147.70299999999995 158.3969999999999,148.46399999999994 158.3969999999999,148.46399999999994 C 158.3969999999999,148.46399999999994 166.7779999999999,157.05199999999994 166.7779999999999,157.05199999999994 C 166.7779999999999,157.05199999999994 175.1599999999999,165.63999999999993 175.1599999999999,165.63999999999993 C 177.99892472680324,162.86937249018573 180.1664238631043,159.48539183104901 181.49599999999992,155.74799999999993 C 181.49599999999992,155.74799999999993 170.1899999999999,151.72599999999994 170.1899999999999,151.72599999999994 C 170.1899999999999,151.72599999999994 170.1899999999999,151.72599999999994 170.1899999999999,151.72599999999994 Z
M 166.7779999999999,157.05199999999994 C 166.7779999999999,157.05199999999994 158.3969999999999,148.46399999999994 158.3969999999999,148.46399999999994 C 158.3969999999999,148.46399999999994 158.6459999999999,148.32399999999996 157.7909999999999,148.78599999999994 C 156.80999999999992,149.31599999999995 155.4449999999999,149.95099999999994 152.9489999999999,151.09899999999993 C 152.9489999999999,151.09899999999993 157.967,162 157.967,162 C 157.967,162 162.985,172.901 162.985,172.901 C 166.887,171.104 171.59400000000002,169.12 175.16000000000003,165.64000000000001 C 175.16000000000003,165.64000000000001 166.77800000000002,157.05200000000002 166.77800000000002,157.05200000000002 C 166.77800000000002,157.05200000000002 166.7779999999999,157.05199999999994 166.7779999999999,157.05199999999994 Z
M 157.967,162 C 157.967,162 152.949,151.099 152.949,151.099 C 152.949,151.099 113.68700000000001,169.172 113.68700000000001,169.172 C 113.68700000000001,169.172 118.70400000000001,180.072 118.70400000000001,180.072 C 118.70400000000001,180.072 123.72200000000001,190.973 123.72200000000001,190.973 C 123.72200000000001,190.973 162.984,172.901 162.984,172.901 C 162.984,172.901 157.967,162 157.967,162 C 157.967,162 157.967,162 157.967,162 Z
M 118.70400000000001,180.072 C 118.70400000000001,180.072 113.686,169.172 113.686,169.172 C 111.614,170.126 110.45,170.658 109.55000000000001,171.019 C 108.76100000000001,171.335 108.68700000000001,171.327 108.68700000000001,171.327 C 108.68700000000001,171.327 110.74700000000001,183.148 110.74700000000001,183.148 C 110.74700000000001,183.148 112.80800000000002,194.97 112.80800000000002,194.97 C 116.75800000000002,194.282 120.36500000000002,192.518 123.72200000000002,190.973 C 123.72200000000002,190.973 118.70400000000002,180.072 118.70400000000002,180.072 C 118.70400000000002,180.072 118.70400000000001,180.072 118.70400000000001,180.072 Z
M 110.74700000000001,183.148 C 110.74700000000001,183.148 108.68700000000001,171.327 108.68700000000001,171.327 C 108.68700000000001,171.327 107.31300000000002,171.327 107.31300000000002,171.327 C 107.31300000000002,171.327 105.25300000000001,183.148 105.25300000000001,183.148 C 105.25300000000001,183.148 103.19300000000001,194.97 103.19300000000001,194.97 C 106.37400000000001,195.525 109.626,195.525 112.80700000000002,194.97 C 112.80700000000002,194.97 110.74700000000001,183.148 110.74700000000001,183.148 C 110.74700000000001,183.148 110.74700000000001,183.148 110.74700000000001,183.148 Z
M 105.25300000000001,183.148 C 105.25300000000001,183.148 107.31300000000002,171.327 107.31300000000002,171.327 C 107.31300000000002,171.327 107.23900000000002,171.335 106.45000000000002,171.019 C 105.55000000000001,170.65800000000002 104.38600000000002,170.126 102.31400000000002,169.172 C 102.31400000000002,169.172 97.29600000000002,180.072 97.29600000000002,180.072 C 97.29600000000002,180.072 92.27800000000002,190.973 92.27800000000002,190.973 C 95.63500000000002,192.518 99.24300000000002,194.282 103.19200000000002,194.97000000000003 C 103.19200000000002,194.97000000000003 105.25300000000001,183.14800000000002 105.25300000000001,183.14800000000002 C 105.25300000000001,183.14800000000002 105.25300000000001,183.148 105.25300000000001,183.148 Z
M 97.29600000000002,180.072 C 97.29600000000002,180.072 102.31300000000002,169.172 102.31300000000002,169.172 C 102.31300000000002,169.172 63.051000000000016,151.099 63.051000000000016,151.099 C 63.051000000000016,151.099 58.033,162 58.033,162 C 58.033,162 53.016,172.901 53.016,172.901 C 53.016,172.901 92.27799999999999,190.973 92.27799999999999,190.973 C 92.27799999999999,190.973 97.29599999999999,180.072 97.29599999999999,180.072 C 97.29599999999999,180.072 97.29600000000002,180.072 97.29600000000002,180.072 Z
M 58.033,162 C 58.033,162 63.051,151.099 63.051,151.099 C 60.555,149.951 59.191,149.316 58.209,148.786 C 57.354000000000006,148.324 57.603,148.464 57.603,148.464 C 57.603,148.464 49.222,157.052 49.222,157.052 C 49.222,157.052 40.84,165.64 40.84,165.64 C 44.406000000000006,169.11999999999998 49.113,171.10399999999998 53.016000000000005,172.90099999999998 C 53.016000000000005,172.90099999999998 58.033,162 58.033,162 C 58.033,162 58.033,162 58.033,162 Z
M 49.222,157.052 C 49.222,157.052 57.603,148.464 57.603,148.464 C 57.603,148.464 57.115,147.703 57.115,147.703 C 57.115,147.703 45.81,151.726 45.81,151.726 C 45.81,151.726 34.504000000000005,155.748 34.504000000000005,155.748 C 35.8337360629995,159.48531358865878 38.001213223110895,162.86925993774685 40.84,165.64 C 40.84,165.64 49.222,157.052 49.222,157.052 C 49.222,157.052 49.222,157.052 49.222,157.052 Z
M 45.81,151.726 C 45.81,151.726 57.115,147.703 57.115,147.703 C 57.115,147.703 57.139,147.99 57.077000000000005,147.02 C 57.005,145.906 57.00000000000001,144.401 57.00000000000001,141.65200000000002 C 57.00000000000001,141.65200000000002 33,141.65200000000002 33,141.65200000000002 C 33,145.94500000000002 32.833,151.05300000000003 34.504,155.74800000000002 C 34.504,155.74800000000002 45.809999999999995,151.72600000000003 45.809999999999995,151.72600000000003 C 45.809999999999995,151.72600000000003 45.81,151.726 45.81,151.726 Z
M 45,141.652 C 45,141.652 57,141.652 57,141.652 C 57,141.652 57,54.534 57,54.534 C 57,54.534 33,54.534 33,54.534 C 33,54.534 33,141.652 33,141.652 C 33,141.652 45,141.652 45,141.652 C 45,141.652 45,141.652 45,141.652 Z
M 45,54.53399999999999 C 45,54.53399999999999 57,54.53399999999999 57,54.53399999999999 C 57,53.43899999999999 57.0,52.61599999999999 57.012,51.91599999999999 C 57.024,51.21299999999999 57.064,50.61999999999999 57.064,50.61999999999999 C 57.064,50.61999999999999 56.972,51.00799999999999 56.972,51.00799999999999 C 56.7817232851557,51.700126073905345 56.49275328275504,52.361254412731114 56.114000000000004,52.97099999999999 C 56.114000000000004,52.97099999999999 45.886,46.69599999999999 45.886,46.69599999999999 C 45.886,46.69599999999999 35.657000000000004,40.42199999999999 35.657000000000004,40.42199999999999 C 33.794000000000004,43.45799999999999 33.334,46.511999999999986 33.157000000000004,48.49599999999999 C 32.989000000000004,50.39799999999999 33.00000000000001,52.62399999999999 33.00000000000001,54.53399999999999 C 33.00000000000001,54.53399999999999 45.00000000000001,54.53399999999999 45.00000000000001,54.53399999999999 C 45.00000000000001,54.53399999999999 45,54.53399999999999 45,54.53399999999999 Z
M 45.886,46.69599999999999 C 45.886,46.69599999999999 56.114000000000004,52.971999999999994 56.114000000000004,52.971999999999994 C 55.33806644614509,54.236527743596646 54.12003546751169,55.16938904622574 52.697,55.58899999999999 C 52.697,55.58899999999999 49.303000000000004,44.07899999999999 49.303000000000004,44.07899999999999 C 49.303000000000004,44.07899999999999 45.908,32.568999999999996 45.908,32.568999999999996 C 41.639102996980256,33.82830059763718 37.98537388798862,36.62723532581301 35.658,40.42099999999999 C 35.658,40.42099999999999 45.886,46.69599999999999 45.886,46.69599999999999 C 45.886,46.69599999999999 45.886,46.69599999999999 45.886,46.69599999999999 Z
M 49.303000000000004,44.07899999999999 C 49.303000000000004,44.07899999999999 52.697,55.58899999999999 52.697,55.58899999999999 C 52.00923417568049,55.79595277765974 51.295220377096925,55.90271804848568 50.577000000000005,55.90599999999999 C 50.577000000000005,55.90599999999999 50.179,55.892999999999994 50.179,55.892999999999994 C 50.179,55.892999999999994 50.762,56.00899999999999 51.444,56.18099999999999 C 52.123000000000005,56.35199999999999 52.917,56.56599999999999 53.974000000000004,56.85099999999999 C 53.974000000000004,56.85099999999999 57.101000000000006,45.26599999999999 57.101000000000006,45.26599999999999 C 57.101000000000006,45.26599999999999 60.227000000000004,33.67999999999999 60.227000000000004,33.67999999999999 C 58.383,33.181999999999995 56.237,32.59199999999999 54.356,32.25999999999999 C 52.394,31.91299999999999 49.326,31.56199999999999 45.909000000000006,32.56999999999999 C 45.909000000000006,32.56999999999999 49.303000000000004,44.07999999999999 49.303000000000004,44.07999999999999 C 49.303000000000004,44.07999999999999 49.303000000000004,44.07899999999999 49.303000000000004,44.07899999999999 Z
M 57.101000000000006,45.26599999999999 C 57.101000000000006,45.26599999999999 53.975,56.85 53.975,56.85 C 53.975,56.85 98.205,68.785 98.205,68.785 C 98.205,68.785 101.33,57.2 101.33,57.2 C 101.33,57.2 104.456,45.614000000000004 104.456,45.614000000000004 C 104.456,45.614000000000004 60.226000000000006,33.68000000000001 60.226000000000006,33.68000000000001 C 60.226000000000006,33.68000000000001 57.1,45.266 57.1,45.266 C 57.1,45.266 57.101000000000006,45.26599999999999 57.101000000000006,45.26599999999999 Z
M 101.33,57.2 C 101.33,57.2 98.204,68.786 98.204,68.786 C 100.33099999999999,69.36 102.62899999999999,70.016 105.053,70.272 C 105.053,70.272 106.315,58.339000000000006 106.315,58.339000000000006 C 106.315,58.339000000000006 107.578,46.406000000000006 107.578,46.406000000000006 C 107.578,46.406000000000006 107.045,46.293000000000006 107.045,46.293000000000006 C 106.17891873978395,46.07893410087823 104.456,45.61500000000001 104.456,45.61500000000001 C 104.456,45.61500000000001 101.331,57.2 101.331,57.2 C 101.331,57.2 101.33,57.2 101.33,57.2 Z
M 106.315,58.339000000000006 C 106.315,58.339000000000006 105.053,70.272 105.053,70.272 C 107.011,70.479 108.987,70.479 110.945,70.272 C 110.945,70.272 109.68299999999999,58.339000000000006 109.68299999999999,58.339000000000006 C 109.68299999999999,58.339000000000006 108.41999999999999,46.406000000000006 108.41999999999999,46.406000000000006 C 108.41999999999999,46.406000000000006 107.57799999999999,46.406000000000006 107.57799999999999,46.406000000000006 C 107.57799999999999,46.406000000000006 106.31499999999998,58.339000000000006 106.31499999999998,58.339000000000006 C 106.31499999999998,58.339000000000006 106.315,58.339000000000006 106.315,58.339000000000006 Z
M 109.68299999999999,58.339000000000006 C 109.68299999999999,58.339000000000006 110.945,70.272 110.945,70.272 C 113.369,70.016 115.66699999999999,69.36 117.794,68.786 C 117.794,68.786 114.669,57.2 114.669,57.2 C 114.669,57.2 111.54299999999999,45.615 111.54299999999999,45.615 C 110.23299999999999,45.968 109.50899999999999,46.162 108.954,46.293 C 108.954,46.293 108.42099999999999,46.406 108.42099999999999,46.406 C 108.42099999999999,46.406 109.684,58.339 109.684,58.339 C 109.684,58.339 109.68299999999999,58.339000000000006 109.68299999999999,58.339000000000006 Z
M 114.66799999999999,57.2 C 114.66799999999999,57.2 117.794,68.786 117.794,68.786 C 117.794,68.786 162.025,56.851 162.025,56.851 C 162.025,56.851 158.898,45.266 158.898,45.266 C 158.898,45.266 155.772,33.68 155.772,33.68 C 155.772,33.68 111.542,45.615 111.542,45.615 C 111.542,45.615 114.668,57.2 114.668,57.2 C 114.668,57.2 114.66799999999999,57.2 114.66799999999999,57.2 Z
M 84.826,82.585 C 84.826,82.585 84.826,70.585 84.826,70.585 C 72.28399999999999,70.585 61.86399999999999,76.62299999999999 57.38999999999999,86.478 C 57.38999999999999,86.478 68.317,91.43799999999999 68.317,91.43799999999999 C 68.317,91.43799999999999 79.244,96.39799999999998 79.244,96.39799999999998 C 79.244,96.39799999999998 79.432,95.99899999999998 80.165,95.57199999999999 C 80.885,95.15199999999999 82.334,94.585 84.82600000000001,94.585 C 84.82600000000001,94.585 84.82600000000001,82.585 84.82600000000001,82.585 C 84.82600000000001,82.585 84.826,82.585 84.826,82.585 Z
M 68.317,91.43799999999999 C 68.317,91.43799999999999 57.337999999999994,86.594 57.337999999999994,86.594 C 56.279999999999994,88.994 55.56499999999999,91.634 55.56499999999999,94.753 C 55.56499999999999,94.753 79.565,94.753 79.565,94.753 C 79.565,94.753 79.443,95.787 79.443,95.787 C 79.443,95.787 79.29599999999999,96.281 79.29599999999999,96.281 C 79.29599999999999,96.281 68.317,91.43700000000001 68.317,91.43700000000001 C 68.317,91.43700000000001 68.317,91.43799999999999 68.317,91.43799999999999 Z
M 67.565,94.75299999999999 C 67.565,94.75299999999999 55.565,94.75299999999999 55.565,94.75299999999999 C 55.565,98.32999999999998 56.658,102.72199999999998 60.149,106.23399999999998 C 63.669000000000004,109.77399999999999 68.134,110.92299999999997 71.906,110.92299999999997 C 71.906,110.92299999999997 71.906,86.92299999999997 71.906,86.92299999999997 C 72.807,86.92299999999997 75.10300000000001,87.23399999999998 77.16900000000001,89.31299999999997 C 79.20900000000002,91.36399999999998 79.56500000000001,93.67099999999998 79.56500000000001,94.75299999999997 C 79.56500000000001,94.75299999999997 67.56500000000001,94.75299999999997 67.56500000000001,94.75299999999997 C 67.56500000000001,94.75299999999997 67.565,94.75299999999999 67.565,94.75299999999999 Z
M 71.90599999999999,98.92299999999999 C 71.90599999999999,98.92299999999999 71.90599999999999,110.92299999999999 71.90599999999999,110.92299999999999 C 74.55199999999999,110.92299999999999 78.09899999999999,110.42499999999998 81.49499999999999,108.082 C 84.68299999999999,105.881 86.38999999999999,102.96199999999999 87.35099999999998,100.98299999999999 C 87.35099999999998,100.98299999999999 76.55499999999998,95.74399999999999 76.55499999999998,95.74399999999999 C 76.55499999999998,95.74399999999999 65.75899999999999,90.50499999999998 65.75899999999999,90.50499999999998 C 65.75899999999999,90.50499999999998 66.13599999999998,89.52099999999999 67.86399999999999,88.32799999999997 C 69.79799999999999,86.99299999999998 71.90599999999999,86.92299999999997 71.90599999999999,86.92299999999997 C 71.90599999999999,86.92299999999997 71.90599999999999,98.92299999999997 71.90599999999999,98.92299999999997 C 71.90599999999999,98.92299999999997 71.90599999999999,98.92299999999999 71.90599999999999,98.92299999999999 Z
M 76.55499999999999,95.74399999999999 C 76.55499999999999,95.74399999999999 87.45299999999999,100.76599999999999 87.45299999999999,100.76599999999999 C 87.45299999999999,100.76599999999999 87.27699999999999,101.246 86.24,101.913 C 85.202,102.581 84.86,102.515 84.86,102.515 C 84.86,102.515 84.86,78.515 84.86,78.515 C 81.083,78.515 77.0,79.32000000000001 73.252,81.731 C 69.50699999999999,84.14099999999999 67.14999999999999,87.479 65.65599999999999,90.722 C 65.65599999999999,90.722 76.55499999999999,95.744 76.55499999999999,95.744 C 76.55499999999999,95.744 76.55499999999999,95.74399999999999 76.55499999999999,95.74399999999999 Z
M 84.85999999999999,90.51399999999998 C 84.85999999999999,90.51399999999998 84.85999999999999,102.51499999999999 84.85999999999999,102.51499999999999 C 84.85999999999999,102.51499999999999 84.07999999999998,102.62899999999999 82.56199999999998,101.27199999999999 C 80.88399999999999,99.77199999999999 80.51699999999998,97.93499999999999 80.51699999999998,97.112 C 80.51699999999998,97.112 104.51699999999998,97.112 104.51699999999998,97.112 C 104.51699999999998,92.32199999999999 102.81599999999999,87.187 98.55699999999999,83.38 C 94.45899999999999,79.716 89.37299999999999,78.515 84.85999999999999,78.515 C 84.85999999999999,78.515 84.85999999999999,90.515 84.85999999999999,90.515 C 84.85999999999999,90.515 84.85999999999999,90.51399999999998 84.85999999999999,90.51399999999998 Z
M 92.51699999999998,97.11099999999998 C 92.51699999999998,97.11099999999998 80.51699999999998,97.11099999999998 80.51699999999998,97.11099999999998 C 80.51699999999998,96.42999999999998 80.66499999999998,95.58999999999997 81.07599999999998,94.72699999999998 C 81.43971566509808,93.95449233705062 81.97013049378087,93.27209128894486 82.62899999999998,92.72899999999997 C 83.75399999999998,91.81399999999996 84.00599999999997,91.94699999999997 84.00599999999997,91.94699999999997 C 84.00599999999997,91.94699999999997 84.00599999999997,115.94699999999997 84.00599999999997,115.94699999999997 C 88.67099999999998,115.94699999999997 93.67399999999998,114.67899999999997 97.76499999999997,111.35399999999997 C 102.05499999999998,107.86799999999997 104.51699999999997,102.73599999999998 104.51699999999997,97.11099999999998 C 104.51699999999997,97.11099999999998 92.51699999999997,97.11099999999998 92.51699999999997,97.11099999999998 C 92.51699999999997,97.11099999999998 92.51699999999998,97.11099999999998 92.51699999999998,97.11099999999998 Z
M 84.00599999999999,103.94699999999997 C 84.00599999999999,103.94699999999997 84.00599999999999,91.94699999999997 84.00599999999999,91.94699999999997 C 84.00599999999999,91.94699999999997 81.98899999999999,91.94699999999997 81.98899999999999,91.94699999999997 C 81.98899999999999,91.94699999999997 81.98899999999999,115.94699999999997 81.98899999999999,115.94699999999997 C 81.98899999999999,115.94699999999997 84.00599999999999,115.94699999999997 84.00599999999999,115.94699999999997 C 84.00599999999999,115.94699999999997 84.00599999999999,103.94699999999997 84.00599999999999,103.94699999999997 C 84.00599999999999,103.94699999999997 84.00599999999999,103.94699999999997 84.00599999999999,103.94699999999997 Z
M 81.98899999999999,103.94699999999997 C 81.98899999999999,103.94699999999997 81.98899999999999,91.94699999999997 81.98899999999999,91.94699999999997 C 78.31899999999999,91.94699999999997 74.12199999999999,93.09499999999997 70.76899999999999,96.31999999999998 C 67.389,99.57199999999997 66.059,103.79699999999998 66.059,107.60399999999998 C 66.059,107.60399999999998 78.059,107.60399999999998 78.059,107.60399999999998 C 78.059,107.60399999999998 90.059,107.60499999999999 90.059,107.60499999999999 C 90.059,109.25899999999999 89.447,111.65499999999999 87.407,113.61699999999999 C 85.39699999999999,115.55099999999999 83.164,115.94699999999999 81.98899999999999,115.94699999999999 C 81.98899999999999,115.94699999999999 81.98899999999999,103.94699999999999 81.98899999999999,103.94699999999999 C 81.98899999999999,103.94699999999999 81.98899999999999,103.94699999999997 81.98899999999999,103.94699999999997 Z
M 78.05899999999998,107.60399999999997 C 78.05899999999998,107.60399999999997 66.05899999999998,107.60399999999997 66.05899999999998,107.60399999999997 C 66.05899999999998,111.35499999999998 67.33199999999998,115.62599999999998 70.76899999999998,118.93199999999997 C 74.16599999999998,122.19799999999998 78.39299999999997,123.29599999999998 81.98899999999998,123.29599999999998 C 81.98899999999998,123.29599999999998 81.98899999999998,99.29599999999998 81.98899999999998,99.29599999999998 C 83.08999999999997,99.29599999999998 85.35199999999998,99.65799999999997 87.40699999999998,101.63399999999997 C 89.50299999999999,103.64999999999998 90.05899999999998,106.07499999999997 90.05899999999998,107.60399999999997 C 90.05899999999998,107.60399999999997 78.05899999999998,107.60399999999997 78.05899999999998,107.60399999999997 C 78.05899999999998,107.60399999999997 78.05899999999998,107.60399999999997 78.05899999999998,107.60399999999997 Z
M 81.98899999999999,111.29599999999996 C 81.98899999999999,111.29599999999996 81.98899999999999,123.29599999999996 81.98899999999999,123.29599999999996 C 81.98899999999999,123.29599999999996 84.14299999999999,123.29599999999996 84.14299999999999,123.29599999999996 C 84.14299999999999,123.29599999999996 84.14299999999999,99.29599999999996 84.14299999999999,99.29599999999996 C 84.14299999999999,99.29599999999996 81.98899999999999,99.29599999999996 81.98899999999999,99.29599999999996 C 81.98899999999999,99.29599999999996 81.98899999999999,111.29599999999996 81.98899999999999,111.29599999999996 C 81.98899999999999,111.29599999999996 81.98899999999999,111.29599999999996 81.98899999999999,111.29599999999996 Z
M 84.14299999999999,111.29599999999996 C 84.14299999999999,111.29599999999996 84.14299999999999,123.29599999999996 84.14299999999999,123.29599999999996 C 85.57099999999998,123.29599999999996 84.97599999999998,123.64299999999996 83.75799999999998,122.69399999999996 C 83.02599388203953,122.11623295366897 82.44299626355203,121.37136776110731 82.05799999999998,120.52199999999996 C 81.66299999999998,119.64899999999996 81.61099999999998,118.66099999999996 81.61099999999998,118.66099999999996 C 81.61099999999998,118.66099999999996 93.61099999999998,118.74699999999996 93.61099999999998,118.74699999999996 C 93.61099999999998,118.74699999999996 105.60999999999997,118.83299999999996 105.60999999999997,118.83299999999996 C 105.64999999999998,113.16799999999995 103.41599999999997,107.58399999999996 98.50699999999998,103.75999999999996 C 94.04199999999997,100.28199999999997 88.69499999999998,99.29599999999996 84.14299999999997,99.29599999999996 C 84.14299999999997,99.29599999999996 84.14299999999997,111.29599999999996 84.14299999999997,111.29599999999996 C 84.14299999999997,111.29599999999996 84.14299999999999,111.29599999999996 84.14299999999999,111.29599999999996 Z
M 93.60999999999999,118.74699999999996 C 93.60999999999999,118.74699999999996 81.60999999999999,118.74699999999996 81.60999999999999,118.74699999999996 C 81.60999999999999,118.04199999999996 81.76799999999999,117.22599999999996 82.15199999999999,116.41799999999996 C 82.48736673249081,115.70707520804974 82.97206973723523,115.07672253192892 83.573,114.56999999999996 C 84.6,113.71799999999996 85.065,113.78799999999997 85.065,113.78799999999997 C 85.065,113.78799999999997 85.065,137.78799999999995 85.065,137.78799999999995 C 94.55499999999999,137.78799999999995 105.61,131.47799999999995 105.61,118.74699999999996 C 105.61,118.74699999999996 93.61,118.74699999999996 93.61,118.74699999999996 C 93.61,118.74699999999996 93.60999999999999,118.74699999999996 93.60999999999999,118.74699999999996 Z
M 85.06499999999998,125.78799999999995 C 85.06499999999998,125.78799999999995 85.06499999999998,113.78799999999995 85.06499999999998,113.78799999999995 C 85.06499999999998,113.78799999999995 84.53099999999998,113.76299999999995 84.53099999999998,113.76299999999995 C 84.53099999999998,113.76299999999995 85.34499999999997,114.12799999999994 85.34499999999997,114.12799999999994 C 85.34499999999997,114.12799999999994 86.18299999999996,114.83599999999994 86.18299999999996,114.83599999999994 C 86.18299999999996,114.83599999999994 86.24099999999997,114.87599999999995 86.24099999999997,114.87599999999995 C 86.24099999999997,114.87599999999995 75.52899999999997,120.28499999999995 75.52899999999997,120.28499999999995 C 75.52899999999997,120.28499999999995 64.81799999999997,125.69399999999996 64.81799999999997,125.69399999999996 C 66.37799999999997,128.78599999999997 68.80399999999997,132.11499999999995 72.71199999999997,134.53399999999996 C 76.60299999999998,136.94299999999996 80.89399999999998,137.78799999999995 85.06499999999997,137.78799999999995 C 85.06499999999997,137.78799999999995 85.06499999999997,125.78799999999995 85.06499999999997,125.78799999999995 C 85.06499999999997,125.78799999999995 85.06499999999998,125.78799999999995 85.06499999999998,125.78799999999995 Z
M 75.52899999999998,120.28499999999995 C 75.52899999999998,120.28499999999995 86.06399999999998,114.53899999999996 86.06399999999998,114.53899999999996 C 84.89399999999998,112.39399999999996 83.04099999999998,109.88699999999996 80.05399999999997,108.03399999999996 C 77.00099999999998,106.13999999999996 73.82999999999997,105.58499999999997 71.15399999999997,105.58499999999997 C 71.15399999999997,105.58499999999997 71.15399999999997,129.58499999999998 71.15399999999997,129.58499999999998 C 70.52999999999997,129.58499999999998 69.03299999999997,129.43999999999997 67.39999999999996,128.427 C 65.82999999999997,127.45299999999999 64.99499999999996,126.03099999999999 64.99499999999996,126.03099999999999 C 64.99499999999996,126.03099999999999 75.52899999999997,120.285 75.52899999999997,120.285 C 75.52899999999997,120.285 75.52899999999998,120.28499999999995 75.52899999999998,120.28499999999995 Z
M 71.15399999999998,117.58499999999995 C 71.15399999999998,117.58499999999995 71.15399999999998,105.58499999999995 71.15399999999998,105.58499999999995 C 67.38799999999998,105.58499999999995 63.006999999999984,106.73299999999995 59.49899999999998,110.10699999999996 C 55.94099999999998,113.52899999999995 54.60899999999998,117.96899999999995 54.60899999999998,121.92599999999996 C 54.60899999999998,121.92599999999996 78.60899999999998,121.92599999999996 78.60899999999998,121.92599999999996 C 78.60899999999998,123.21699999999996 78.13099999999999,125.48599999999996 76.13599999999998,127.40499999999996 C 74.19199999999998,129.27399999999997 72.08399999999997,129.58499999999995 71.15399999999998,129.58499999999995 C 71.15399999999998,129.58499999999995 71.15399999999998,117.58499999999995 71.15399999999998,117.58499999999995 C 71.15399999999998,117.58499999999995 71.15399999999998,117.58499999999995 71.15399999999998,117.58499999999995 Z
M 66.60799999999998,121.92599999999995 C 66.60799999999998,121.92599999999995 54.607999999999976,121.92599999999995 54.607999999999976,121.92599999999995 C 54.607999999999976,124.86599999999994 55.303999999999974,127.74199999999995 56.59699999999997,130.40799999999996 C 56.59699999999997,130.40799999999996 67.39399999999998,125.17299999999996 67.39399999999998,125.17299999999996 C 67.39399999999998,125.17299999999996 78.19199999999998,119.93799999999996 78.19199999999998,119.93799999999996 C 78.19199999999998,119.93799999999996 78.60799999999998,121.03699999999996 78.60799999999998,121.92599999999996 C 78.60799999999998,121.92599999999996 66.60799999999998,121.92599999999996 66.60799999999998,121.92599999999996 C 66.60799999999998,121.92599999999996 66.60799999999998,121.92599999999995 66.60799999999998,121.92599999999995 Z
M 67.39399999999998,125.17299999999994 C 67.39399999999998,125.17299999999994 56.57099999999998,130.35599999999994 56.57099999999998,130.35599999999994 C 61.305999999999976,140.24299999999994 71.92299999999997,146.09399999999994 84.89399999999998,146.09399999999994 C 84.89399999999998,146.09399999999994 84.89399999999998,122.09399999999994 84.89399999999998,122.09399999999994 C 81.92799999999998,122.09399999999994 80.20499999999998,121.45799999999994 79.33899999999997,120.97399999999993 C 78.47899999999997,120.49499999999993 78.21799999999998,119.98999999999994 78.21799999999998,119.98999999999994 C 78.21799999999998,119.98999999999994 67.39399999999998,125.17299999999994 67.39399999999998,125.17299999999994 C 67.39399999999998,125.17299999999994 67.39399999999998,125.17299999999994 67.39399999999998,125.17299999999994 Z
M 84.89399999999998,134.09399999999994 C 84.89399999999998,134.09399999999994 84.89399999999998,146.09399999999994 84.89399999999998,146.09399999999994 C 92.57699999999997,146.09399999999994 100.16699999999997,144.10699999999994 106.13299999999998,139.49399999999994 C 112.35199999999998,134.68599999999995 116.10399999999998,127.49699999999994 116.10399999999998,119.19099999999995 C 116.10399999999998,119.19099999999995 92.10399999999998,119.19099999999995 92.10399999999998,119.19099999999995 C 92.10399999999998,119.19099999999995 91.97399999999999,119.94099999999995 91.97399999999999,119.94099999999995 C 91.97399999999999,119.94099999999995 91.454,120.50699999999995 91.454,120.50699999999995 C 90.67699999999999,121.10699999999994 88.66199999999999,122.09399999999995 84.89399999999999,122.09399999999995 C 84.89399999999999,122.09399999999995 84.89399999999999,134.09399999999994 84.89399999999999,134.09399999999994 C 84.89399999999999,134.09399999999994 84.89399999999998,134.09399999999994 84.89399999999998,134.09399999999994 Z
M 104.10399999999998,119.19099999999993 C 104.10399999999998,119.19099999999993 116.10399999999998,119.19099999999993 116.10399999999998,119.19099999999993 C 116.10299999999998,112.79999999999993 113.77499999999999,106.79199999999993 109.09899999999999,102.32399999999993 C 104.58999999999999,98.01699999999992 98.79399999999998,95.97899999999993 93.115,95.45099999999992 C 93.115,95.45099999999992 92.00399999999999,107.39899999999992 92.00399999999999,107.39899999999992 C 92.00399999999999,107.39899999999992 90.892,119.34799999999991 90.892,119.34799999999991 C 92.562,119.50299999999991 92.52,119.67799999999991 92.52,119.67799999999991 C 92.52,119.67799999999991 92.13799999999999,119.11499999999991 92.13799999999999,119.11499999999991 C 92.13799999999999,119.11499999999991 92.103,119.1909999999999 92.103,119.1909999999999 C 92.103,119.1909999999999 104.104,119.1909999999999 104.104,119.1909999999999 C 104.104,119.1909999999999 104.10399999999998,119.19099999999993 104.10399999999998,119.19099999999993 Z
M 92.00399999999999,107.39899999999993 C 92.00399999999999,107.39899999999993 104.00399999999999,107.39899999999993 104.00399999999999,107.39899999999993 C 104.00399999999999,107.39899999999993 104.00399999999999,107.19399999999993 104.00399999999999,107.19399999999993 C 104.00399999999999,107.19399999999993 80.00399999999999,107.19399999999993 80.00399999999999,107.19399999999993 C 80.00399999999999,107.19399999999993 80.00399999999999,107.39899999999993 80.00399999999999,107.39899999999993 C 80.00399999999999,107.39899999999993 92.00399999999999,107.39899999999993 92.00399999999999,107.39899999999993 C 92.00399999999999,107.39899999999993 92.00399999999999,107.39899999999993 92.00399999999999,107.39899999999993 Z
M 92.00399999999999,107.19399999999993 C 92.00399999999999,107.19399999999993 94.42399999999999,118.94799999999994 94.42399999999999,118.94799999999994 C 104.28599999999999,116.91699999999993 114.29199999999999,109.01599999999993 114.29199999999999,95.64199999999994 C 114.29199999999999,95.64199999999994 90.29199999999999,95.64199999999994 90.29199999999999,95.64199999999994 C 90.29199999999999,95.64199999999994 90.35199999999999,95.47999999999993 90.35199999999999,95.47999999999993 C 90.35199999999999,95.47999999999993 90.597,95.08099999999993 90.597,95.08099999999993 C 90.597,95.08099999999993 90.47699999999999,95.14299999999993 90.47699999999999,95.14299999999993 C 90.47699999999999,95.14299999999993 89.58399999999999,95.44099999999993 89.58399999999999,95.44099999999993 C 89.58399999999999,95.44099999999993 92.00399999999999,107.19399999999993 92.00399999999999,107.19399999999993 C 92.00399999999999,107.19399999999993 92.00399999999999,107.19399999999993 92.00399999999999,107.19399999999993 Z
M 102.29199999999999,95.64199999999994 C 102.29199999999999,95.64199999999994 114.29199999999999,95.64199999999994 114.29199999999999,95.64199999999994 C 114.29199999999999,87.70799999999994 110.57999999999998,80.94699999999995 104.62699999999998,76.52199999999993 C 98.96899999999998,72.31599999999993 91.87599999999998,70.58499999999994 84.82699999999998,70.58499999999994 C 84.82699999999998,70.58499999999994 84.82699999999998,94.58499999999994 84.82699999999998,94.58499999999994 C 88.20099999999998,94.58499999999994 89.84099999999998,95.43499999999993 90.30899999999998,95.78299999999993 C 90.30899999999998,95.78299999999993 90.36599999999999,95.77499999999993 90.36599999999999,95.77499999999993 C 90.36599999999999,95.77499999999993 90.29199999999999,95.64199999999994 90.29199999999999,95.64199999999994 C 90.29199999999999,95.64199999999994 102.29199999999999,95.64199999999994 102.29199999999999,95.64199999999994 C 102.29199999999999,95.64199999999994 102.29199999999999,95.64199999999994 102.29199999999999,95.64199999999994 Z
M 129.94299999999998,82.55099999999995 C 129.94299999999998,82.55099999999995 129.94299999999998,70.55099999999995 129.94299999999998,70.55099999999995 C 120.25499999999998,70.55099999999995 111.65299999999999,74.52099999999994 105.76899999999998,82.02399999999994 C 100.14799999999998,89.19199999999995 97.81099999999998,98.51699999999994 97.81099999999998,108.25399999999995 C 97.81099999999998,108.25399999999995 121.81299999999997,108.25399999999995 121.81299999999997,108.25399999999995 C 121.81299999999997,102.06299999999995 123.32099999999997,98.53599999999994 124.65599999999998,96.83399999999995 C 125.72699999999998,95.46799999999995 127.19099999999997,94.55099999999995 129.944,94.55099999999995 C 129.944,94.55099999999995 129.944,82.55099999999995 129.944,82.55099999999995 C 129.944,82.55099999999995 129.94299999999998,82.55099999999995 129.94299999999998,82.55099999999995 Z
M 109.81199999999998,108.25399999999995 C 109.81199999999998,108.25399999999995 97.81199999999998,108.25399999999995 97.81199999999998,108.25399999999995 C 97.81199999999998,117.97899999999994 100.11699999999999,127.32399999999996 105.71099999999998,134.52199999999993 C 111.57799999999999,142.07299999999992 120.19099999999999,146.09399999999994 129.94299999999998,146.09399999999994 C 129.94299999999998,146.09399999999994 129.94299999999998,122.09399999999994 129.94299999999998,122.09399999999994 C 127.18599999999998,122.09399999999994 125.73299999999999,121.17599999999993 124.66199999999998,119.79699999999994 C 123.31699999999998,118.06499999999994 121.81199999999998,114.49099999999994 121.81199999999998,108.25399999999993 C 121.81199999999998,108.25399999999993 109.81199999999998,108.25399999999993 109.81199999999998,108.25399999999993 C 109.81199999999998,108.25399999999993 109.81199999999998,108.25399999999995 109.81199999999998,108.25399999999995 Z
M 129.94299999999998,134.09399999999994 C 129.94299999999998,134.09399999999994 129.94299999999998,146.09399999999994 129.94299999999998,146.09399999999994 C 139.72699999999998,146.09399999999994 148.33299999999997,142.02999999999994 154.178,134.46799999999993 C 159.74699999999999,127.26299999999993 162.041,117.92199999999994 162.041,108.21999999999993 C 162.041,108.21999999999993 138.041,108.21999999999993 138.041,108.21999999999993 C 138.041,114.44499999999992 136.541,118.04099999999993 135.189,119.79099999999993 C 134.112,121.18399999999993 132.66899999999998,122.09399999999992 129.94299999999998,122.09399999999992 C 129.94299999999998,122.09399999999992 129.94299999999998,134.09399999999994 129.94299999999998,134.09399999999994 C 129.94299999999998,134.09399999999994 129.94299999999998,134.09399999999994 129.94299999999998,134.09399999999994 Z
M 150.041,108.21999999999994 C 150.041,108.21999999999994 162.041,108.21999999999994 162.041,108.21999999999994 C 162.041,98.49399999999994 159.718,89.17499999999994 154.102,82.00999999999993 C 148.219,74.50399999999993 139.62,70.54999999999993 129.943,70.54999999999993 C 129.943,70.54999999999993 129.943,94.54999999999993 129.943,94.54999999999993 C 132.708,94.54999999999993 134.157,95.46799999999993 135.21300000000002,96.81499999999993 C 136.53600000000003,98.50199999999992 138.04100000000003,102.01699999999992 138.04100000000003,108.21999999999993 C 138.04100000000003,108.21999999999993 150.04100000000003,108.21999999999993 150.04100000000003,108.21999999999993 C 150.04100000000003,108.21999999999993 150.041,108.21999999999994 150.041,108.21999999999994 Z
M 129.94299999999998,90.82199999999995 C 129.94299999999998,90.82199999999995 129.94299999999998,102.82199999999995 129.94299999999998,102.82199999999995 C 129.313,102.82199999999995 128.403,102.63099999999994 127.53999999999998,102.07999999999994 C 126.74099999999997,101.56999999999994 126.53199999999998,101.16199999999994 126.53199999999998,101.16199999999994 C 126.53199999999998,101.16199999999994 126.87699999999998,101.85599999999994 127.12599999999998,103.11599999999993 C 127.37099999999998,104.35499999999993 127.54799999999997,106.04899999999992 127.54799999999997,108.25399999999993 C 127.54799999999997,108.25399999999993 151.54799999999997,108.25399999999993 151.54799999999997,108.25399999999993 C 151.54799999999997,101.66799999999994 150.55599999999998,94.97099999999993 147.49699999999999,89.48099999999994 C 144.077,83.34099999999994 137.98299999999998,78.82199999999993 129.94299999999998,78.82199999999993 C 129.94299999999998,78.82199999999993 129.94299999999998,90.82199999999993 129.94299999999998,90.82199999999993 C 129.94299999999998,90.82199999999993 129.94299999999998,90.82199999999995 129.94299999999998,90.82199999999995 Z
M 139.54799999999997,108.25399999999995 C 139.54799999999997,108.25399999999995 127.54799999999997,108.25399999999995 127.54799999999997,108.25399999999995 C 127.54799999999997,110.48599999999995 127.37199999999997,112.20699999999995 127.12499999999997,113.47199999999995 C 126.87399999999997,114.75999999999995 126.51699999999997,115.48999999999995 126.51699999999997,115.48999999999995 C 126.51699999999997,115.48999999999995 126.71199999999996,115.09499999999996 127.51599999999996,114.57799999999995 C 128.38699999999997,114.01699999999994 129.30799999999996,113.82199999999995 129.94299999999996,113.82199999999995 C 129.94299999999996,113.82199999999995 129.94299999999996,137.82199999999995 129.94299999999996,137.82199999999995 C 138.04699999999997,137.82199999999995 144.14099999999996,133.23599999999993 147.53799999999995,127.07099999999994 C 150.57099999999994,121.56499999999994 151.54799999999994,114.84999999999994 151.54799999999994,108.25399999999993 C 151.54799999999994,108.25399999999993 139.54799999999994,108.25399999999993 139.54799999999994,108.25399999999993 C 139.54799999999994,108.25399999999993 139.54799999999997,108.25399999999995 139.54799999999997,108.25399999999995 Z
M 129.94299999999998,125.82199999999995 C 129.94299999999998,125.82199999999995 129.94299999999998,113.82199999999995 129.94299999999998,113.82199999999995 C 130.57799999999997,113.82199999999995 131.492,114.01699999999994 132.35299999999998,114.56999999999995 C 133.14799999999997,115.07999999999996 133.33999999999997,115.46699999999996 133.33999999999997,115.46699999999996 C 133.33999999999997,115.46699999999996 132.98199999999997,114.73799999999996 132.72999999999996,113.45599999999996 C 132.48199999999997,112.19599999999996 132.30499999999995,110.47999999999996 132.30499999999995,108.25399999999996 C 132.30499999999995,108.25399999999996 108.30499999999995,108.25399999999996 108.30499999999995,108.25399999999996 C 108.30499999999995,114.86599999999996 109.29399999999995,121.58599999999996 112.34499999999996,127.09399999999997 C 115.75399999999996,133.24899999999997 121.85199999999996,137.82199999999997 129.94299999999996,137.82199999999997 C 129.94299999999996,137.82199999999997 129.94299999999996,125.82199999999997 129.94299999999996,125.82199999999997 C 129.94299999999996,125.82199999999997 129.94299999999998,125.82199999999995 129.94299999999998,125.82199999999995 Z
M 120.30499999999998,108.25399999999995 C 120.30499999999998,108.25399999999995 132.30499999999998,108.25399999999995 132.30499999999998,108.25399999999995 C 132.30499999999998,106.07299999999995 132.48299999999998,104.39299999999994 132.73,103.16299999999995 C 132.981,101.91199999999995 133.33499999999998,101.20299999999996 133.33499999999998,101.20299999999996 C 133.33499999999998,101.20299999999996 133.146,101.57899999999997 132.36599999999999,102.07799999999996 C 131.51899999999998,102.61999999999996 130.60799999999998,102.82199999999996 129.94299999999998,102.82199999999996 C 129.94299999999998,102.82199999999996 129.94299999999998,78.82199999999996 129.94299999999998,78.82199999999996 C 121.89299999999999,78.82199999999996 115.81499999999998,83.37699999999995 112.40099999999998,89.46499999999996 C 109.32599999999998,94.95099999999996 108.30499999999998,101.64499999999995 108.30499999999998,108.25399999999996 C 108.30499999999998,108.25399999999996 120.30499999999998,108.25399999999996 120.30499999999998,108.25399999999996 C 120.30499999999998,108.25399999999996 120.30499999999998,108.25399999999995 120.30499999999998,108.25399999999995 Z" style="fill-opacity:0.4;fill:rgb(0, 0, 0)"/>
         </g>
         <g id="g_5" transform="matrix(1.0, 0.0, 0.0, 1.0, 0.0, 0.0)" style="fill-opacity:1.0;fill:rgb(255, 255, 255)">
            <path d="M 158.899,45.266 C 163.015,44.156 165.073,43.6 166.697,44.079 C 168.1201224610526,44.4984384237304 169.33821034641673,45.431343309887225 170.114,46.696 C 171.0,48.14 171,50.272 171,54.534 C 171,54.534 171,141.652 171,141.652 C 171,146.85 171.0,149.44899999999998 170.19,151.726 C 169.47388774965185,153.7382888350665 168.30667447185215,155.5602636057468 166.778,157.052 C 165.04899999999998,158.739 162.688,159.827 157.96699999999998,162 C 157.96699999999998,162 118.70399999999998,180.072 118.70399999999998,180.072 C 114.76699999999998,181.885 112.79799999999997,182.791 110.74699999999999,183.148 C 108.92940921287901,183.46498560578965 107.07059078712096,183.46498560578965 105.25299999999999,183.148 C 103.20199999999998,182.791 101.23299999999999,181.885 97.29599999999999,180.072 C 97.29599999999999,180.072 58.033,162 58.033,162 C 53.312,159.827 50.951,158.739 49.222,157.052 C 47.69340827233124,155.5601960862402 46.52620817683545,153.73824189262632 45.81,151.726 C 45.0,149.449 45,146.85 45,141.652 C 45,141.652 45,54.534 45,54.534 C 45,50.272 45.0,48.14 45.886,46.696 C 46.661933553854915,45.431472256403346 47.879964532488316,44.498610953774254 49.303000000000004,44.079 C 50.92700000000001,43.6 52.98500000000001,44.155 57.101000000000006,45.266 C 57.101000000000006,45.266 101.33,57.2 101.33,57.2 C 103.813,57.870000000000005 105.05499999999999,58.205000000000005 106.315,58.339000000000006 C 107.435,58.45700000000001 108.563,58.45700000000001 109.68299999999999,58.339000000000006 C 110.943,58.206 112.18499999999999,57.870000000000005 114.66799999999999,57.2 C 114.66799999999999,57.2 158.898,45.266000000000005 158.898,45.266000000000005 C 158.898,45.266000000000005 158.899,45.266 158.899,45.266 Z
M 84.826,82.585 C 76.11,82.585 70.505,86.618 68.317,91.43799999999999 C 67.80499999999999,92.6 67.565,93.591 67.565,94.75299999999999 C 67.565,97.24799999999999 69.035,98.92299999999999 71.90599999999999,98.92299999999999 C 74.231,98.92299999999999 75.42599999999999,98.06799999999998 76.55499999999999,95.74399999999999 C 78.16099999999999,92.25799999999998 80.69,90.51399999999998 84.85999999999999,90.51399999999998 C 89.84999999999998,90.51399999999998 92.51699999999998,93.14699999999998 92.51699999999998,97.11099999999998 C 92.51699999999998,101.14499999999998 89.16699999999999,103.94699999999997 84.00599999999999,103.94699999999997 C 84.00599999999999,103.94699999999997 81.98899999999999,103.94699999999997 81.98899999999999,103.94699999999997 C 79.49399999999999,103.94699999999997 78.05899999999998,105.45099999999998 78.05899999999998,107.60399999999997 C 78.05899999999998,109.82599999999996 79.49399999999999,111.29599999999996 81.98899999999999,111.29599999999996 C 81.98899999999999,111.29599999999996 84.14299999999999,111.29599999999996 84.14299999999999,111.29599999999996 C 90.12399999999998,111.29599999999996 93.64399999999999,113.96199999999996 93.60999999999999,118.74699999999996 C 93.60999999999999,122.84899999999996 90.12399999999998,125.78799999999995 85.06499999999998,125.78799999999995 C 79.93899999999998,125.78799999999995 77.27199999999998,123.73699999999995 75.52899999999998,120.28499999999995 C 74.50399999999998,118.40499999999996 73.20499999999998,117.58499999999995 71.15399999999998,117.58499999999995 C 68.31699999999998,117.58499999999995 66.60799999999998,119.25999999999995 66.60799999999998,121.92599999999995 C 66.60799999999998,122.95099999999995 66.84799999999997,124.04499999999994 67.39399999999998,125.17299999999994 C 69.71899999999998,130.02599999999995 75.49499999999998,134.09399999999994 84.89399999999998,134.09399999999994 C 96.34399999999998,134.09399999999994 104.10399999999998,128.14599999999993 104.10399999999998,119.19099999999993 C 104.10299999999998,112.38999999999993 99.35299999999998,108.08299999999993 92.00399999999999,107.39899999999993 C 92.00399999999999,107.39899999999993 92.00399999999999,107.19399999999993 92.00399999999999,107.19399999999993 C 97.814,105.99799999999993 102.29199999999999,101.89599999999993 102.29199999999999,95.64199999999994 C 102.29199999999999,87.74599999999994 95.25099999999999,82.58499999999994 84.826,82.58499999999994 C 84.826,82.58499999999994 84.826,82.585 84.826,82.585 Z
M 129.94299999999998,82.55099999999999 C 117.50199999999998,82.55099999999999 109.81199999999998,92.326 109.81199999999998,108.25399999999999 C 109.81199999999998,124.216 117.43399999999998,134.094 129.94299999999998,134.094 C 142.45299999999997,134.094 150.041,124.14699999999999 150.041,108.22 C 150.041,92.292 142.385,82.55 129.94299999999998,82.55 C 129.94299999999998,82.55 129.94299999999998,82.55099999999999 129.94299999999998,82.55099999999999 Z
M 129.94299999999998,90.82199999999999 C 135.993,90.82199999999999 139.54799999999997,97.00899999999999 139.54799999999997,108.25399999999999 C 139.54799999999997,119.567 136.027,125.82199999999999 129.94299999999998,125.82199999999999 C 123.85899999999998,125.82199999999999 120.30499999999998,119.567 120.30499999999998,108.25399999999999 C 120.30499999999998,97.04299999999999 123.92799999999998,90.82199999999999 129.94299999999998,90.82199999999999 C 129.94299999999998,90.82199999999999 129.94299999999998,90.82199999999999 129.94299999999998,90.82199999999999 Z" style="fill-opacity:1.0;fill:rgb(255, 255, 255)"/>
         </g>
      </g>
   </g>
</svg>
