<?xml version="1.0" ?>
<svg xmlns:inkscape="http://www.inkscape.org/namespaces/inkscape" xmlns:sodipodi="http://sodipodi.sourceforge.net/DTD/sodipodi-0.dtd" xmlns="http://www.w3.org/2000/svg" width="512" height="512" viewBox="0 0 512 512" version="1.1" id="svg_1" sodipodi:docname="Send me a Gift - @DMJ_Stickers" inkscape:export-xdpi="96" inkscape:export-ydpi="96" style="fill: none; stroke: none">
   <defs>
      <linearGradient x1="304.416" y1="595.356" x2="304.416" y2="380.134" id="linearGradient_2" gradientUnits="userSpaceOnUse">
         <stop offset="0%" stop-color="rgb(242, 242, 242)" stop-opacity="0.295"/>
         <stop offset="100%" stop-color="rgb(64, 64, 64)" stop-opacity="0.295"/>
      </linearGradient>
      <linearGradient x1="-85.078" y1="-0.841" x2="84.642" y2="-0.841" id="Gradient_Fill_1" inkscape:label="Gradient Fill 1" gradientUnits="userSpaceOnUse">
         <stop offset="70.19999999999999%" stop-color="rgb(255, 255, 255)" stop-opacity="1"/>
         <stop offset="86.4%" stop-color="rgb(246, 245, 251)" stop-opacity="1"/>
         <stop offset="100%" stop-color="rgb(236, 235, 247)" stop-opacity="1"/>
      </linearGradient>
      <linearGradient x1="-85.078" y1="-0.841" x2="84.642" y2="-0.841" id="linearGradient_14" inkscape:label="Gradient Fill 1" gradientUnits="userSpaceOnUse">
         <stop offset="70.19999999999999%" stop-color="rgb(255, 255, 255)" stop-opacity="1"/>
         <stop offset="86.4%" stop-color="rgb(246, 245, 251)" stop-opacity="1"/>
         <stop offset="100%" stop-color="rgb(236, 235, 247)" stop-opacity="1"/>
      </linearGradient>
      <linearGradient x1="-95.078" y1="-0.841" x2="93.956" y2="-0.841" id="Gradient_Stroke_1" inkscape:label="Gradient Stroke 1" gradientUnits="userSpaceOnUse">
         <stop offset="0%" stop-color="rgb(173, 171, 182)" stop-opacity="1"/>
         <stop offset="74.0%" stop-color="rgb(164, 161, 171)" stop-opacity="1"/>
         <stop offset="99.9%" stop-color="rgb(155, 151, 160)" stop-opacity="1"/>
      </linearGradient>
      <linearGradient x1="-0.325" y1="-94.158" x2="-0.325" y2="98.672" id="linearGradient_15" inkscape:label="Gradient Fill 1" gradientUnits="userSpaceOnUse">
         <stop offset="0%" stop-color="rgb(255, 69, 72)" stop-opacity="1"/>
         <stop offset="51.1%" stop-color="rgb(245, 34, 36)" stop-opacity="1"/>
         <stop offset="76.0%" stop-color="rgb(235, 0, 0)" stop-opacity="1"/>
      </linearGradient>
      <linearGradient x1="-0.325" y1="-94.158" x2="-0.325" y2="98.672" id="linearGradient_17" inkscape:label="Gradient Fill 1" gradientUnits="userSpaceOnUse">
         <stop offset="0%" stop-color="rgb(255, 69, 72)" stop-opacity="1"/>
         <stop offset="51.1%" stop-color="rgb(245, 34, 36)" stop-opacity="1"/>
         <stop offset="76.0%" stop-color="rgb(235, 0, 0)" stop-opacity="1"/>
      </linearGradient>
      <radialGradient cx="-0.325" cy="-68.115" r="173.929" fx="-0.325" fy="-68.115" id="radialGradient_18" inkscape:label="Gradient Fill 1" gradientUnits="userSpaceOnUse">
         <stop offset="60.4%" stop-color="rgb(152, 0, 0)" stop-opacity="0"/>
         <stop offset="76.2%" stop-color="rgb(152, 0, 0)" stop-opacity="0.5"/>
         <stop offset="100%" stop-color="rgb(152, 0, 0)" stop-opacity="1"/>
      </radialGradient>
      <radialGradient cx="-0.325" cy="-68.115" r="173.929" fx="-0.325" fy="-68.115" id="radialGradient_20" inkscape:label="Gradient Fill 1" gradientUnits="userSpaceOnUse">
         <stop offset="60.4%" stop-color="rgb(152, 0, 0)" stop-opacity="0"/>
         <stop offset="76.2%" stop-color="rgb(152, 0, 0)" stop-opacity="0.5"/>
         <stop offset="100%" stop-color="rgb(152, 0, 0)" stop-opacity="1"/>
      </radialGradient>
      <linearGradient x1="-219.135" y1="-0.608" x2="217.739" y2="-0.608" id="linearGradient_21" inkscape:label="Gradient Stroke 1" gradientUnits="userSpaceOnUse">
         <stop offset="0%" stop-color="rgb(255, 255, 255)" stop-opacity="1"/>
         <stop offset="83.89999999999999%" stop-color="rgb(255, 255, 255)" stop-opacity="0.5"/>
         <stop offset="100%" stop-color="rgb(255, 255, 255)" stop-opacity="0"/>
      </linearGradient>
      <linearGradient x1="-0.524" y1="94.78" x2="-0.524" y2="-96.711" id="linearGradient_22" inkscape:label="Gradient Fill 1" gradientUnits="userSpaceOnUse">
         <stop offset="0%" stop-color="rgb(152, 0, 0)" stop-opacity="0"/>
         <stop offset="34.4%" stop-color="rgb(152, 0, 0)" stop-opacity="0.5"/>
         <stop offset="86.2%" stop-color="rgb(152, 0, 0)" stop-opacity="1"/>
      </linearGradient>
      <linearGradient x1="-0.524" y1="94.78" x2="-0.524" y2="-96.711" id="linearGradient_24" inkscape:label="Gradient Fill 1" gradientUnits="userSpaceOnUse">
         <stop offset="0%" stop-color="rgb(152, 0, 0)" stop-opacity="0"/>
         <stop offset="34.4%" stop-color="rgb(152, 0, 0)" stop-opacity="0.5"/>
         <stop offset="86.2%" stop-color="rgb(152, 0, 0)" stop-opacity="1"/>
      </linearGradient>
      <linearGradient x1="-0.789" y1="105.368" x2="-0.789" y2="-107.136" id="linearGradient_26" inkscape:label="Gradient Stroke 1" gradientUnits="userSpaceOnUse">
         <stop offset="0%" stop-color="rgb(176, 0, 0)" stop-opacity="1"/>
         <stop offset="51.7%" stop-color="rgb(148, 0, 0)" stop-opacity="1"/>
         <stop offset="88.3%" stop-color="rgb(121, 0, 0)" stop-opacity="1"/>
      </linearGradient>
      <linearGradient x1="-0.89" y1="-104.435" x2="-0.89" y2="65.511" id="linearGradient_31" inkscape:label="Gradient Fill 1" gradientUnits="userSpaceOnUse">
         <stop offset="13.5%" stop-color="rgb(255, 126, 136)" stop-opacity="1"/>
         <stop offset="42.5%" stop-color="rgb(245, 63, 68)" stop-opacity="1"/>
         <stop offset="99.9%" stop-color="rgb(235, 0, 0)" stop-opacity="1"/>
      </linearGradient>
      <linearGradient x1="-0.89" y1="-104.435" x2="-0.89" y2="65.511" id="linearGradient_33" inkscape:label="Gradient Fill 1" gradientUnits="userSpaceOnUse">
         <stop offset="13.5%" stop-color="rgb(255, 126, 136)" stop-opacity="1"/>
         <stop offset="42.5%" stop-color="rgb(245, 63, 68)" stop-opacity="1"/>
         <stop offset="99.9%" stop-color="rgb(235, 0, 0)" stop-opacity="1"/>
      </linearGradient>
      <radialGradient cx="-0.914" cy="-21.226" r="209.337" fx="-0.914" fy="-21.226" id="radialGradient_35" inkscape:label="Gradient Fill 1" gradientUnits="userSpaceOnUse">
         <stop offset="60.099999999999994%" stop-color="rgb(152, 0, 0)" stop-opacity="0"/>
         <stop offset="76.0%" stop-color="rgb(152, 0, 0)" stop-opacity="0.5"/>
         <stop offset="100%" stop-color="rgb(152, 0, 0)" stop-opacity="1"/>
      </radialGradient>
      <radialGradient cx="-0.914" cy="-21.226" r="209.337" fx="-0.914" fy="-21.226" id="radialGradient_37" inkscape:label="Gradient Fill 1" gradientUnits="userSpaceOnUse">
         <stop offset="60.099999999999994%" stop-color="rgb(152, 0, 0)" stop-opacity="0"/>
         <stop offset="76.0%" stop-color="rgb(152, 0, 0)" stop-opacity="0.5"/>
         <stop offset="100%" stop-color="rgb(152, 0, 0)" stop-opacity="1"/>
      </radialGradient>
      <linearGradient x1="-0.448" y1="97.889" x2="-0.448" y2="-98.366" id="linearGradient_38" inkscape:label="Gradient Stroke 1" gradientUnits="userSpaceOnUse">
         <stop offset="0%" stop-color="rgb(255, 255, 255)" stop-opacity="0"/>
         <stop offset="22.8%" stop-color="rgb(255, 255, 255)" stop-opacity="0.5"/>
         <stop offset="100%" stop-color="rgb(255, 255, 255)" stop-opacity="1"/>
      </linearGradient>
      <linearGradient x1="-0.904" y1="111.597" x2="-0.904" y2="-112.827" id="linearGradient_43" inkscape:label="Gradient Stroke 1" gradientUnits="userSpaceOnUse">
         <stop offset="13.5%" stop-color="rgb(121, 0, 0)" stop-opacity="1"/>
         <stop offset="39.1%" stop-color="rgb(161, 0, 0)" stop-opacity="1"/>
         <stop offset="91.5%" stop-color="rgb(201, 0, 0)" stop-opacity="1"/>
      </linearGradient>
      <linearGradient x1="1.04" y1="-174.447" x2="0.04" y2="-126.345" id="linearGradient_44" inkscape:label="Gradient Fill 1" gradientUnits="userSpaceOnUse">
         <stop offset="0.1%" stop-color="rgb(102, 145, 12)" stop-opacity="1"/>
         <stop offset="9.700000000000001%" stop-color="rgb(143, 181, 18)" stop-opacity="1"/>
         <stop offset="25.0%" stop-color="rgb(183, 217, 24)" stop-opacity="1"/>
         <stop offset="37.5%" stop-color="rgb(201, 228, 48)" stop-opacity="1"/>
         <stop offset="50.0%" stop-color="rgb(219, 240, 72)" stop-opacity="1"/>
         <stop offset="62.5%" stop-color="rgb(201, 228, 48)" stop-opacity="1"/>
         <stop offset="75.0%" stop-color="rgb(183, 217, 24)" stop-opacity="1"/>
         <stop offset="87.5%" stop-color="rgb(143, 181, 18)" stop-opacity="1"/>
         <stop offset="100%" stop-color="rgb(102, 145, 12)" stop-opacity="1"/>
      </linearGradient>
      <linearGradient x1="1.04" y1="-174.447" x2="0.04" y2="-126.345" id="linearGradient_46" inkscape:label="Gradient Fill 1" gradientUnits="userSpaceOnUse">
         <stop offset="0.1%" stop-color="rgb(102, 145, 12)" stop-opacity="1"/>
         <stop offset="9.700000000000001%" stop-color="rgb(143, 181, 18)" stop-opacity="1"/>
         <stop offset="25.0%" stop-color="rgb(183, 217, 24)" stop-opacity="1"/>
         <stop offset="37.5%" stop-color="rgb(201, 228, 48)" stop-opacity="1"/>
         <stop offset="50.0%" stop-color="rgb(219, 240, 72)" stop-opacity="1"/>
         <stop offset="62.5%" stop-color="rgb(201, 228, 48)" stop-opacity="1"/>
         <stop offset="75.0%" stop-color="rgb(183, 217, 24)" stop-opacity="1"/>
         <stop offset="87.5%" stop-color="rgb(143, 181, 18)" stop-opacity="1"/>
         <stop offset="100%" stop-color="rgb(102, 145, 12)" stop-opacity="1"/>
      </linearGradient>
      <linearGradient x1="1.04" y1="-174.447" x2="0.04" y2="-126.345" id="linearGradient_48" inkscape:label="Gradient Stroke 1" gradientUnits="userSpaceOnUse">
         <stop offset="0.1%" stop-color="rgb(45, 79, 18)" stop-opacity="1"/>
         <stop offset="19.400000000000002%" stop-color="rgb(84, 121, 9)" stop-opacity="1"/>
         <stop offset="50.0%" stop-color="rgb(124, 164, 0)" stop-opacity="1"/>
         <stop offset="75.0%" stop-color="rgb(84, 121, 9)" stop-opacity="1"/>
         <stop offset="100%" stop-color="rgb(45, 79, 18)" stop-opacity="1"/>
      </linearGradient>
      <linearGradient x1="270" y1="88" x2="284.5" y2="191.5" id="linearGradient_64" gradientUnits="userSpaceOnUse">
         <stop offset="0%" stop-color="rgb(255, 233, 177)" stop-opacity="1"/>
         <stop offset="49.5%" stop-color="rgb(230, 160, 39)" stop-opacity="1"/>
         <stop offset="100%" stop-color="rgb(230, 160, 39)" stop-opacity="1"/>
      </linearGradient>
      <linearGradient x1="280.75" y1="39.25" x2="284.5" y2="191.5" id="linearGradient_67" gradientUnits="userSpaceOnUse">
         <stop offset="0%" stop-color="rgb(255, 233, 177)" stop-opacity="1"/>
         <stop offset="100%" stop-color="rgb(230, 160, 39)" stop-opacity="1"/>
      </linearGradient>
      <linearGradient x1="277.75" y1="67.25" x2="284.5" y2="191.5" id="linearGradient_70" gradientUnits="userSpaceOnUse">
         <stop offset="0%" stop-color="rgb(255, 233, 177)" stop-opacity="1"/>
         <stop offset="100%" stop-color="rgb(230, 160, 39)" stop-opacity="1"/>
      </linearGradient>
      <linearGradient x1="280.75" y1="39.25" x2="284.5" y2="191.5" id="linearGradient_73" gradientUnits="userSpaceOnUse">
         <stop offset="0%" stop-color="rgb(255, 233, 177)" stop-opacity="1"/>
         <stop offset="100%" stop-color="rgb(230, 160, 39)" stop-opacity="1"/>
      </linearGradient>
      <linearGradient x1="282.75" y1="74.25" x2="279.5" y2="176.5" id="linearGradient_76" gradientUnits="userSpaceOnUse">
         <stop offset="0%" stop-color="rgb(255, 233, 177)" stop-opacity="1"/>
         <stop offset="100%" stop-color="rgb(230, 160, 39)" stop-opacity="1"/>
      </linearGradient>
      <linearGradient x1="-128.25" y1="493.25" x2="-133.5" y2="598.75" id="linearGradient_79" gradientUnits="userSpaceOnUse">
         <stop offset="0%" stop-color="rgb(255, 233, 177)" stop-opacity="1"/>
         <stop offset="100%" stop-color="rgb(230, 160, 39)" stop-opacity="1"/>
      </linearGradient>
      <linearGradient x1="271" y1="20.5" x2="275.5" y2="162" id="linearGradient_82" gradientUnits="userSpaceOnUse">
         <stop offset="0%" stop-color="rgb(255, 233, 177)" stop-opacity="1"/>
         <stop offset="100%" stop-color="rgb(230, 160, 39)" stop-opacity="1"/>
      </linearGradient>
      <linearGradient x1="287.5" y1="71.25" x2="291.5" y2="146.5" id="linearGradient_85" gradientUnits="userSpaceOnUse">
         <stop offset="0%" stop-color="rgb(255, 233, 177)" stop-opacity="1"/>
         <stop offset="100%" stop-color="rgb(230, 160, 39)" stop-opacity="1"/>
      </linearGradient>
      <linearGradient x1="287.5" y1="71.25" x2="291.5" y2="146.5" id="linearGradient_86" gradientUnits="userSpaceOnUse">
         <stop offset="0%" stop-color="rgb(255, 233, 177)" stop-opacity="1"/>
         <stop offset="100%" stop-color="rgb(230, 160, 39)" stop-opacity="1"/>
      </linearGradient>
      <linearGradient x1="287.5" y1="71.25" x2="291.5" y2="146.5" id="linearGradient_87" gradientUnits="userSpaceOnUse">
         <stop offset="0%" stop-color="rgb(255, 233, 177)" stop-opacity="1"/>
         <stop offset="100%" stop-color="rgb(230, 160, 39)" stop-opacity="1"/>
      </linearGradient>
      <linearGradient x1="413" y1="-175.5" x2="406" y2="-64" id="linearGradient_90" gradientUnits="userSpaceOnUse">
         <stop offset="0%" stop-color="rgb(255, 233, 177)" stop-opacity="1"/>
         <stop offset="100%" stop-color="rgb(230, 160, 39)" stop-opacity="1"/>
      </linearGradient>
      <linearGradient x1="-153" y1="396.5" x2="-150" y2="486" id="linearGradient_93" gradientUnits="userSpaceOnUse">
         <stop offset="0%" stop-color="rgb(255, 233, 177)" stop-opacity="1"/>
         <stop offset="37.2%" stop-color="rgb(230, 160, 39)" stop-opacity="1"/>
         <stop offset="100%" stop-color="rgb(230, 160, 39)" stop-opacity="1"/>
      </linearGradient>
      <linearGradient x1="270" y1="88" x2="284.5" y2="191.5" id="linearGradient_96" gradientUnits="userSpaceOnUse">
         <stop offset="0%" stop-color="rgb(255, 233, 177)" stop-opacity="1"/>
         <stop offset="100%" stop-color="rgb(230, 160, 39)" stop-opacity="1"/>
      </linearGradient>
      <linearGradient x1="280.75" y1="39.25" x2="284.5" y2="191.5" id="linearGradient_99" gradientUnits="userSpaceOnUse">
         <stop offset="0%" stop-color="rgb(255, 233, 177)" stop-opacity="1"/>
         <stop offset="100%" stop-color="rgb(230, 160, 39)" stop-opacity="1"/>
      </linearGradient>
      <linearGradient x1="277.75" y1="67.25" x2="284.5" y2="191.5" id="linearGradient_102" gradientUnits="userSpaceOnUse">
         <stop offset="0%" stop-color="rgb(255, 233, 177)" stop-opacity="1"/>
         <stop offset="100%" stop-color="rgb(230, 160, 39)" stop-opacity="1"/>
      </linearGradient>
      <linearGradient x1="280.75" y1="39.25" x2="284.5" y2="191.5" id="linearGradient_105" gradientUnits="userSpaceOnUse">
         <stop offset="0%" stop-color="rgb(255, 233, 177)" stop-opacity="1"/>
         <stop offset="100%" stop-color="rgb(230, 160, 39)" stop-opacity="1"/>
      </linearGradient>
      <linearGradient x1="287.5" y1="71.25" x2="291.5" y2="146.5" id="linearGradient_108" gradientUnits="userSpaceOnUse">
         <stop offset="0%" stop-color="rgb(255, 233, 177)" stop-opacity="1"/>
         <stop offset="100%" stop-color="rgb(230, 160, 39)" stop-opacity="1"/>
      </linearGradient>
      <linearGradient x1="287.5" y1="71.25" x2="291.5" y2="146.5" id="linearGradient_111" gradientUnits="userSpaceOnUse">
         <stop offset="0%" stop-color="rgb(255, 233, 177)" stop-opacity="1"/>
         <stop offset="100%" stop-color="rgb(230, 160, 39)" stop-opacity="1"/>
      </linearGradient>
      <linearGradient x1="-128.25" y1="493.25" x2="-133.5" y2="598.75" id="linearGradient_114" gradientUnits="userSpaceOnUse">
         <stop offset="0%" stop-color="rgb(255, 233, 177)" stop-opacity="1"/>
         <stop offset="100%" stop-color="rgb(230, 160, 39)" stop-opacity="1"/>
      </linearGradient>
      <linearGradient x1="287.5" y1="71.25" x2="291.5" y2="146.5" id="linearGradient_117" gradientUnits="userSpaceOnUse">
         <stop offset="0%" stop-color="rgb(255, 233, 177)" stop-opacity="1"/>
         <stop offset="100%" stop-color="rgb(230, 160, 39)" stop-opacity="1"/>
      </linearGradient>
      <linearGradient x1="287.5" y1="71.25" x2="291.5" y2="146.5" id="linearGradient_120" gradientUnits="userSpaceOnUse">
         <stop offset="0%" stop-color="rgb(255, 233, 177)" stop-opacity="1"/>
         <stop offset="100%" stop-color="rgb(230, 160, 39)" stop-opacity="1"/>
      </linearGradient>
      <linearGradient x1="271" y1="20.5" x2="275.5" y2="162" id="linearGradient_123" gradientUnits="userSpaceOnUse">
         <stop offset="0%" stop-color="rgb(255, 233, 177)" stop-opacity="1"/>
         <stop offset="100%" stop-color="rgb(230, 160, 39)" stop-opacity="1"/>
      </linearGradient>
      <linearGradient x1="287.5" y1="71.25" x2="291.5" y2="146.5" id="linearGradient_126" gradientUnits="userSpaceOnUse">
         <stop offset="0%" stop-color="rgb(255, 233, 177)" stop-opacity="1"/>
         <stop offset="100%" stop-color="rgb(230, 160, 39)" stop-opacity="1"/>
      </linearGradient>
      <linearGradient x1="287.5" y1="71.25" x2="291.5" y2="146.5" id="linearGradient_129" gradientUnits="userSpaceOnUse">
         <stop offset="0%" stop-color="rgb(255, 233, 177)" stop-opacity="1"/>
         <stop offset="100%" stop-color="rgb(230, 160, 39)" stop-opacity="1"/>
      </linearGradient>
      <linearGradient x1="287.5" y1="71.25" x2="291.5" y2="146.5" id="linearGradient_132" gradientUnits="userSpaceOnUse">
         <stop offset="0%" stop-color="rgb(255, 233, 177)" stop-opacity="1"/>
         <stop offset="100%" stop-color="rgb(230, 160, 39)" stop-opacity="1"/>
      </linearGradient>
      <linearGradient x1="287.5" y1="71.25" x2="291.5" y2="146.5" id="linearGradient_135" gradientUnits="userSpaceOnUse">
         <stop offset="0%" stop-color="rgb(255, 233, 177)" stop-opacity="1"/>
         <stop offset="100%" stop-color="rgb(230, 160, 39)" stop-opacity="1"/>
      </linearGradient>
      <linearGradient x1="287.5" y1="71.25" x2="291.5" y2="146.5" id="linearGradient_138" gradientUnits="userSpaceOnUse">
         <stop offset="0%" stop-color="rgb(255, 233, 177)" stop-opacity="1"/>
         <stop offset="100%" stop-color="rgb(230, 160, 39)" stop-opacity="1"/>
      </linearGradient>
      <linearGradient x1="287.5" y1="71.25" x2="291.5" y2="146.5" id="linearGradient_141" gradientUnits="userSpaceOnUse">
         <stop offset="0%" stop-color="rgb(255, 233, 177)" stop-opacity="1"/>
         <stop offset="100%" stop-color="rgb(230, 160, 39)" stop-opacity="1"/>
      </linearGradient>
      <linearGradient x1="287.5" y1="71.25" x2="291.5" y2="146.5" id="linearGradient_144" gradientUnits="userSpaceOnUse">
         <stop offset="0%" stop-color="rgb(255, 233, 177)" stop-opacity="1"/>
         <stop offset="100%" stop-color="rgb(230, 160, 39)" stop-opacity="1"/>
      </linearGradient>
      <linearGradient x1="287.5" y1="71.25" x2="291.5" y2="146.5" id="linearGradient_147" gradientUnits="userSpaceOnUse">
         <stop offset="0%" stop-color="rgb(255, 233, 177)" stop-opacity="1"/>
         <stop offset="100%" stop-color="rgb(230, 160, 39)" stop-opacity="1"/>
      </linearGradient>
      <linearGradient x1="277.75" y1="67.25" x2="284.5" y2="191.5" id="linearGradient_150" gradientUnits="userSpaceOnUse">
         <stop offset="0%" stop-color="rgb(255, 233, 177)" stop-opacity="1"/>
         <stop offset="100%" stop-color="rgb(230, 160, 39)" stop-opacity="1"/>
      </linearGradient>
      <linearGradient x1="277.75" y1="67.25" x2="284.5" y2="191.5" id="linearGradient_153" gradientUnits="userSpaceOnUse">
         <stop offset="0%" stop-color="rgb(255, 233, 177)" stop-opacity="1"/>
         <stop offset="100%" stop-color="rgb(230, 160, 39)" stop-opacity="1"/>
      </linearGradient>
      <linearGradient x1="271" y1="20.5" x2="275.5" y2="162" id="linearGradient_156" gradientUnits="userSpaceOnUse">
         <stop offset="0%" stop-color="rgb(255, 233, 177)" stop-opacity="1"/>
         <stop offset="100%" stop-color="rgb(230, 160, 39)" stop-opacity="1"/>
      </linearGradient>
      <linearGradient x1="271" y1="20.5" x2="275.5" y2="162" id="linearGradient_159" gradientUnits="userSpaceOnUse">
         <stop offset="0%" stop-color="rgb(255, 233, 177)" stop-opacity="1"/>
         <stop offset="100%" stop-color="rgb(230, 160, 39)" stop-opacity="1"/>
      </linearGradient>
      <mask id="id_61" mask-type="alpha">
         <g inkscape:groupmode="layer" id="g_160" transform="matrix(1.0, 0.0, 0.0, 1.1505400000000001, 3.9799999999999898, -57.62917606000002)" inkscape:label="ShapeLayer" style="fill-opacity:1.0;fill:rgb(251, 234, 191);fill-rule:nonzero">
            <rect width="183.908" height="76.697" x="160.06600000000003" y="372.4405" rx="36.972" id="rect_161" style="fill-opacity:1.0;fill:rgb(251, 234, 191);fill-rule:nonzero"/>
         </g>
      </mask>
      <linearGradient x1="35.59" y1="9.92" x2="35.59" y2="61.24" id="linearGradient_171" gradientUnits="userSpaceOnUse">
         <stop offset="0%" stop-color="rgb(255, 240, 194)" stop-opacity="1"/>
         <stop offset="100%" stop-color="rgb(255, 235, 186)" stop-opacity="1"/>
      </linearGradient>
      <linearGradient x1="35.59" y1="9.92" x2="35.59" y2="61.24" id="linearGradient_172" gradientUnits="userSpaceOnUse">
         <stop offset="0%" stop-color="rgb(255, 240, 194)" stop-opacity="1"/>
         <stop offset="100%" stop-color="rgb(255, 235, 186)" stop-opacity="1"/>
      </linearGradient>
      <linearGradient x1="36" y1="13.76" x2="50.08" y2="59.84" id="linearGradient_174" gradientUnits="userSpaceOnUse">
         <stop offset="0%" stop-color="rgb(255, 209, 71)" stop-opacity="1"/>
         <stop offset="100%" stop-color="rgb(255, 181, 38)" stop-opacity="1"/>
      </linearGradient>
      <linearGradient x1="36" y1="13.76" x2="50.08" y2="59.84" id="linearGradient_175" gradientUnits="userSpaceOnUse">
         <stop offset="0%" stop-color="rgb(255, 209, 71)" stop-opacity="1"/>
         <stop offset="100%" stop-color="rgb(255, 181, 38)" stop-opacity="1"/>
      </linearGradient>
      <linearGradient x1="35.59" y1="8.52" x2="47.94" y2="62.63" id="linearGradient_177" gradientUnits="userSpaceOnUse">
         <stop offset="0%" stop-color="rgb(230, 143, 13)" stop-opacity="1"/>
         <stop offset="100%" stop-color="rgb(235, 120, 20)" stop-opacity="1"/>
      </linearGradient>
      <linearGradient x1="35.59" y1="8.52" x2="47.94" y2="62.63" id="linearGradient_178" gradientUnits="userSpaceOnUse">
         <stop offset="0%" stop-color="rgb(230, 143, 13)" stop-opacity="1"/>
         <stop offset="100%" stop-color="rgb(235, 120, 20)" stop-opacity="1"/>
      </linearGradient>
   </defs>
   <sodipodi:namedview inkscape:pagecheckerboard="true" borderlayer="true" bordercolor="#666666" pagecolor="#ffffff"/>
   <g inkscape:groupmode="layer" id="shadow" inkscape:label="shadow" transform="matrix(0.99, 0.0, 0.0, 0.99, 2.5378200000000106, 1.5526399999999967)" style="fill-opacity:0.1;fill:rgb(242, 242, 242);fill-rule:nonzero;stroke:url(#linearGradient_2);stroke-opacity:0.8;stroke-width:9.0;stroke-miterlimit:0.0;stroke-linecap:round;stroke-linejoin:round">
      <rect width="367.248" height="484.51" x="72.09100000000001" y="18.16300000000001" rx="38.658" id="rect_3" style="fill-opacity:0.1;fill:rgb(242, 242, 242);fill-rule:nonzero"/>
   </g>
   <g inkscape:groupmode="layer" id="g_4" transform="matrix(1.0, 0.0, 0.0, 1.1505400000000001, 3.9799999999999898, -57.62917606000002)" opacity="0.25" inkscape:label="ShapeLayer" style="fill-opacity:1.0;fill:rgb(199, 146, 3);fill-rule:nonzero">
      <rect width="183.908" height="76.697" x="160.06600000000003" y="372.4405" rx="36.972" id="rect_5" style="fill-opacity:1.0;fill:rgb(199, 146, 3);fill-rule:nonzero"/>
   </g>
   <g inkscape:groupmode="layer" id="g_6" transform="matrix(1.0, 0.0, 0.0, 1.1505400000000001, 3.9799999999999898, -57.62917606000002)" opacity="0.05" inkscape:label="ShapeLayer" style="fill-opacity:1.0;fill:rgb(110, 108, 10);fill-rule:nonzero">
      <rect width="183.908" height="76.697" x="160.06600000000003" y="372.4405" rx="36.972" id="rect_7" style="fill-opacity:1.0;fill:rgb(110, 108, 10);fill-rule:nonzero"/>
   </g>
   <g inkscape:groupmode="layer" id="g_8" transform="matrix(1.0, 0.0, 0.0, 1.0, 0.0, 0.0)" opacity="0.4" inkscape:label="ShapeLayer" style="fill-opacity:0.25;fill:rgb(128, 128, 128);fill-rule:nonzero">
      <rect width="367.248" height="484.51" x="72.09100000000001" y="18.16300000000001" rx="38.658" id="rect_9" style="fill-opacity:0.25;fill:rgb(128, 128, 128);fill-rule:nonzero"/>
   </g>
   <g inkscape:groupmode="layer" id="stick" inkscape:label="stick" transform="matrix(0.65, 0.0, 0.0, 0.65, 89.6, 23.599999999999994)">
      <g inkscape:groupmode="layer" id="rem" inkscape:label="rem" transform="matrix(1.0, 0.0, 0.0, 1.0, 253.0, 256.0)" opacity="1">
         <g inkscape:groupmode="layer" id="master" inkscape:label="master" transform="matrix(1.0, 0.0, 0.0, 1.0, 0.0, 0.0)" opacity="1">
            <g inkscape:groupmode="layer" id="back" inkscape:label="back" transform="matrix(1.0, 0.0, 0.0, 1.0, 8.392, -14.603)" style="">
               <g id="Group_1" inkscape:label="Group 1" transform="matrix(1.0, 0.0, 0.0, 1.0, 0.0, 0.0)" style="fill-opacity:1.0;fill:rgb(38, 2, 1);fill-rule:nonzero">
                  <path d="M 225,29.119 C 225,29.119 106.42800000000001,114.147 3.641,120.241 C -137.392,128.603 -143.807,90.149 -188.665,55.588 C -222.392,29.603 -242,20.241 -242,20.241 C -242,20.241 -139.483,-88.25500000000001 -1.748,-87.311 C 131.608,-86.397 225,29.119 225,29.119 Z" id="Path_1" inkscape:label="Path 1" style="fill-opacity:1.0;fill:rgb(38, 2, 1);fill-rule:nonzero"/>
               </g>
               <g inkscape:groupmode="layer" id="teethbase" inkscape:label="teethbase" transform="matrix(1.0, 0.0, 0.0, 1.0, -8.663, -10.556)" style="">
                  <g id="g_10" inkscape:label="Group 1" transform="matrix(1.0, 0.0, 0.0, 1.0, 0.0, 0.0)" style="fill-opacity:1.0;fill:rgb(236, 235, 247);fill-rule:nonzero;stroke:rgb(155, 151, 160);stroke-opacity:1.0;stroke-width:19.315;stroke-miterlimit:0;stroke-linecap:round;stroke-linejoin:round">
                     <path d="M 139.817,-16.485 C 136.27100000000002,-17.84 113.771,-40.84 112.011,-41.316 C 112.011,-41.316 -8.453,-63.074 -8.453,-63.074 C -8.453,-63.074 -98.907,-37.986 -109.764,-40.821 C -115.729,-38.839999999999996 -154.729,-17.34 -155.817,-17.485 C -164.729,-9.34 -174.971,-4.577999999999999 -172.773,10.166 C -169.058,35.09 -159.166,62.412 -140.986,84.574 C -140.986,84.574 -136.78900000000002,61.644 -123.397,17.223 C -123.397,17.223 -78.836,2.712 -4.792,2.915 C 31.46,3.0140000000000002 74.78,6.639999999999999 123.397,17.223 C 136.78900000000002,61.644 140.986,84.574 140.986,84.574 C 159.38899999999998,62.14 169.3,34.42 172.907,9.251 C 174.972,-5.1530000000000005 141.472,-5.2219999999999995 139.817,-16.485 Z" id="path_11" inkscape:label="Path 1" style="fill-opacity:1.0;fill:rgb(236, 235, 247);fill-rule:nonzero"/>
                  </g>
                  <g inkscape:groupmode="layer" id="teeth_l" inkscape:label="teeth l" transform="matrix(1.0, 0.0, 0.0, 1.0, -89.151, 0.0)" style="">
                     <g id="g_12" inkscape:label="Group 1" transform="matrix(1.0, 0.0, 0.0, 1.0, 0.0, 0.0)" style="fill-opacity:1.0;fill:url(#Gradient_Fill_1);fill-rule:nonzero;stroke:url(#Gradient_Stroke_1);stroke-opacity:1.0;stroke-width:19.315;stroke-miterlimit:0;stroke-linecap:round;stroke-linejoin:round">
                        <path d="M 81.698,-84.574 C 81.698,-84.574 -24.326,-52.409 -35.183,-55.244 C -39.578,-52.841 -85.078,-29.34 -83.666,-29.985 C -88.212,0.9589999999999996 -80.269,49.300999999999995 -51.334,84.574 C -51.334,84.574 -47.138000000000005,61.644 -33.746,17.223 C -33.746,17.223 10.816000000000003,2.712 84.86,2.915 " id="path_13" inkscape:label="Path 1" style="fill-opacity:1.0;fill:url(#linearGradient_14);fill-rule:nonzero"/>
                     </g>
                  </g>
               </g>
               <g inkscape:groupmode="layer" id="bottomlip" inkscape:label="bottomlip" transform="matrix(1.0, 0.0, 0.0, 1.0, -264.392, -241.397)" style="">
                  <g id="fill" inkscape:label="fill" transform="matrix(1.0, 0.0, 0.0, 1.0, 256.325, 349.158)" style="fill-opacity:1.0;fill:url(#linearGradient_15);fill-rule:nonzero">
                     <path d="M -236.504,-84.853 C -141.08599999999998,-49.00899999999999 -106.406,40.693999999999996 -6.807,84.192 C 56.308,111.756 105.38300000000001,90.598 134.245,62.623 C 184.0,14.396 198.749,-76.54599999999999 247.183,-89.216 C 247.183,-89.216 213.81199999999998,-76.831 173.76,-58.142 C 137.611,-41.275000000000006 88.14099999999999,-11.651000000000003 18.287,-50.27 C -74.49199999999999,-101.563 -115.441,-96.355 -169.62,-95.64 C -209.211,-95.117 -236.504,-84.853 -236.504,-84.853 Z" id="path_16" inkscape:label="Path 1" style="fill-opacity:1.0;fill:url(#linearGradient_17);fill-rule:nonzero"/>
                  </g>
                  <g id="shading" inkscape:label="shading" transform="matrix(1.0, 0.0, 0.0, 1.0, 256.325, 349.158)" opacity="0.35" style="fill-opacity:1.0;fill:url(#radialGradient_18);fill-rule:nonzero">
                     <path d="M -236.504,-84.853 C -141.08599999999998,-49.00899999999999 -106.406,40.693999999999996 -6.807,84.192 C 56.308,111.756 105.38300000000001,90.598 134.245,62.623 C 184.0,14.396 198.749,-76.54599999999999 247.183,-89.216 C 247.183,-89.216 213.81199999999998,-76.831 173.76,-58.142 C 137.611,-41.275000000000006 88.14099999999999,-11.651000000000003 18.287,-50.27 C -74.49199999999999,-101.563 -115.441,-96.355 -169.62,-95.64 C -209.211,-95.117 -236.504,-84.853 -236.504,-84.853 Z" id="path_19" inkscape:label="Path 1" style="fill-opacity:1.0;fill:url(#radialGradient_20);fill-rule:nonzero"/>
                  </g>
                  <g id="high" inkscape:label="high" transform="matrix(1.0, 0.0, 0.0, 1.0, 258.135, 311.608)" opacity="0.3" style="stroke:url(#linearGradient_21);stroke-opacity:1.0;stroke-width:19.315;stroke-miterlimit:0;stroke-linecap:round;stroke-linejoin:round">
                     <path d="M 148.60557599999999,6.411040000000005 C 115.19763999999998,21.394880000000004 72.36019999999999,34.1752 16.477,3.28 C -76.30199999999999,-48.013 -117.251,-42.80500000000001 -171.43,-42.09 C -202.11302499999996,-41.684675 -225.40956374999996,-35.42806125000001 -234.33967804687495,-32.63310464062501 " style=""/>
                  </g>
                  <g id="shade" inkscape:label="shade" transform="matrix(1.0, 0.0, 0.0, 1.0, 224.524, 349.22)" opacity="0.35" style="fill-opacity:1.0;fill:url(#linearGradient_22);fill-rule:nonzero">
                     <path d="M 278.515,-90.096 C 229.976,-76.72 215.72500000000002,15.030000000000001 166.157,61.719 C 137.204,88.99000000000001 88.119,111.61500000000001 24.995,84.132 C -78.024,39.28000000000001 -109.52399999999999,-49.22 -200.265,-83.211 C -200.265,-83.211 -177.415,-95.181 -137.815,-95.702 C -93.265,-96.29599999999999 -64.024,-109.22 50.039,-50.339 C -41.024,-91.72 -83.524,-52.72 -50.495,-11.213 C -36.32899999999999,6.589 64.476,110.28 161.993,50.349 C 217.576,16.189 230.476,-76.72 278.515,-90.096 Z" id="path_23" inkscape:label="Path 1" style="fill-opacity:1.0;fill:url(#linearGradient_24);fill-rule:nonzero"/>
                  </g>
                  <g id="outl" inkscape:label="outl" transform="matrix(1.0, 0.0, 0.0, 1.0, 258.789, 349.632)" style="stroke:url(#linearGradient_26);stroke-opacity:1.0;stroke-width:19.315;stroke-miterlimit:0;stroke-linecap:round;stroke-linejoin:round">
                     <path d="M -238.969,-85.326 C -143.551,-49.48199999999999 -108.87,40.220000000000006 -9.271,83.718 C 53.844,111.28200000000001 102.918,90.124 131.78,62.149 C 181.535,13.922000000000004 196.285,-77.01899999999999 244.719,-89.689 C 244.719,-89.689 211.34799999999998,-77.305 171.296,-58.616 C 135.147,-41.748999999999995 85.67699999999999,-12.125 15.823,-50.744 C -76.95599999999999,-102.037 -117.906,-96.82900000000001 -172.085,-96.114 C -211.67600000000002,-95.59100000000001 -238.969,-85.326 -238.969,-85.326 Z" id="path_25" inkscape:label="Path 1" style=""/>
                  </g>
                  <g id="spot" inkscape:label="spot" transform="matrix(1.0, 0.0, 0.0, 1.0, 0.0, 0.0)" style="">
                     <g id="Group_2" inkscape:label="Group 2" transform="matrix(1.0, 0.0, 0.0, 1.0, 224.063, 310.201)" style="fill-opacity:1.0;fill:rgb(255, 255, 255);fill-rule:nonzero">
                        <path d="M 3.756,-12.943 C 15.338000000000001,-8.276 23.045,1.3030000000000008 20.971,8.451 C 18.897,15.599 7.8260000000000005,17.61 -3.756,12.943 C -15.338000000000001,8.276 -23.045,-1.3030000000000008 -20.971,-8.451 C -18.897,-15.599 -7.8260000000000005,-17.61 3.756,-12.943 Z" id="path_27" inkscape:label="Path 1" style="fill-opacity:1.0;fill:rgb(255, 255, 255);fill-rule:nonzero"/>
                     </g>
                     <g id="g_28" inkscape:label="Group 1" transform="matrix(1.0, 0.0, 0.0, 1.0, 267.339, 338.733)" style="fill-opacity:1.0;fill:rgb(255, 255, 255);fill-rule:nonzero">
                        <path d="M 1.726,-5.947 C 7.047,-3.803 10.588,0.5990000000000002 9.635,3.883 C 8.682,7.167 3.5949999999999998,8.091000000000001 -1.726,5.947 C -7.047,3.803 -10.588,-0.5990000000000002 -9.635,-3.883 C -8.682,-7.167 -3.5949999999999998,-8.091000000000001 1.726,-5.947 Z" id="path_29" inkscape:label="Path 1" style="fill-opacity:1.0;fill:rgb(255, 255, 255);fill-rule:nonzero"/>
                     </g>
                  </g>
               </g>
               <g inkscape:groupmode="layer" id="toplip" inkscape:label="toplip" transform="matrix(1.0, 0.0, 0.0, 1.0, -264.392, -241.39600000000002)" style="">
                  <g id="g_30" inkscape:label="fill" transform="matrix(1.0, 0.0, 0.0, 1.0, 256.89, 165.435)" style="fill-opacity:1.0;fill:url(#linearGradient_31);fill-rule:nonzero">
                     <path d="M -241.971,96.232 C -250.337,89.203 -202.34799999999998,38.602000000000004 -156.969,-9.538 C -114.249,-54.857 -85.39,-98.935 -51.884,-98.874 C -26.373,-98.82799999999999 -20.89,-83.374 2.49,-82.658 C 26.11,-81.935 30.038000000000004,-98.964 57.496,-98.951 C 91.11,-98.93499999999999 116.10900000000001,-62.935 153.484,-14.604 C 207.33800000000002,55.038 258.11,89.56500000000001 245.42,95.406 C 218.23,107.92200000000001 106.607,14.21 -2.908,11.48 C -139.89,8.065000000000001 -215.39000000000001,118.565 -241.971,96.232 Z" id="path_32" inkscape:label="Path 1" style="fill-opacity:1.0;fill:url(#linearGradient_33);fill-rule:nonzero"/>
                  </g>
                  <g id="g_34" inkscape:label="shade" transform="matrix(1.0, 0.0, 0.0, 1.0, 256.914, 165.435)" opacity="0.35" style="fill-opacity:1.0;fill:url(#radialGradient_35);fill-rule:nonzero">
                     <path d="M -241.995,96.232 C -250.361,89.203 -202.37099999999998,38.602000000000004 -156.992,-9.538 C -114.27199999999999,-54.857 -85.414,-98.935 -51.908,-98.874 C -26.397000000000002,-98.82799999999999 -20.913999999999998,-83.374 2.466,-82.658 C 26.086000000000002,-81.935 30.014000000000003,-98.964 57.472,-98.951 C 91.086,-98.93499999999999 116.08600000000001,-62.935 153.461,-14.604 C 207.315,55.038 258.086,89.56500000000001 245.396,95.406 C 218.206,107.92200000000001 106.583,14.21 -2.932,11.48 C -139.914,8.065000000000001 -215.41400000000002,118.565 -241.995,96.232 Z" id="path_36" inkscape:label="Path 1" style="fill-opacity:1.0;fill:url(#radialGradient_37);fill-rule:nonzero"/>
                  </g>
                  <g id="highlight" inkscape:label="highlight" transform="matrix(1.0, 0.0, 0.0, 1.0, 255.448, 192.111)" opacity="0.35" style="stroke:url(#linearGradient_38);stroke-opacity:1.0;stroke-width:19.315;stroke-miterlimit:0;stroke-linecap:round;stroke-linejoin:round">
                     <path d="M -227.29155999999995,59.152752 C -210.92139999999995,38.43996 -182.75439999999998,8.670000000000002 -155.527,-20.214 C -112.80699999999999,-65.533 -83.94800000000001,-109.611 -50.442,-109.55 C -24.931,-109.50399999999999 -19.448,-94.05 3.932,-93.334 C 24.56842105263159,-92.70232631578948 30.173463933518015,-105.62118204986152 49.572062556057766,-108.88630199970842 " style=""/>
                  </g>
                  <g id="g_39" inkscape:label="high" transform="matrix(1.0, 0.0, 0.0, 1.0, 325.64, 103.464)" style="fill-opacity:1.0;fill:rgb(255, 255, 255);fill-rule:nonzero">
                     <path d="M 2.113,-7.282 C 8.629,-4.656000000000001 12.966,0.7329999999999997 11.799,4.755 C 10.632,8.777000000000001 4.4030000000000005,9.908 -2.113,7.282 C -8.629,4.656000000000001 -12.965,-0.7329999999999997 -11.798,-4.755 C -10.631,-8.777000000000001 -4.4030000000000005,-9.908 2.113,-7.282 Z" id="path_40" inkscape:label="Path 1" style="fill-opacity:1.0;fill:rgb(255, 255, 255);fill-rule:nonzero"/>
                  </g>
                  <g id="g_41" inkscape:label="outl" transform="matrix(1.0, 0.0, 0.0, 1.0, 256.904, 169.403)" style="stroke:url(#linearGradient_43);stroke-opacity:1.0;stroke-width:19.315;stroke-miterlimit:0;stroke-linecap:round;stroke-linejoin:round">
                     <path d="M -241.985,92.265 C -250.351,85.236 -202.362,34.635 -156.983,-13.505 C -114.263,-58.824000000000005 -85.404,-102.903 -51.898,-102.842 C -26.387000000000004,-102.79599999999999 -20.904,-87.342 2.476,-86.626 C 26.096,-85.903 30.024,-102.932 57.482,-102.919 C 91.096,-102.90299999999999 116.095,-66.902 153.47,-18.571 C 207.324,51.071 258.096,85.598 245.406,91.439 C 218.216,103.955 106.593,10.241999999999999 -2.922,7.512 C -139.904,4.0969999999999995 -215.40400000000002,114.598 -241.985,92.265 Z" id="path_42" inkscape:label="Path 1" style=""/>
                  </g>
               </g>
            </g>
            <g inkscape:groupmode="layer" id="tonque" inkscape:label="tonque" transform="matrix(1.0, 0.0, 0.0, 1.0, -230.0, -208.0)" opacity="0.0" style="">
               <g id="Group_6" inkscape:label="Group 6" transform="matrix(1.0, 0.0, 0.0, 1.0, 239.001, 328.447)" style="fill-opacity:1.0;fill:url(#linearGradient_44);fill-rule:nonzero">
                  <path d="M 100.808,-137.982 C 100.808,-137.982 96.827,-139.322 88.381,-140.781 C 79.791,-142.26500000000001 66.779,-144.02700000000002 49.439,-145.252 C 33.589,-146.372 14.122000000000002,-147.042 -8.891,-146.642 C -30.104999999999997,-147.447 -50.286,-146.423 -67.09,-144.787 C -79.406,-143.588 -89.909,-142.062 -97.674,-140.686 C -106.748,-139.079 -112.214,-137.249 -112.214,-137.249 C -113.057,-134.447 -89.237,-139.419 -73.97,-140.33 C -60.619,-141.126 -60,-141.173 -60,-141.173 C -60,-141.173 -27.875,-141.812 -9.916,-141.69 C -9.916,-141.69 20.593,-141.367 42.71,-140.523 C 42.71,-140.523 38.67,-140.675 55.687,-140.008 C 68.59,-139.502 98.245,-135.994 100.808,-137.982 Z" id="path_45" inkscape:label="Path 1" style="fill-opacity:1.0;fill:url(#linearGradient_46);fill-rule:nonzero"/>
               </g>
               <g id="Group_5" inkscape:label="Group 5" transform="matrix(1.0, 0.0, 0.0, 1.0, 213.196, 209.636)" style="stroke:rgb(140, 198, 63);stroke-opacity:1.0;stroke-width:18.0;stroke-miterlimit:0;stroke-linecap:round;stroke-linejoin:round">
                  <path d="M 19.51268,-27.514139999999998 C 19.51268,-27.514139999999998 19.17836,-26.85978 19.17836,-26.85978 " style=""/>
               </g>
               <g id="Group_7" inkscape:label="Group 7" transform="matrix(1.0, 0.0, 0.0, 1.0, 239.001, 348.447)" opacity="0.0" style="stroke:rgb(255, 255, 255);stroke-opacity:1.0;stroke-width:18.0;stroke-miterlimit:0;stroke-linecap:round;stroke-linejoin:round">
                  <path d="M 94.46844147200001,-139.63529510400002 C 92.7756784,-139.9848928 90.74588,-140.37248 88.381,-140.781 C 79.791,-142.26500000000001 66.779,-144.02700000000002 49.439,-145.252 C 33.589,-146.372 14.122000000000002,-147.042 -8.891,-146.642 C -30.104999999999997,-147.447 -50.286,-146.423 -67.09,-144.787 C -77.57170212765959,-143.76657446808508 -86.74023087369854,-142.50929968311453 -94.02538503029197,-141.30921453820443 " style=""/>
               </g>
               <g id="Group_4" inkscape:label="Group 4" transform="matrix(1.0, 0.0, 0.0, 1.0, 239.001, 328.447)" style="stroke:url(#linearGradient_48);stroke-opacity:1.0;stroke-width:18.0;stroke-miterlimit:0;stroke-linecap:round;stroke-linejoin:round">
                  <path d="M 100.808,-137.982 C 100.808,-137.982 96.827,-139.322 88.381,-140.781 C 79.791,-142.26500000000001 66.779,-144.02700000000002 49.439,-145.252 C 33.589,-146.372 14.122000000000002,-147.042 -8.891,-146.642 C -30.104999999999997,-147.447 -50.286,-146.423 -67.09,-144.787 C -79.406,-143.588 -89.909,-142.062 -97.674,-140.686 C -106.748,-139.079 -112.214,-137.249 -112.214,-137.249 C -113.057,-134.447 -89.237,-139.419 -73.97,-140.33 C -60.619,-141.126 -60,-141.173 -60,-141.173 C -60,-141.173 -27.875,-141.812 -9.916,-141.69 C -9.916,-141.69 20.593,-141.367 42.71,-140.523 C 42.71,-140.523 38.67,-140.675 55.687,-140.008 C 68.59,-139.502 98.245,-135.994 100.808,-137.982 Z" id="path_47" inkscape:label="Path 1" style=""/>
               </g>
            </g>
         </g>
      </g>
   </g>
   <g inkscape:groupmode="layer" id="g_49" transform="matrix(1.0, 0.0, 0.0, 1.0, 0.0, 0.0)" inkscape:label="ShapeLayer" style="fill-opacity:1.0;fill:rgb(11, 165, 249);fill-rule:nonzero">
      <path d="M 444.564,97.593 C 444.564,97.593 444.564,176.537 444.564,176.537 C 444.564,176.537 279.624,12.063 279.624,12.063 C 279.624,12.063 356.738,12.063 356.738,12.063 C 356.738,12.063 444.564,97.593 444.564,97.593 Z" style="fill-opacity:1.0;fill:rgb(11, 165, 249);fill-rule:nonzero"/>
   </g>
   <g inkscape:groupmode="layer" id="g_50" transform="matrix(0.7071067811865476, 0.7071067811865476, -0.7071067811865476, 0.7071067811865476, 308.5579592944806, -84.96771007156353)" inkscape:label="ShapeLayer" style="fill-opacity:1.0;fill:rgb(255, 255, 255);fill-rule:nonzero">
      <g id="g_51" transform="matrix(1.0, 0.0, 0.0, 1.0, 107.769, 75.894)" style="">
         <g id="g_52" transform="matrix(1.0, 0.0, 0.0, 1.0, 0.0, 0.0)" style="">
            <g id="g_53" transform="matrix(1.0, 0.0, 0.0, 1.0, 0.0, 0.0)" style="">
               <path d="M 96.192,-9.918 C 96.192,-12.965 96.87599999999999,-15.392000000000001 98.243,-17.199 C 99.61,-19.006 101.47999999999999,-19.909 103.853,-19.909 C 105.756,-19.909 107.327,-19.198 108.568,-17.777 C 108.568,-17.777 108.568,-27.75 108.568,-27.75 C 108.568,-27.75 113.807,-27.75 113.807,-27.75 C 113.807,-27.75 113.807,0 113.807,0 C 113.807,0 109.092,0 109.092,0 C 109.092,0 108.839,-2.078 108.839,-2.078 C 107.538,-0.45199999999999996 105.864,0.361 103.816,0.361 C 101.516,0.361 99.67,-0.5450000000000002 98.279,-2.358 C 96.88799999999999,-4.171 96.192,-6.6899999999999995 96.192,-9.918 C 96.192,-9.918 96.192,-9.918 96.192,-9.918 Z
M 101.414,-9.53 C 101.414,-7.696 101.73299999999999,-6.291 102.371,-5.314 C 103.009,-4.337 103.93700000000001,-3.848 105.153,-3.848 C 106.76700000000001,-3.848 107.90599999999999,-4.529999999999999 108.568,-5.893 C 108.568,-5.893 108.568,-13.619 108.568,-13.619 C 107.91799999999999,-14.982 106.791,-15.664 105.189,-15.664 C 102.672,-15.664 101.414,-13.619 101.414,-9.53 " style=""/>
            </g>
            <g id="g_54" transform="matrix(1.0, 0.0, 0.0, 1.0, 0.0, 0.0)" style="">
               <path d="M 86.002,0.361 C 83.13499999999999,0.361 80.803,-0.5179999999999998 79.002,-2.276 C 77.201,-4.034 76.301,-6.377000000000001 76.301,-9.304 C 76.301,-9.304 76.301,-9.81 76.301,-9.81 C 76.301,-11.773 76.67999999999999,-13.528 77.439,-15.076 C 78.198,-16.624000000000002 79.273,-17.817 80.664,-18.654 C 82.055,-19.491 83.641,-19.909 85.424,-19.909 C 88.09800000000001,-19.909 90.203,-19.066 91.739,-17.38 C 93.275,-15.693999999999999 94.042,-13.303 94.042,-10.208 C 94.042,-10.208 94.042,-8.076 94.042,-8.076 C 94.042,-8.076 81.594,-8.076 81.594,-8.076 C 81.76299999999999,-6.799 82.27199999999999,-5.7749999999999995 83.121,-5.004 C 83.97,-4.233 85.045,-3.848 86.346,-3.848 C 88.357,-3.848 89.929,-4.577 91.061,-6.034 C 91.061,-6.034 93.626,-3.162 93.626,-3.162 C 92.843,-2.054 91.784,-1.189 90.447,-0.569 C 89.11,0.051000000000000045 87.628,0.361 86.002,0.361 C 86.002,0.361 86.002,0.361 86.002,0.361 Z
M 85.406,-15.7 C 84.37,-15.7 83.53,-15.349 82.886,-14.647 C 82.24199999999999,-13.945 81.829,-12.942 81.648,-11.635 C 81.648,-11.635 88.911,-11.635 88.911,-11.635 C 88.911,-11.635 88.911,-12.052 88.911,-12.052 C 88.887,-13.213 88.574,-14.112 87.972,-14.747 C 87.36999999999999,-15.382 86.51400000000001,-15.7 85.406,-15.7 " style=""/>
            </g>
            <path d="M 70.256,-24.354 C 70.256,-24.354 70.256,-19.548 70.256,-19.548 C 70.256,-19.548 73.599,-19.548 73.599,-19.548 C 73.599,-19.548 73.599,-15.718 73.599,-15.718 C 73.599,-15.718 70.256,-15.718 70.256,-15.718 C 70.256,-15.718 70.256,-5.962 70.256,-5.962 C 70.256,-5.239 70.672,-4.408 70.672,-4.408 C 70.672,-4.408 71.479,-3.938 72.262,-3.938 C 72.84,-3.938 73.797,-4.065 73.797,-4.065 C 73.797,-4.065 73.797,-0.108 73.797,-0.108 C 72.773,0.20500000000000002 71.72,0.361 70.636,0.361 C 66.975,0.361 65.107,-1.4869999999999997 65.035,-5.185 C 65.035,-5.185 65.035,-15.718 65.035,-15.718 C 65.035,-15.718 62.181,-15.718 62.181,-15.718 C 62.181,-15.718 62.181,-19.548 62.181,-19.548 C 62.181,-19.548 65.035,-19.548 65.035,-19.548 C 65.035,-19.548 65.035,-24.354 65.035,-24.354 C 65.035,-24.354 70.256,-24.354 70.256,-24.354 " id="path_55" style=""/>
            <g id="g_56" transform="matrix(1.0, 0.0, 0.0, 1.0, 0.0, 0.0)" style="">
               <path d="M 59.516,0 C 59.516,0 54.276,0 54.276,0 C 54.276,0 54.276,-19.548 54.276,-19.548 C 54.276,-19.548 59.516,-19.548 59.516,-19.548 C 59.516,-19.548 59.516,0 59.516,0 C 59.516,0 59.516,0 59.516,0 Z
M 53.969,-24.606 C 53.969,-25.389000000000003 54.231,-26.034 54.755,-26.54 C 55.279,-27.046 55.993,-27.298 56.896,-27.298 C 57.787,-27.298 58.498,-27.046 59.028,-26.54 C 59.558,-26.034 59.823,-25.389000000000003 59.823,-24.606 C 59.823,-23.811 59.555,-23.161 59.019,-22.655 C 58.483,-22.149 57.775,-21.896 56.896,-21.896 C 56.017,-21.896 55.309000000000005,-22.149 54.773,-22.655 C 54.237,-23.161 53.969,-23.811 53.969,-24.606 " style=""/>
            </g>
            <path d="M 26.901,-19.548 C 26.901,-19.548 27.064,-17.362 27.064,-17.362 C 28.449,-19.06 30.322,-19.909 32.683,-19.909 C 35.2,-19.909 36.929,-18.915 37.868,-16.928 C 39.241,-18.915 41.198,-19.909 43.739,-19.909 C 45.858999999999995,-19.909 47.437,-19.291999999999998 48.473,-18.057 C 49.509,-16.822 50.026,-14.965 50.026,-12.484 C 50.026,-12.484 50.026,0 50.026,0 C 50.026,0 44.787,0 44.787,0 C 44.787,0 44.787,-12.466 44.787,-12.466 C 44.787,-13.574 44.571,-14.384 44.137,-14.896 C 43.703,-15.408000000000001 42.938,-15.664 41.842,-15.664 C 40.275999999999996,-15.664 39.192,-14.916 38.59,-13.423 C 38.59,-13.423 38.608,0 38.608,0 C 38.608,0 33.387,0 33.387,0 C 33.387,0 33.387,-12.448 33.387,-12.448 C 33.387,-13.58 33.165,-14.399 32.719,-14.905 C 32.273,-15.411 31.514,-15.664 30.442,-15.664 C 28.961,-15.664 27.889,-15.05 27.227,-13.821 C 27.227,-13.821 27.227,0 27.227,0 C 27.227,0 22.005,0 22.005,0 C 22.005,0 22.005,-19.548 22.005,-19.548 C 22.005,-19.548 26.901,-19.548 26.901,-19.548 " id="path_57" style=""/>
            <g id="g_58" transform="matrix(1.0, 0.0, 0.0, 1.0, 0.0, 0.0)" style="">
               <path d="M 17.516,0 C 17.516,0 12.276,0 12.276,0 C 12.276,0 12.276,-19.548 12.276,-19.548 C 12.276,-19.548 17.516,-19.548 17.516,-19.548 C 17.516,-19.548 17.516,0 17.516,0 C 17.516,0 17.516,0 17.516,0 Z
M 11.969,-24.606 C 11.969,-25.389000000000003 12.231000000000002,-26.034 12.755,-26.54 C 13.279,-27.046 13.993,-27.298 14.896,-27.298 C 15.787,-27.298 16.497999999999998,-27.046 17.028,-26.54 C 17.558,-26.034 17.823,-25.389000000000003 17.823,-24.606 C 17.823,-23.811 17.555,-23.161 17.019,-22.655 C 16.482999999999997,-22.149 15.775,-21.896 14.896,-21.896 C 14.017000000000001,-21.896 13.309,-22.149 12.773,-22.655 C 12.237,-23.161 11.969,-23.811 11.969,-24.606 " style=""/>
            </g>
            <path d="M 7.516,0 C 7.516,0 2.276,0 2.276,0 C 2.276,0 2.276,-27.75 2.276,-27.75 C 2.276,-27.75 7.516,-27.75 7.516,-27.75 C 7.516,-27.75 7.516,0 7.516,0 " id="path_59" style=""/>
         </g>
      </g>
   </g>
   <g inkscape:groupmode="layer" id="g_60" transform="matrix(0.39, 0.0, 0.0, 0.39, 150.16, 277.15999999999997)" mask="url(#id_61)" inkscape:label="PreCompLayer">
      <g inkscape:groupmode="layer" id="g_62" transform="matrix(0.1, 0.0, 0.0, 0.1, 242.227, 321.038)" inkscape:label="ShapeLayer" style="">
         <g id="g_63" transform="matrix(0.9884542529438459, 0.1515196021550462, -0.1515196021550462, 0.9884542529438459, 25.0, -48.0)" style="fill-opacity:1.0;fill:rgb(254, 189, 37);fill-rule:nonzero;stroke:url(#linearGradient_64);stroke-opacity:1.0;stroke-width:6.0;stroke-miterlimit:0.0;stroke-linecap:round;stroke-linejoin:round">
            <path d="M 270.5,86 C 270.5,86 271.852,120.30799999999999 265.051,131.279 C 258.25,142.25 233,151 233,151 C 233,151 259.214,146.382 270.803,155.917 C 278.5,162.25 289.25,196.75 289.25,196.75 C 289.25,196.75 286.5,163.0 292.858,152.549 C 298.77,142.832 326,132 326,132 C 326,132 301.15200000000004,137.212 290.326,129.856 C 279.5,122.5 270.5,86 270.5,86 Z" style="fill-opacity:1.0;fill:rgb(254, 189, 37);fill-rule:nonzero"/>
         </g>
      </g>
      <g inkscape:groupmode="layer" id="g_65" transform="matrix(0.1, 0.0, 0.0, 0.1, 215.65900000000002, 352.575)" inkscape:label="ShapeLayer" style="">
         <g id="g_66" transform="matrix(1.0, 0.0, 0.0, 1.0, -562.0, 98.0)" style="fill-opacity:1.0;fill:rgb(254, 189, 37);fill-rule:nonzero;stroke:url(#linearGradient_67);stroke-opacity:1.0;stroke-width:6.0;stroke-miterlimit:0.0;stroke-linecap:round;stroke-linejoin:round">
            <path d="M 277.824,67.295 C 277.824,67.295 274.11499999999995,110.44999999999999 263.876,123.112 C 253.63699999999997,135.774 220.655,142.751 220.655,142.751 C 220.655,142.751 254.19299999999998,141.09699999999998 267.198,154.856 C 275.83599999999996,163.994 283.861,208.869 283.861,208.869 C 283.861,208.869 285.73199999999997,166.19299999999998 295.335,154.112 C 304.26399999999995,142.88 340.052,133.608 340.052,133.608 C 340.052,133.608 308.13,136.221 295.737,125.309 C 283.34400000000005,114.39699999999999 277.824,67.295 277.824,67.295 Z" style="fill-opacity:1.0;fill:rgb(254, 189, 37);fill-rule:nonzero"/>
         </g>
      </g>
      <g inkscape:groupmode="layer" id="g_68" transform="matrix(0.1, 0.0, 0.0, 0.1, 234.698, 319.733)" inkscape:label="ShapeLayer" style="">
         <g id="g_69" transform="matrix(1.0, 0.0, 0.0, 1.0, -620.0, -177.0)" style="fill-opacity:1.0;fill:rgb(254, 189, 37);fill-rule:nonzero;stroke:url(#linearGradient_70);stroke-opacity:1.0;stroke-width:6.0;stroke-miterlimit:0.0;stroke-linecap:round;stroke-linejoin:round">
            <path d="M 254.002,85 C 254.002,85 251.255,116.967 243.671,126.346 C 236.087,135.725 211.655,140.893 211.655,140.893 C 211.655,140.893 236.497,139.668 246.131,149.86 C 252.529,156.62900000000002 258.474,189.869 258.474,189.869 C 258.474,189.869 259.85900000000004,158.257 266.973,149.308 C 273.587,140.988 300.097,134.12 300.097,134.12 C 300.097,134.12 276.451,136.056 267.271,127.973 C 258.091,119.89 254.002,85 254.002,85 Z" style="fill-opacity:1.0;fill:rgb(254, 189, 37);fill-rule:nonzero"/>
         </g>
      </g>
      <g inkscape:groupmode="layer" id="g_71" transform="matrix(0.1, 0.0, 0.0, 0.1, 210.841, 313.61699999999996)" inkscape:label="ShapeLayer" style="">
         <g id="g_72" transform="matrix(1.0, 0.0, 0.0, 1.0, -528.87, -366.957)" style="fill-opacity:1.0;fill:rgb(254, 189, 37);fill-rule:nonzero;stroke:url(#linearGradient_73);stroke-opacity:1.0;stroke-width:6.0;stroke-miterlimit:0.0;stroke-linecap:round;stroke-linejoin:round">
            <path d="M 277.521,82 C 277.521,82 274.64300000000003,115.49099999999999 266.697,125.317 C 258.751,135.143 233.155,140.558 233.155,140.558 C 233.155,140.558 259.18199999999996,139.274 269.275,149.952 C 275.97799999999995,157.044 282.206,191.869 282.206,191.869 C 282.206,191.869 283.658,158.749 291.111,149.374 C 298.03999999999996,140.65699999999998 325.813,133.462 325.813,133.462 C 325.813,133.462 301.041,135.49 291.423,127.022 C 281.805,118.554 277.521,82 277.521,82 Z" style="fill-opacity:1.0;fill:rgb(254, 189, 37);fill-rule:nonzero"/>
         </g>
      </g>
      <g inkscape:groupmode="layer" id="g_74" transform="matrix(0.1, 0.0, 0.0, 0.1, 346.501, 344.63300000000004)" inkscape:label="ShapeLayer" style="">
         <g id="g_75" transform="matrix(1.0, 0.0, 0.0, 1.0, -35.5, -397.5)" style="fill-opacity:1.0;fill:rgb(254, 189, 37);fill-rule:nonzero;stroke:url(#linearGradient_76);stroke-opacity:1.0;stroke-width:6.0;stroke-miterlimit:0.0;stroke-linecap:round;stroke-linejoin:round">
            <path d="M 277.201,91.817 C 277.201,91.817 273.139,117.919 266.38,125.194 C 259.621,132.469 239.262,135.335 239.262,135.335 C 239.262,135.335 259.736,135.732 267.073,144.647 C 271.94599999999997,150.56799999999998 274.952,178.206 274.952,178.206 C 274.952,178.206 277.875,152.31900000000002 284.223,145.37 C 290.125,138.909 312.288,134.766 312.288,134.766 C 312.288,134.766 292.757,135.02 285.673,127.863 C 278.589,120.706 277.201,91.817 277.201,91.817 Z" style="fill-opacity:1.0;fill:rgb(254, 189, 37);fill-rule:nonzero"/>
         </g>
      </g>
      <g inkscape:groupmode="layer" id="g_77" transform="matrix(0.1, 0.0, 0.0, 0.1, 199.9496, 304.6282)" inkscape:label="ShapeLayer" style="">
         <g id="g_78" transform="matrix(1.0, 0.0, 0.0, 1.0, -129.962, -373.543)" style="fill-opacity:1.0;fill:rgb(254, 189, 37);fill-rule:nonzero;stroke:url(#linearGradient_79);stroke-opacity:1.0;stroke-width:6.0;stroke-miterlimit:0.0;stroke-linecap:round;stroke-linejoin:round">
            <path d="M -130.799,514.817 C -130.799,514.817 -134.861,540.919 -141.62,548.194 C -148.37900000000002,555.4689999999999 -168.738,558.335 -168.738,558.335 C -168.738,558.335 -148.26399999999998,558.7320000000001 -140.927,567.647 C -136.054,573.5680000000001 -133.048,601.206 -133.048,601.206 C -133.048,601.206 -130.125,575.319 -123.777,568.37 C -117.875,561.909 -95.712,557.766 -95.712,557.766 C -95.712,557.766 -115.243,558.0200000000001 -122.327,550.863 C -129.411,543.706 -130.799,514.817 -130.799,514.817 Z" style="fill-opacity:1.0;fill:rgb(254, 189, 37);fill-rule:nonzero"/>
         </g>
      </g>
      <g inkscape:groupmode="layer" id="g_80" transform="matrix(0.1, 0.0, 0.0, 0.1, 323.39799999999997, 386.306)" inkscape:label="ShapeLayer" style="">
         <g id="g_81" transform="matrix(1.0, 0.0, 0.0, 1.0, -139.0, 295.0)" style="fill-opacity:1.0;fill:rgb(254, 189, 37);fill-rule:nonzero;stroke:url(#linearGradient_82);stroke-opacity:1.0;stroke-width:6.0;stroke-miterlimit:0.0;stroke-linecap:round;stroke-linejoin:round">
            <path d="M 278.628,54 C 278.628,54 276.17400000000004,80.97399999999999 269.732,88.859 C 263.29,96.744 242.644,101.005 242.644,101.005 C 242.644,101.005 263.621,100.076 271.71,108.72 C 277.08299999999997,114.461 281.961,142.547 281.961,142.547 C 281.961,142.547 283.264,115.866 289.307,108.342 C 294.92600000000004,101.346 317.333,95.66 317.333,95.66 C 317.333,95.66 297.36400000000003,97.195 289.648,90.333 C 281.932,83.471 278.628,54 278.628,54 Z" style="fill-opacity:1.0;fill:rgb(254, 189, 37);fill-rule:nonzero"/>
         </g>
      </g>
      <g inkscape:groupmode="layer" id="g_83" transform="matrix(0.1, 0.0, 0.0, 0.1, 400.152, 280.072)" inkscape:label="ShapeLayer" style="">
         <g id="g_84" transform="matrix(1.0, 0.0, 0.0, 1.0, 90.5, -82.5)" style="fill-opacity:1.0;fill:url(#linearGradient_85);fill-rule:nonzero;stroke:url(#linearGradient_87);stroke-opacity:1.0;stroke-width:6.0;stroke-miterlimit:0.0;stroke-linecap:round;stroke-linejoin:round">
            <path d="M 288.968,74.285 C 288.968,74.285 287.16299999999995,96.844 281.852,103.491 C 276.541,110.138 259.33,113.885 259.33,113.885 C 259.33,113.885 276.848,112.91799999999999 283.685,120.067 C 288.226,124.815 292.557,148.236 292.557,148.236 C 292.557,148.236 293.402,125.93199999999999 298.383,119.591 C 303.014,113.695 321.684,108.741 321.684,108.741 C 321.684,108.741 305.015,110.204 298.506,104.541 C 291.99699999999996,98.878 288.968,74.285 288.968,74.285 Z" style="fill-opacity:1.0;fill:url(#linearGradient_86);fill-rule:nonzero"/>
         </g>
      </g>
      <g inkscape:groupmode="layer" id="g_88" transform="matrix(0.1, 0.0, 0.0, 0.1, 266.558, 334.923)" inkscape:label="ShapeLayer" style="">
         <g id="g_89" transform="matrix(1.0, 0.0, 0.0, 1.0, 0.0, 0.0)" style="fill-opacity:1.0;fill:rgb(254, 189, 37);fill-rule:nonzero;stroke:url(#linearGradient_90);stroke-opacity:1.0;stroke-width:6.0;stroke-miterlimit:0.0;stroke-linecap:round;stroke-linejoin:round">
            <path d="M 402.24,-170.27 C 402.24,-170.27 401.718,-139.167 389.012,-126.139 C 376.306,-113.11099999999999 351.411,-110.943 351.411,-110.943 C 351.411,-110.943 380.924,-109.19699999999999 388.811,-99.689 C 395.539,-91.579 400.513,-56.021 400.513,-56.021 C 400.513,-56.021 404.87199999999996,-87.47 412.364,-98.225 C 419.72799999999995,-108.79599999999999 454.324,-108.745 454.324,-108.745 C 454.324,-108.745 425.57099999999997,-111.135 414.64,-124.048 C 403.709,-136.961 402.24,-170.27 402.24,-170.27 Z" style="fill-opacity:1.0;fill:rgb(254, 189, 37);fill-rule:nonzero"/>
         </g>
      </g>
      <g inkscape:groupmode="layer" id="g_91" transform="matrix(0.1, 0.0, 0.0, 0.1, 242.446, 346.394)" inkscape:label="ShapeLayer" style="">
         <g id="g_92" transform="matrix(1.0, 0.0, 0.0, 1.0, 0.0, 0.0)" style="fill-opacity:1.0;fill:rgb(254, 189, 37);fill-rule:nonzero;stroke:url(#linearGradient_93);stroke-opacity:1.0;stroke-width:6.0;stroke-miterlimit:0.0;stroke-linecap:round;stroke-linejoin:round">
            <path d="M -198,400 C -198,400 -196.54000000000002,422.054 -204.77,432.027 C -213.0,442.0 -230.5,445 -230.5,445 C -230.5,445 -209.5,444.5 -203.356,450.768 C -198.115,456.11499999999995 -192.5,481 -192.5,481 C -192.5,481 -191.264,458.474 -186.592,450.418 C -182.0,442.5 -157.5,440.5 -157.5,440.5 C -157.5,440.5 -178.0,440.5 -186.5,432 C -195.0,423.5 -198,400 -198,400 Z" style="fill-opacity:1.0;fill:rgb(254, 189, 37);fill-rule:nonzero"/>
         </g>
      </g>
      <g inkscape:groupmode="layer" id="g_94" transform="matrix(0.1, 0.0, 0.0, 0.1, 335.982, 326.096)" inkscape:label="ShapeLayer" style="">
         <g id="g_95" transform="matrix(0.9884542529438459, 0.1515196021550462, -0.1515196021550462, 0.9884542529438459, 25.0, -48.0)" style="fill-opacity:1.0;fill:rgb(254, 189, 37);fill-rule:nonzero;stroke:url(#linearGradient_96);stroke-opacity:1.0;stroke-width:6.0;stroke-miterlimit:0.0;stroke-linecap:round;stroke-linejoin:round">
            <path d="M 270.5,86 C 270.5,86 271.852,120.30799999999999 265.051,131.279 C 258.25,142.25 233,151 233,151 C 233,151 259.214,146.382 270.803,155.917 C 278.5,162.25 289.25,196.75 289.25,196.75 C 289.25,196.75 286.5,163.0 292.858,152.549 C 298.77,142.832 326,132 326,132 C 326,132 301.15200000000004,137.212 290.326,129.856 C 279.5,122.5 270.5,86 270.5,86 Z" style="fill-opacity:1.0;fill:rgb(254, 189, 37);fill-rule:nonzero"/>
         </g>
      </g>
      <g inkscape:groupmode="layer" id="g_97" transform="matrix(0.1, 0.0, 0.0, 0.1, 219.17200000000003, 388.832)" inkscape:label="ShapeLayer" style="">
         <g id="g_98" transform="matrix(1.0, 0.0, 0.0, 1.0, -562.0, 98.0)" style="fill-opacity:1.0;fill:rgb(254, 189, 37);fill-rule:nonzero;stroke:url(#linearGradient_99);stroke-opacity:1.0;stroke-width:6.0;stroke-miterlimit:0.0;stroke-linecap:round;stroke-linejoin:round">
            <path d="M 277.824,67.295 C 277.824,67.295 274.11499999999995,110.44999999999999 263.876,123.112 C 253.63699999999997,135.774 220.655,142.751 220.655,142.751 C 220.655,142.751 254.19299999999998,141.09699999999998 267.198,154.856 C 275.83599999999996,163.994 283.861,208.869 283.861,208.869 C 283.861,208.869 285.73199999999997,166.19299999999998 295.335,154.112 C 304.26399999999995,142.88 340.052,133.608 340.052,133.608 C 340.052,133.608 308.13,136.221 295.737,125.309 C 283.34400000000005,114.39699999999999 277.824,67.295 277.824,67.295 Z" style="fill-opacity:1.0;fill:rgb(254, 189, 37);fill-rule:nonzero"/>
         </g>
      </g>
      <g inkscape:groupmode="layer" id="g_100" transform="matrix(0.1, 0.0, 0.0, 0.1, 143.968, 300.487)" inkscape:label="ShapeLayer" style="">
         <g id="g_101" transform="matrix(1.0, 0.0, 0.0, 1.0, -620.0, -177.0)" style="fill-opacity:1.0;fill:rgb(254, 189, 37);fill-rule:nonzero;stroke:url(#linearGradient_102);stroke-opacity:1.0;stroke-width:6.0;stroke-miterlimit:0.0;stroke-linecap:round;stroke-linejoin:round">
            <path d="M 254.002,85 C 254.002,85 251.255,116.967 243.671,126.346 C 236.087,135.725 211.655,140.893 211.655,140.893 C 211.655,140.893 236.497,139.668 246.131,149.86 C 252.529,156.62900000000002 258.474,189.869 258.474,189.869 C 258.474,189.869 259.85900000000004,158.257 266.973,149.308 C 273.587,140.988 300.097,134.12 300.097,134.12 C 300.097,134.12 276.451,136.056 267.271,127.973 C 258.091,119.89 254.002,85 254.002,85 Z" style="fill-opacity:1.0;fill:rgb(254, 189, 37);fill-rule:nonzero"/>
         </g>
      </g>
      <g inkscape:groupmode="layer" id="g_103" transform="matrix(0.1, 0.0, 0.0, 0.1, 197.094, 321.86499999999995)" inkscape:label="ShapeLayer" style="">
         <g id="g_104" transform="matrix(1.0, 0.0, 0.0, 1.0, -494.5, -371.0)" style="fill-opacity:1.0;fill:rgb(254, 189, 37);fill-rule:nonzero;stroke:url(#linearGradient_105);stroke-opacity:1.0;stroke-width:6.0;stroke-miterlimit:0.0;stroke-linecap:round;stroke-linejoin:round">
            <path d="M 277.521,82 C 277.521,82 274.64300000000003,115.49099999999999 266.697,125.317 C 258.751,135.143 233.155,140.558 233.155,140.558 C 233.155,140.558 259.18199999999996,139.274 269.275,149.952 C 275.97799999999995,157.044 282.206,191.869 282.206,191.869 C 282.206,191.869 283.658,158.749 291.111,149.374 C 298.03999999999996,140.65699999999998 325.813,133.462 325.813,133.462 C 325.813,133.462 301.041,135.49 291.423,127.022 C 281.805,118.554 277.521,82 277.521,82 Z" style="fill-opacity:1.0;fill:rgb(254, 189, 37);fill-rule:nonzero"/>
         </g>
      </g>
      <g inkscape:groupmode="layer" id="g_106" transform="matrix(0.1, 0.0, 0.0, 0.1, 281.89, 343.25800000000004)" inkscape:label="ShapeLayer" style="">
         <g id="g_107" transform="matrix(1.0, 0.0, 0.0, 1.0, -35.5, -397.5)" style="fill-opacity:1.0;fill:rgb(254, 189, 37);fill-rule:nonzero;stroke:url(#linearGradient_108);stroke-opacity:1.0;stroke-width:6.0;stroke-miterlimit:0.0;stroke-linecap:round;stroke-linejoin:round">
            <path d="M 277.201,91.817 C 277.201,91.817 273.139,117.919 266.38,125.194 C 259.621,132.469 239.262,135.335 239.262,135.335 C 239.262,135.335 259.736,135.732 267.073,144.647 C 271.94599999999997,150.56799999999998 274.952,178.206 274.952,178.206 C 274.952,178.206 277.875,152.31900000000002 284.223,145.37 C 290.125,138.909 312.288,134.766 312.288,134.766 C 312.288,134.766 292.757,135.02 285.673,127.863 C 278.589,120.706 277.201,91.817 277.201,91.817 Z" style="fill-opacity:1.0;fill:rgb(254, 189, 37);fill-rule:nonzero"/>
         </g>
      </g>
      <g inkscape:groupmode="layer" id="g_109" transform="matrix(0.1, 0.0, 0.0, 0.1, 143.936, 361.558)" inkscape:label="ShapeLayer" style="">
         <g id="g_110" transform="matrix(1.0, 0.0, 0.0, 1.0, -35.5, -397.5)" style="fill-opacity:1.0;fill:rgb(254, 189, 37);fill-rule:nonzero;stroke:url(#linearGradient_111);stroke-opacity:1.0;stroke-width:6.0;stroke-miterlimit:0.0;stroke-linecap:round;stroke-linejoin:round">
            <path d="M 277.201,91.817 C 277.201,91.817 273.139,117.919 266.38,125.194 C 259.621,132.469 239.262,135.335 239.262,135.335 C 239.262,135.335 259.736,135.732 267.073,144.647 C 271.94599999999997,150.56799999999998 274.952,178.206 274.952,178.206 C 274.952,178.206 277.875,152.31900000000002 284.223,145.37 C 290.125,138.909 312.288,134.766 312.288,134.766 C 312.288,134.766 292.757,135.02 285.673,127.863 " style="fill-opacity:1.0;fill:rgb(254, 189, 37);fill-rule:nonzero"/>
         </g>
      </g>
      <g inkscape:groupmode="layer" id="g_112" transform="matrix(0.1, 0.0, 0.0, 0.1, 183.6, 319.6)" inkscape:label="ShapeLayer" style="">
         <g id="g_113" transform="matrix(1.0, 0.0, 0.0, 1.0, -48.5, -399.0)" style="fill-opacity:1.0;fill:rgb(254, 189, 37);fill-rule:nonzero;stroke:url(#linearGradient_114);stroke-opacity:1.0;stroke-width:6.0;stroke-miterlimit:0.0;stroke-linecap:round;stroke-linejoin:round">
            <path d="M -130.799,514.817 C -130.799,514.817 -134.861,540.919 -141.62,548.194 C -148.37900000000002,555.4689999999999 -168.738,558.335 -168.738,558.335 C -168.738,558.335 -148.26399999999998,558.7320000000001 -140.927,567.647 C -136.054,573.5680000000001 -133.048,601.206 -133.048,601.206 C -133.048,601.206 -130.125,575.319 -123.777,568.37 C -117.875,561.909 -95.712,557.766 -95.712,557.766 C -95.712,557.766 -115.243,558.0200000000001 -122.327,550.863 C -129.411,543.706 -130.799,514.817 -130.799,514.817 Z" style="fill-opacity:1.0;fill:rgb(254, 189, 37);fill-rule:nonzero"/>
         </g>
      </g>
      <g inkscape:groupmode="layer" id="g_115" transform="matrix(0.1, 0.0, 0.0, 0.1, 268.40999999999997, 357.437)" inkscape:label="ShapeLayer" style="">
         <g id="g_116" transform="matrix(1.0, 0.0, 0.0, 1.0, -139.0, 295.0)" style="fill-opacity:1.0;fill:rgb(254, 189, 37);fill-rule:nonzero;stroke:url(#linearGradient_117);stroke-opacity:1.0;stroke-width:6.0;stroke-miterlimit:0.0;stroke-linecap:round;stroke-linejoin:round">
            <path d="M 278.628,54 C 278.628,54 276.17400000000004,80.97399999999999 269.732,88.859 C 263.29,96.744 242.644,101.005 242.644,101.005 C 242.644,101.005 263.621,100.076 271.71,108.72 C 277.08299999999997,114.461 281.961,142.547 281.961,142.547 C 281.961,142.547 283.264,115.866 289.307,108.342 C 294.92600000000004,101.346 317.333,95.66 317.333,95.66 C 317.333,95.66 297.36400000000003,97.195 289.648,90.333 C 281.932,83.471 278.628,54 278.628,54 Z" style="fill-opacity:1.0;fill:rgb(254, 189, 37);fill-rule:nonzero"/>
         </g>
      </g>
      <g inkscape:groupmode="layer" id="g_118" transform="matrix(0.1, 0.0, 0.0, 0.1, 335.541, 314.44)" inkscape:label="ShapeLayer" style="">
         <g id="g_119" transform="matrix(1.0, 0.0, 0.0, 1.0, 90.5, -82.5)" style="fill-opacity:1.0;fill:rgb(254, 189, 37);fill-rule:nonzero;stroke:url(#linearGradient_120);stroke-opacity:1.0;stroke-width:6.0;stroke-miterlimit:0.0;stroke-linecap:round;stroke-linejoin:round">
            <path d="M 288.968,74.285 C 288.968,74.285 287.16299999999995,96.844 281.852,103.491 C 276.541,110.138 259.33,113.885 259.33,113.885 C 259.33,113.885 276.848,112.91799999999999 283.685,120.067 C 288.226,124.815 292.557,148.236 292.557,148.236 C 292.557,148.236 293.402,125.93199999999999 298.383,119.591 C 303.014,113.695 321.684,108.741 321.684,108.741 C 321.684,108.741 305.015,110.204 298.506,104.541 C 291.99699999999996,98.878 288.968,74.285 288.968,74.285 Z" style="fill-opacity:1.0;fill:rgb(254, 189, 37);fill-rule:nonzero"/>
         </g>
      </g>
      <g inkscape:groupmode="layer" id="g_121" transform="matrix(0.1, 0.0, 0.0, 0.1, 355.91299999999995, 362.417)" inkscape:label="ShapeLayer" style="">
         <g id="g_122" transform="matrix(1.0, 0.0, 0.0, 1.0, 0.0, 0.0)" style="fill-opacity:1.0;fill:rgb(254, 189, 37);fill-rule:nonzero;stroke:url(#linearGradient_123);stroke-opacity:1.0;stroke-width:6.0;stroke-miterlimit:0.0;stroke-linecap:round;stroke-linejoin:round">
            <path d="M 402.24,-170.27 C 402.24,-170.27 401.718,-139.167 389.012,-126.139 C 376.306,-113.11099999999999 351.411,-110.943 351.411,-110.943 C 351.411,-110.943 380.924,-109.19699999999999 388.811,-99.689 C 395.539,-91.579 400.513,-56.021 400.513,-56.021 C 400.513,-56.021 404.87199999999996,-87.47 412.364,-98.225 C 419.72799999999995,-108.79599999999999 454.324,-108.745 454.324,-108.745 C 454.324,-108.745 425.57099999999997,-111.135 414.64,-124.048 C 403.709,-136.961 402.24,-170.27 402.24,-170.27 Z" style="fill-opacity:1.0;fill:rgb(254, 189, 37);fill-rule:nonzero"/>
         </g>
      </g>
      <g inkscape:groupmode="layer" id="g_124" transform="matrix(0.1, 0.0, 0.0, 0.1, 180.749, 382.136)" inkscape:label="ShapeLayer" style="">
         <g id="g_125" transform="matrix(1.0, 0.0, 0.0, 1.0, 0.0, 0.0)" style="fill-opacity:1.0;fill:rgb(254, 189, 37);fill-rule:nonzero;stroke:url(#linearGradient_126);stroke-opacity:1.0;stroke-width:6.0;stroke-miterlimit:0.0;stroke-linecap:round;stroke-linejoin:round">
            <path d="M -198,400 C -198,400 -196.54000000000002,422.054 -204.77,432.027 C -213.0,442.0 -230.5,445 -230.5,445 C -230.5,445 -209.5,444.5 -203.356,450.768 C -198.115,456.11499999999995 -192.5,481 -192.5,481 C -192.5,481 -191.264,458.474 -186.592,450.418 C -182.0,442.5 -157.5,440.5 -157.5,440.5 C -157.5,440.5 -178.0,440.5 -186.5,432 C -195.0,423.5 -198,400 -198,400 Z" style="fill-opacity:1.0;fill:rgb(254, 189, 37);fill-rule:nonzero"/>
         </g>
      </g>
      <g inkscape:groupmode="layer" id="g_127" transform="matrix(0.1, 0.0, 0.0, 0.1, 325.853, 420.559)" inkscape:label="ShapeLayer" style="">
         <g id="g_128" transform="matrix(0.9884542529438459, 0.1515196021550462, -0.1515196021550462, 0.9884542529438459, 25.0, -48.0)" style="fill-opacity:1.0;fill:rgb(238, 252, 255);fill-rule:nonzero;stroke:url(#linearGradient_129);stroke-opacity:1.0;stroke-width:6.0;stroke-miterlimit:0.0;stroke-linecap:round;stroke-linejoin:round">
            <path d="M 270.5,86 C 270.5,86 271.852,120.30799999999999 265.051,131.279 C 258.25,142.25 233,151 233,151 C 233,151 259.214,146.382 270.803,155.917 C 278.5,162.25 289.25,196.75 289.25,196.75 C 289.25,196.75 286.5,163.0 292.858,152.549 C 298.77,142.832 326,132 326,132 C 326,132 301.15200000000004,137.212 290.326,129.856 C 279.5,122.5 270.5,86 270.5,86 Z" style="fill-opacity:1.0;fill:rgb(238, 252, 255);fill-rule:nonzero"/>
         </g>
      </g>
      <g inkscape:groupmode="layer" id="g_130" transform="matrix(0.1, 0.0, 0.0, 0.1, 187.899, 314.278)" inkscape:label="ShapeLayer" style="">
         <g id="g_131" transform="matrix(0.9884542529438459, 0.1515196021550462, -0.1515196021550462, 0.9884542529438459, 25.0, -48.0)" style="fill-opacity:1.0;fill:rgb(238, 252, 255);fill-rule:nonzero;stroke:url(#linearGradient_132);stroke-opacity:1.0;stroke-width:6.0;stroke-miterlimit:0.0;stroke-linecap:round;stroke-linejoin:round">
            <path d="M 270.5,86 C 270.5,86 271.852,120.30799999999999 265.051,131.279 C 258.25,142.25 233,151 233,151 C 233,151 259.214,146.382 270.803,155.917 C 278.5,162.25 289.25,196.75 289.25,196.75 C 289.25,196.75 286.5,163.0 292.858,152.549 C 298.77,142.832 326,132 326,132 C 326,132 301.15200000000004,137.212 290.326,129.856 " style="fill-opacity:1.0;fill:rgb(238, 252, 255);fill-rule:nonzero"/>
         </g>
      </g>
      <g inkscape:groupmode="layer" id="g_133" transform="matrix(0.1, 0.0, 0.0, 0.1, 284.4, 337.8)" inkscape:label="ShapeLayer" style="">
         <g id="g_134" transform="matrix(1.0, 0.0, 0.0, 1.0, -139.0, 295.0)" style="fill-opacity:1.0;fill:rgb(254, 189, 37);fill-rule:nonzero;stroke:url(#linearGradient_135);stroke-opacity:1.0;stroke-width:6.0;stroke-miterlimit:0.0;stroke-linecap:round;stroke-linejoin:round">
            <path d="M 278.628,54 C 278.628,54 276.17400000000004,80.97399999999999 269.732,88.859 C 263.29,96.744 242.644,101.005 242.644,101.005 C 242.644,101.005 263.621,100.076 271.71,108.72 C 277.08299999999997,114.461 281.961,142.547 281.961,142.547 C 281.961,142.547 283.264,115.866 289.307,108.342 C 294.92600000000004,101.346 317.333,95.66 317.333,95.66 C 317.333,95.66 297.36400000000003,97.195 289.648,90.333 C 281.932,83.471 278.628,54 278.628,54 Z" style="fill-opacity:1.0;fill:rgb(254, 189, 37);fill-rule:nonzero"/>
         </g>
      </g>
      <g inkscape:groupmode="layer" id="g_136" transform="matrix(0.1, 0.0, 0.0, 0.1, 152.781, 345.54200000000003)" inkscape:label="ShapeLayer" style="">
         <g id="g_137" transform="matrix(1.0, 0.0, 0.0, 1.0, -139.0, 295.0)" style="fill-opacity:1.0;fill:rgb(254, 189, 37);fill-rule:nonzero;stroke:url(#linearGradient_138);stroke-opacity:1.0;stroke-width:6.0;stroke-miterlimit:0.0;stroke-linecap:round;stroke-linejoin:round">
            <path d="M 278.628,54 C 278.628,54 276.17400000000004,80.97399999999999 269.732,88.859 C 263.29,96.744 242.644,101.005 242.644,101.005 C 242.644,101.005 263.621,100.076 271.71,108.72 C 277.08299999999997,114.461 281.961,142.547 281.961,142.547 C 281.961,142.547 283.264,115.866 289.307,108.342 C 294.92600000000004,101.346 317.333,95.66 317.333,95.66 C 317.333,95.66 297.36400000000003,97.195 289.648,90.333 " style="fill-opacity:1.0;fill:rgb(254, 189, 37);fill-rule:nonzero"/>
         </g>
      </g>
      <g inkscape:groupmode="layer" id="g_139" transform="matrix(0.1, 0.0, 0.0, 0.1, 396.474, 329.54200000000003)" inkscape:label="ShapeLayer" style="">
         <g id="g_140" transform="matrix(1.0, 0.0, 0.0, 1.0, -139.0, 295.0)" style="fill-opacity:1.0;fill:rgb(254, 189, 37);fill-rule:nonzero;stroke:url(#linearGradient_141);stroke-opacity:1.0;stroke-width:6.0;stroke-miterlimit:0.0;stroke-linecap:round;stroke-linejoin:round">
            <path d="M 278.628,54 C 278.628,54 276.17400000000004,80.97399999999999 269.732,88.859 C 263.29,96.744 242.644,101.005 242.644,101.005 C 242.644,101.005 263.621,100.076 271.71,108.72 C 277.08299999999997,114.461 281.961,142.547 281.961,142.547 C 281.961,142.547 283.264,115.866 289.307,108.342 C 294.92600000000004,101.346 317.333,95.66 317.333,95.66 C 317.333,95.66 297.36400000000003,97.195 289.648,90.333 C 281.932,83.471 278.628,54 278.628,54 Z" style="fill-opacity:1.0;fill:rgb(254, 189, 37);fill-rule:nonzero"/>
         </g>
      </g>
      <g inkscape:groupmode="layer" id="g_142" transform="matrix(0.1, 0.0, 0.0, 0.1, 331.01599999999996, 264.788)" inkscape:label="ShapeLayer" style="">
         <g id="g_143" transform="matrix(1.0, 0.0, 0.0, 1.0, -139.0, 295.0)" style="fill-opacity:1.0;fill:rgb(254, 189, 37);fill-rule:nonzero;stroke:url(#linearGradient_144);stroke-opacity:1.0;stroke-width:6.0;stroke-miterlimit:0.0;stroke-linecap:round;stroke-linejoin:round">
            <path d="M 278.628,54 C 278.628,54 276.17400000000004,80.97399999999999 269.732,88.859 C 263.29,96.744 242.644,101.005 242.644,101.005 C 242.644,101.005 263.621,100.076 271.71,108.72 C 277.08299999999997,114.461 281.961,142.547 281.961,142.547 C 281.961,142.547 283.264,115.866 289.307,108.342 C 294.92600000000004,101.346 317.333,95.66 317.333,95.66 C 317.333,95.66 297.36400000000003,97.195 289.648,90.333 " style="fill-opacity:1.0;fill:rgb(254, 189, 37);fill-rule:nonzero"/>
         </g>
      </g>
      <g inkscape:groupmode="layer" id="g_145" transform="matrix(0.1, 0.0, 0.0, 0.1, 416.971, 291.976)" inkscape:label="ShapeLayer" style="">
         <g id="g_146" transform="matrix(1.0, 0.0, 0.0, 1.0, 90.5, -82.5)" style="fill-opacity:1.0;fill:rgb(254, 189, 37);fill-rule:nonzero;stroke:url(#linearGradient_147);stroke-opacity:1.0;stroke-width:6.0;stroke-miterlimit:0.0;stroke-linecap:round;stroke-linejoin:round">
            <path d="M 288.968,74.285 C 288.968,74.285 287.16299999999995,96.844 281.852,103.491 C 276.541,110.138 259.33,113.885 259.33,113.885 C 259.33,113.885 276.848,112.91799999999999 283.685,120.067 C 288.226,124.815 292.557,148.236 292.557,148.236 C 292.557,148.236 293.402,125.93199999999999 298.383,119.591 C 303.014,113.695 321.684,108.741 321.684,108.741 C 321.684,108.741 305.015,110.204 298.506,104.541 C 291.99699999999996,98.878 288.968,74.285 288.968,74.285 Z" style="fill-opacity:1.0;fill:rgb(254, 189, 37);fill-rule:nonzero"/>
         </g>
      </g>
      <g inkscape:groupmode="layer" id="g_148" transform="matrix(0.1, 0.0, 0.0, 0.1, 330.11699999999996, 412.364)" inkscape:label="ShapeLayer" style="">
         <g id="g_149" transform="matrix(1.0, 0.0, 0.0, 1.0, 0.0, 0.0)" style="fill-opacity:1.0;fill:rgb(254, 189, 37);fill-rule:nonzero;stroke:url(#linearGradient_150);stroke-opacity:1.0;stroke-width:6.0;stroke-miterlimit:0.0;stroke-linecap:round;stroke-linejoin:round">
            <path d="M 402.24,-170.27 C 402.24,-170.27 401.718,-139.167 389.012,-126.139 C 376.306,-113.11099999999999 351.411,-110.943 351.411,-110.943 C 351.411,-110.943 380.924,-109.19699999999999 388.811,-99.689 C 395.539,-91.579 400.513,-56.021 400.513,-56.021 C 400.513,-56.021 404.87199999999996,-87.47 412.364,-98.225 C 419.72799999999995,-108.79599999999999 454.324,-108.745 454.324,-108.745 C 454.324,-108.745 425.57099999999997,-111.135 414.64,-124.048 C 403.709,-136.961 402.24,-170.27 402.24,-170.27 Z" style="fill-opacity:1.0;fill:rgb(254, 189, 37);fill-rule:nonzero"/>
         </g>
      </g>
      <g inkscape:groupmode="layer" id="g_151" transform="matrix(0.1, 0.0, 0.0, 0.1, 132.336, 345.49899999999997)" inkscape:label="ShapeLayer" style="">
         <g id="g_152" transform="matrix(1.0, 0.0, 0.0, 1.0, 0.0, 0.0)" style="fill-opacity:1.0;fill:rgb(254, 189, 37);fill-rule:nonzero;stroke:url(#linearGradient_153);stroke-opacity:1.0;stroke-width:6.0;stroke-miterlimit:0.0;stroke-linecap:round;stroke-linejoin:round">
            <path d="M 402.24,-170.27 C 402.24,-170.27 401.718,-139.167 389.012,-126.139 C 376.306,-113.11099999999999 351.411,-110.943 351.411,-110.943 C 351.411,-110.943 380.924,-109.19699999999999 388.811,-99.689 C 395.539,-91.579 400.513,-56.021 400.513,-56.021 C 400.513,-56.021 404.87199999999996,-87.47 412.364,-98.225 C 419.72799999999995,-108.79599999999999 454.324,-108.745 454.324,-108.745 C 454.324,-108.745 425.57099999999997,-111.135 414.64,-124.048 " style="fill-opacity:1.0;fill:rgb(254, 189, 37);fill-rule:nonzero"/>
         </g>
      </g>
      <g inkscape:groupmode="layer" id="g_154" transform="matrix(0.1, 0.0, 0.0, 0.1, 293.438, 346.088)" inkscape:label="ShapeLayer" style="">
         <g id="g_155" transform="matrix(1.0, 0.0, 0.0, 1.0, 0.0, 0.0)" style="fill-opacity:1.0;fill:rgb(254, 189, 37);fill-rule:nonzero;stroke:url(#linearGradient_156);stroke-opacity:1.0;stroke-width:6.0;stroke-miterlimit:0.0;stroke-linecap:round;stroke-linejoin:round">
            <path d="M -198,400 C -198,400 -196.54000000000002,422.054 -204.77,432.027 C -213.0,442.0 -230.5,445 -230.5,445 C -230.5,445 -209.5,444.5 -203.356,450.768 C -198.115,456.11499999999995 -192.5,481 -192.5,481 C -192.5,481 -191.264,458.474 -186.592,450.418 C -182.0,442.5 -157.5,440.5 -157.5,440.5 C -157.5,440.5 -178.0,440.5 -186.5,432 C -195.0,423.5 -198,400 -198,400 Z" style="fill-opacity:1.0;fill:rgb(254, 189, 37);fill-rule:nonzero"/>
         </g>
      </g>
      <g inkscape:groupmode="layer" id="g_157" transform="matrix(0.1, 0.0, 0.0, 0.1, 248.392, 335.53)" inkscape:label="ShapeLayer" style="">
         <g id="g_158" transform="matrix(1.0, 0.0, 0.0, 1.0, 0.0, 0.0)" style="fill-opacity:1.0;fill:rgb(254, 189, 37);fill-rule:nonzero;stroke:url(#linearGradient_159);stroke-opacity:1.0;stroke-width:6.0;stroke-miterlimit:0.0;stroke-linecap:round;stroke-linejoin:round">
            <path d="M -198,400 C -198,400 -196.54000000000002,422.054 -204.77,432.027 C -213.0,442.0 -230.5,445 -230.5,445 C -230.5,445 -209.5,444.5 -203.356,450.768 C -198.115,456.11499999999995 -192.5,481 -192.5,481 C -192.5,481 -191.264,458.474 -186.592,450.418 C -182.0,442.5 -157.5,440.5 -157.5,440.5 C -157.5,440.5 -178.0,440.5 -186.5,432 " style="fill-opacity:1.0;fill:rgb(254, 189, 37);fill-rule:nonzero"/>
         </g>
      </g>
   </g>
   <g inkscape:groupmode="layer" id="g_162" transform="matrix(1.0, 0.0, 0.0, 1.0, -6.168000000000006, 61.639999999999986)" inkscape:label="ShapeLayer" style="fill-opacity:1.0;fill:rgb(231, 133, 16);fill-rule:nonzero">
      <g id="g_163" inkscape:label="50" transform="matrix(1.0, 0.0, 0.0, 1.0, 269.245, 370.915)" style="">
         <g id="g_164" inkscape:label="50" transform="matrix(1.0, 0.0, 0.0, 1.0, 0.0, 0.0)" style="">
            <g id="g_165" inkscape:label="" transform="matrix(1.0, 0.0, 0.0, 1.0, 0.0, 0.0)" style="">
               <path d="M 47.655,-12.64 C 47.655,-8.413 46.78,-5.179 45.03,-2.939 C 43.28,-0.6989999999999998 40.718999999999994,0.42 37.346,0.42 C 34.01499999999999,0.42 31.467,-0.6779999999999999 29.703,-2.876 C 27.939,-5.074 27.037000000000003,-8.224 26.995,-12.325 C 26.995,-12.325 26.995,-17.952 26.995,-17.952 C 26.995,-22.221000000000004 27.88,-25.461 29.651,-27.673 C 31.422,-29.884999999999998 33.973,-30.99 37.304,-30.99 C 40.635000000000005,-30.99 43.181999999999995,-29.895 44.946,-27.704 C 46.71,-25.513 47.613,-22.368 47.655,-18.267 C 47.655,-18.267 47.655,-12.64 47.655,-12.64 C 47.655,-12.64 47.655,-12.64 47.655,-12.64 Z
M 41.587,-18.826 C 41.587,-21.362000000000002 41.241,-23.208000000000002 40.548,-24.364 C 39.855000000000004,-25.52 38.774,-26.098 37.304,-26.098 C 35.876000000000005,-26.098 34.823,-25.548000000000002 34.144,-24.448 C 33.464999999999996,-23.348 33.105000000000004,-21.629 33.063,-19.289 C 33.063,-19.289 33.063,-11.849 33.063,-11.849 C 33.063,-9.355 33.402,-7.502 34.081,-6.29 C 34.760000000000005,-5.078 35.848,-4.472 37.346,-4.472 C 38.83,-4.472 39.9,-5.053 40.558,-6.216 C 41.216,-7.3790000000000004 41.559000000000005,-9.158999999999999 41.587,-11.555 C 41.587,-11.555 41.587,-18.826 41.587,-18.826 " id="path_166" inkscape:label="" style=""/>
            </g>
            <path d="M 2.981,-15.033 C 2.981,-15.033 4.745,-30.57 4.745,-30.57 C 4.745,-30.57 21.878,-30.57 21.878,-30.57 C 21.878,-30.57 21.878,-25.51 21.878,-25.51 C 21.878,-25.51 9.721,-25.51 9.721,-25.51 C 9.721,-25.51 8.965,-18.938 8.965,-18.938 C 10.407,-19.708 11.939,-20.093 13.563,-20.093 C 16.474,-20.093 18.756,-19.191000000000003 20.408,-17.385 C 22.060000000000002,-15.579 22.886,-13.052 22.886,-9.805 C 22.886,-7.8309999999999995 22.468999999999998,-6.0649999999999995 21.636,-4.504 C 20.803,-2.9429999999999996 19.610999999999997,-1.732 18.057,-0.871 C 16.503,-0.010000000000000009 14.669999999999998,0.42 12.556,0.42 C 10.707999999999998,0.42 8.994,0.04600000000000004 7.412,-0.703 C 5.83,-1.452 4.581,-2.505 3.664,-3.863 C 2.747,-5.221 2.261,-6.767 2.205,-8.503 C 2.205,-8.503 8.209,-8.503 8.209,-8.503 C 8.334999999999999,-7.229 8.78,-6.239 9.543,-5.532 C 10.306,-4.825 11.303,-4.472 12.535,-4.472 C 13.907,-4.472 14.963000000000001,-4.965 15.705,-5.952 C 16.447,-6.939 16.818,-8.335 16.818,-10.141 C 16.818,-11.877 16.391000000000002,-13.206000000000001 15.537,-14.13 C 14.683000000000002,-15.054 13.472999999999999,-15.516 11.905,-15.516 C 10.463,-15.516 9.294,-15.138 8.398,-14.382 C 8.398,-14.382 7.811,-13.836 7.811,-13.836 C 7.811,-13.836 2.981,-15.033 2.981,-15.033 " id="path_167" inkscape:label="" style=""/>
         </g>
      </g>
   </g>
   <g inkscape:groupmode="layer" id="g_168" transform="matrix(1.02, 0.0, 0.0, 1.02, 184.42476000000002, 379.14776)" inkscape:label="ShapeLayer" style="">
      <g id="g_169" transform="matrix(1.0, 0.0, 0.0, 1.0, 0.0, 0.0)" style="">
         <g id="g_170" transform="matrix(1.0, 0.0, 0.0, 1.0, 0.0, 0.0)" style="fill-opacity:1.0;fill:url(#linearGradient_171);fill-rule:nonzero">
            <path d="M 26.45,24.31 C 26.45,24.31 32.85,11.56 32.85,11.56 C 33.59,10.09 35.38,9.5 36.84,10.24 C 37.410000000000004,10.53 37.87,11.0 38.16,11.58 C 38.16,11.58 44.21,23.88 44.21,23.88 C 44.7,24.89 45.67,25.57 46.78,25.7 C 46.78,25.7 59.43,27.22 59.43,27.22 C 61.15,27.43 62.38,29.0 62.18,30.73 C 62.089999999999996,31.44 61.769999999999996,32.1 61.26,32.6 C 61.26,32.6 51.25,42.47 51.25,42.47 C 50.84,42.87 50.65,43.43 50.72,44 C 50.72,44 52.39,57.32 52.39,57.32 C 52.63,59.23 51.28,60.97 49.38,61.21 C 48.660000000000004,61.300000000000004 47.94,61.17 47.3,60.82 C 47.3,60.82 36.73,55.04 36.73,55.04 C 35.959999999999994,54.62 35.040000000000006,54.61 34.27,55.01 C 34.27,55.01 23.31,60.63 23.31,60.63 C 21.77,61.42 19.89,60.8 19.1,59.25 C 18.8,58.67 18.7,58.02 18.79,57.38 C 18.79,57.38 19.66,51.26 19.66,51.26 C 20.09,48.269999999999996 21.94,45.669999999999995 24.62,44.3 C 24.62,44.3 36.78,38.09 36.78,38.09 C 36.78,38.09 37.07,37.2 37.07,37.2 C 37.07,37.2 36.39,36.84 36.39,36.84 C 36.39,36.84 21.51,38.98 21.51,38.98 C 19.240000000000002,39.3 16.94,38.660000000000004 15.15,37.2 C 15.15,37.2 10.2,33.16 10.2,33.16 C 8.79,32.01 8.56,29.909999999999997 9.71,28.49 C 10.25,27.83 11.02,27.4 11.86,27.29 C 11.86,27.29 24.56,25.66 24.56,25.66 C 25.369999999999997,25.55 26.08,25.049999999999997 26.45,24.31 C 26.45,24.31 26.45,24.31 26.45,24.31 Z" style="fill-opacity:1.0;fill:url(#linearGradient_172);fill-rule:nonzero"/>
         </g>
         <g id="g_173" transform="matrix(1.0, 0.0, 0.0, 1.0, 0.0, 0.0)" style="fill-opacity:1.0;fill:url(#linearGradient_174);fill-rule:nonzero">
            <path d="M 37.71,13.83 C 36.42,13.540000000000001 35.05,14.16 34.43,15.4 C 34.43,15.4 28.02,28.15 28.02,28.15 C 27.65,28.889999999999997 26.95,29.39 26.13,29.5 C 26.13,29.5 13.43,31.14 13.43,31.14 C 12.61,31.25 11.86,31.650000000000002 11.33,32.28 C 11.33,32.28 16.03,36.12 16.03,36.12 C 17.51,37.33 19.43,37.86000000000001 21.32,37.59 C 21.32,37.59 36.19,35.46 36.19,35.46 C 37.07,35.34 37.93,35.78 38.32,36.57 C 38.83,37.58 38.43,38.82 37.42,39.34 C 37.42,39.34 33.54,41.32 33.54,41.32 C 33.54,41.32 37.96,40.68 37.96,40.68 C 37.96,40.68 38.64,41.04 38.64,41.04 C 38.64,41.04 38.35,41.93 38.35,41.93 C 38.35,41.93 26.19,48.14 26.19,48.14 C 23.51,49.51 21.66,52.11 21.23,55.1 C 21.23,55.1 20.66,59.07 20.66,59.07 C 21.18,59.59 22.0,59.730000000000004 22.68,59.38 C 22.68,59.38 33.62,53.76 33.62,53.76 C 34.809999999999995,53.15 36.22,53.17 37.39,53.81 C 37.39,53.81 47.96,59.59 47.96,59.59 C 47.96,59.59 49.21,59.83 49.21,59.83 C 50.33,59.69 51.14,58.65 51,57.5 C 51,57.5 49.34,44.17 49.34,44.17 C 49.220000000000006,43.17 49.56,42.18 50.27,41.48 C 50.27,41.48 60.28,31.61 60.28,31.61 C 60.28,31.61 60.67,31.02 60.67,31.02 C 60.67,31.02 48.35,29.54 48.35,29.54 C 47.24,29.41 46.28,28.72 45.78,27.72 C 45.78,27.72 45.3,26.73 45.3,26.73 C 44.29,26.29 43.46,25.51 42.96,24.5 C 42.96,24.5 37.71,13.83 37.71,13.83 Z" style="fill-opacity:1.0;fill:url(#linearGradient_175);fill-rule:nonzero"/>
         </g>
         <g id="g_176" transform="matrix(1.0, 0.0, 0.0, 1.0, 0.0, 0.0)" style="fill-opacity:1.0;fill:url(#linearGradient_177);fill-rule:nonzero">
            <path d="M 34.1,12.18 C 34.49,11.4 35.44,11.09 36.21,11.48 C 36.21,11.48 36.91,12.2 36.91,12.2 C 36.91,12.2 42.96,24.5 42.96,24.5 C 43.660000000000004,25.93 45.03,26.9 46.61,27.09 C 46.61,27.09 59.27,28.61 59.27,28.61 C 60.220000000000006,28.72 60.9,29.59 60.79,30.56 C 60.79,30.56 60.28,31.61 60.28,31.61 C 60.28,31.61 50.27,41.48 50.27,41.48 C 49.56,42.18 49.220000000000006,43.17 49.34,44.17 C 49.34,44.17 51,57.5 51,57.5 C 51.14,58.65 50.33,59.69 49.21,59.83 C 49.21,59.83 47.96,59.59 47.96,59.59 C 47.96,59.59 37.39,53.81 37.39,53.81 C 36.22,53.17 34.809999999999995,53.160000000000004 33.62,53.77 C 33.62,53.77 22.67,59.39 22.67,59.39 C 21.82,59.82 20.78,59.48 20.34,58.62 C 20.34,58.62 20.17,57.57 20.17,57.57 C 20.17,57.57 21.04,51.46 21.04,51.46 C 21.4,48.92 22.98,46.709999999999994 25.25,45.55 C 25.25,45.55 37.41,39.34 37.41,39.34 C 38.43,38.82 38.83,37.58 38.32,36.57 C 37.92,35.78 37.07,35.34 36.19,35.46 C 36.19,35.46 21.31,37.59 21.31,37.59 C 19.419999999999998,37.86000000000001 17.51,37.33 16.03,36.12 C 16.03,36.12 11.08,32.07 11.08,32.07 C 10.26,31.4 10.13,30.19 10.8,29.37 C 10.8,29.37 12.03,28.68 12.03,28.68 C 12.03,28.68 24.73,27.04 24.73,27.04 C 26.01,26.88 27.12,26.09 27.7,24.94 C 27.7,24.94 34.1,12.18 34.1,12.18 Z
M 37.47,8.99 C 35.31,7.9 32.69,8.77 31.61,10.93 C 31.61,10.93 25.2,23.69 25.2,23.69 C 25.2,23.69 24.38,24.27 24.38,24.27 C 24.38,24.27 11.68,25.91 11.68,25.91 C 10.48,26.06 9.379999999999999,26.68 8.62,27.62 C 6.989999999999999,29.64 7.300000000000001,32.6 9.31,34.24 C 9.31,34.24 14.27,38.29 14.27,38.29 C 16.36,39.99 19.05,40.74 21.71,40.36 C 21.71,40.36 32.22,38.85 32.22,38.85 C 32.22,38.85 23.98,43.06 23.98,43.06 C 20.89,44.64 18.77,47.620000000000005 18.28,51.06 C 18.28,51.06 17.4,57.18 17.4,57.18 C 17.27,58.11 17.42,59.05 17.85,59.89 C 18.98,62.12 21.72,63.01 23.95,61.87 C 23.95,61.87 34.9,56.25 34.9,56.25 C 34.9,56.25 36.05,56.27 36.05,56.27 C 36.05,56.27 46.62,62.04 46.62,62.04 C 47.51,62.53 48.54,62.730000000000004 49.55,62.6 C 52.22,62.26 54.1,59.81 53.77,57.15 C 53.77,57.15 52.11,43.82 52.11,43.82 C 52.11,43.82 52.23,43.46 52.23,43.46 C 52.23,43.46 62.24,33.59 62.24,33.59 C 62.97,32.86000000000001 63.440000000000005,31.91 63.56,30.89 C 63.85,28.4 62.09,26.14 59.6,25.84 C 59.6,25.84 46.94,24.32 46.94,24.32 C 46.309999999999995,24.25 45.75,23.849999999999998 45.46,23.27 C 45.46,23.27 39.42,10.96 39.42,10.96 C 39.0,10.110000000000001 38.31,9.42 37.47,8.99 C 37.47,8.99 37.47,8.99 37.47,8.99 Z" style="fill-opacity:1.0;fill:url(#linearGradient_178);fill-rule:nonzero"/>
         </g>
      </g>
   </g>
</svg>
